<svg width="16" height="17" viewBox="0 0 16 17" fill="none" xmlns="http://www.w3.org/2000/svg"> <path d="M12.8322 7.11511C12.8322 8.48653 12.387 9.75337 11.6369 10.7812L15.4202 14.5668C15.7938 14.9403 15.7938 15.5468 15.4202 15.9203C15.0467 16.2938 14.44 16.2938 14.0665 15.9203L10.2831 12.1347C9.2551 12.8876 7.98801 13.3298 6.61632 13.3298C3.18262 13.3298 0.400391 10.5481 0.400391 7.11511C0.400391 3.68207 3.18262 0.900391 6.61632 0.900391C10.05 0.900391 12.8322 3.68207 12.8322 7.11511ZM6.61632 11.4176C8.99212 11.4176 10.9197 9.49044 10.9197 7.11511C10.9197 4.73977 8.99212 2.81261 6.61632 2.81261C4.24052 2.81261 2.31298 4.73977 2.31298 7.11511C2.31298 9.49044 4.24052 11.4176 6.61632 11.4176Z" fill="#005C96"/></svg>