<svg xmlns="http://www.w3.org/2000/svg" viewBox="0 0 441 298">
	<style>
		.st0{fill:none;stroke:#000;stroke-width:.7484}.st1{fill:#f7f6f4}.st3,.st4{fill:none;stroke:#000;stroke-width:.9979}.st4{stroke-width:1.4969;stroke-linecap:round}
	</style>
	<path d="m70.8 142.2 29.7-.4-.5 6.5h47.8l-.1-7.8 147.8 1.4v21.8l-7.1 8.6h-46.6l-3.8-7-89.6-.3c-12.6-2.2-16.8-3.6-20.1-6.1H91.6v8.5c-8.3-6.1-12.7-8.5-20.8-8.5z" class="st0"/>
	<path d="M197.7 151.3v4.8h4.8v-4.8z" class="st1"/>
	<path d="M197.7 151.3v4.8h4.8v-4.8z" class="st0"/>
	<path d="M195.7 148.7v3.6h8.9v-3.6z" class="st1"/>
	<path d="M195.7 148.7v3.6h8.9v-3.6z" class="st0"/>
	<path d="M205.8 133.1v10.2h4v5h-4.3v2.2H192v-7.2h3.6l.1-10.2z" class="st1"/>
	<path d="M205.8 133.1v10.2h4v5h-4.3v2.2H192v-7.2h3.6l.1-10.2z" class="st0"/>
	<path fill="none" stroke="#000" stroke-width="1.497" d="M66.9 142.1H137l4.7-9.1h89.5l7.4 9.1h73.6V96.2C291.8 48.7 244.7 15.6 190 15.6 134.6 15.6 87 49.5 67 98c-.1 0-.1 44.1-.1 44.1zM304.2 172h-62.1l-4.7-7.4h-89.6l-7.4 7.4H74.6v45.3c23.4 38.6 66.3 65 114.6 65 48.8 0 91.5-26.3 114.7-65.8.4-.6.3-4.1.3-4.1zM190 291.5c78.8 0 142.7-63.9 142.7-142.7S268.8 6.1 190 6.1 47.3 70 47.3 148.8 111.1 291.5 190 291.5z"/>
	<path d="M128.9 107.3c11.3 0 20.4-9.1 20.4-20.4s-9.1-20.4-20.4-20.4-20.4 9.1-20.4 20.4 9.1 20.4 20.4 20.4z" class="st3"/>
	<path d="M120.1 77.2h.9v-5.7h-.5c-.3.3-.7.5-1.1.7v.5h.8zc.1 0 0 0 0 0m16.6-1.5v.3c0 .7.5 1.3 1.3 1.2 1 0 1.4-.5 1.4-1.5V73c0-1.1-.4-1.5-1.4-1.5s-1.4.5-1.4 1.7v.7c0 .8.5 1.1 1 1.1.4 0 .5-.1.8-.4v1.3c0 .4-.2.5-.5.5s-.4-.2-.4-.5v-.3zm1.7-1.7c-.1.1-.3.3-.5.3s-.4-.2-.4-.5v-.9c0-.4.2-.5.5-.5s.5.2.5.5zm-18.8 26.1.9-2.2v2.2zm.9 2h.9v-1.4h.5v-.6h-.5v-3.5h-.9l-1.6 3.5v.7h1.7zm18.7-4.1v-.3c0-.7-.5-1.3-1.3-1.2-1 0-1.4.5-1.4 1.5v2.7c0 1.1.4 1.5 1.4 1.5s1.4-.5 1.4-1.7v-.7c0-.8-.5-1.2-1-1.2-.4 0-.5.1-.8.4v-1.3c0-.4.2-.5.5-.5s.4.2.4.5v.3zm-1.7 1.7c.1-.1.3-.3.5-.3s.4.2.4.5v.9c0 .4-.2.5-.5.5s-.5-.2-.5-.5zm-24.9-6v.4c0 1 .5 1.4 1.3 1.4 1 0 1.4-.5 1.4-1.6 0-.8-.1-1.1-.7-1.4.5-.3.6-.6.6-1.3s-.4-1.4-1.3-1.4c-.8 0-1.3.5-1.3 1.3v.3h.9v-.2c0-.4.2-.6.4-.6.3 0 .4.2.4.7 0 .7-.2.9-.8.9v.8c.6 0 .8.2.8.8v.4c0 .5-.2.7-.5.7s-.4-.2-.4-.6v-.4h-.8zm31.6-3.1-1.2 4.8h.9l1.2-5.1v-.5h-2.6v.8zm-29-7.1v-.8h-1.7c1.5-2.1 1.8-2.8 1.8-3.7 0-.7-.5-1.2-1.3-1.2-.9 0-1.4.6-1.4 1.5v.3h.9v-.4c0-.3.2-.6.5-.6s.4.2.4.6c0 .8-.7 1.8-1.8 3.5v.8zm27.1-1.5c0 1.1.5 1.6 1.4 1.6s1.4-.6 1.4-1.6c0-.7-.1-1.1-.6-1.4.3-.2.5-.7.5-1.1 0-1.1-.5-1.6-1.3-1.6s-1.3.5-1.3 1.6c0 .4.2.9.5 1.1-.5.2-.6.7-.6 1.4m1.4.8c-.4 0-.5-.4-.5-.9 0-.6.1-.9.5-.9s.5.4.5.9c-.1.6-.2.9-.5.9m0-2.7c-.3 0-.4-.2-.4-.8 0-.5.1-.8.4-.8s.4.2.4.8-.2.8-.4.8m-16.2 23.2v.4c0 .9.6 1.3 1.4 1.3.9 0 1.3-.6 1.3-1.7v-.8c0-.9-.3-1.5-1-1.5-.3 0-.5 0-.7.3l.1-1.2h1.5v-.8h-2.3c0 1.3 0 2-.1 2.9h.7c.1-.2.2-.4.5-.4.2 0 .4.1.4.5v1.3c0 .5-.2.7-.5.7s-.4-.2-.4-.5v-.5zm1.8-30.1c0 .4-.2.5-.5.5s-.5-.2-.5-.5V70c0-.4.2-.5.5-.5s.5.2.5.5zm-1.8-.3c0 1.1.4 1.5 1.4 1.5s1.4-.5 1.4-1.5v-2.7c0-1.1-.4-1.5-1.4-1.5s-1.4.5-1.4 1.5z"/>
	<path d="M166.8 91.4c11.3 0 20.4-9.1 20.4-20.4s-9.1-20.4-20.4-20.4-20.4 9.1-20.4 20.4 9.1 20.4 20.4 20.4z" class="st3"/>
	<path d="M157.1 59.8v.4c0 .7.5 1.3 1.3 1.2 1 0 1.4-.5 1.4-1.5v-2.7c0-1.1-.4-1.5-1.4-1.5s-1.4.5-1.4 1.7v.7c0 .8.5 1.2 1 1.2.4 0 .5-.1.8-.4v1.3c0 .4-.2.5-.5.5s-.4-.2-.4-.5v-.3zm1.7-1.6c-.1.1-.3.3-.5.3s-.4-.2-.4-.5v-.9c0-.4.2-.5.5-.5s.5.2.5.5zm16.7 3.1h.9v-5.7h-.5c-.3.3-.7.5-1.1.7v.5h.8zm-15.9 20.9v-.3c0-.7-.5-1.3-1.3-1.2-1 0-1.4.5-1.4 1.5v2.7c0 1.1.4 1.5 1.4 1.5s1.4-.5 1.4-1.7V84c0-.8-.5-1.2-1-1.2-.4 0-.5.1-.8.4v-1.3c0-.4.2-.5.5-.5s.4.2.4.5v.3zm-1.7 1.6c.1-.1.3-.3.5-.3s.4.2.4.5v1.1c0 .4-.2.5-.5.5s-.5-.2-.5-.5zm17.1.4.9-2.2v2.2zm.9 2.1h.9v-1.4h.5v-.7h-.5v-3.5h-.9l-1.6 3.5v.7h1.7zm-23.8-11.5-1.1 4.8h.9l1.2-5.1V74h-2.6v.8zm28.3 3.2v.3c0 1 .5 1.4 1.3 1.4 1 0 1.4-.5 1.4-1.6 0-.8-.1-1.1-.7-1.4.5-.3.6-.6.6-1.3s-.4-1.4-1.3-1.4c-.8 0-1.3.5-1.3 1.3v.3h.9v-.2c0-.4.2-.6.4-.6.3 0 .4.2.4.7 0 .7-.2.9-.8.9v.8c.6 0 .8.2.8.8v.4c0 .5-.2.7-.5.7s-.4-.2-.4-.6v-.4zm-29.9-11.8c0 1.1.5 1.6 1.4 1.6s1.4-.6 1.4-1.6c0-.7-.1-1.1-.6-1.4.3-.2.5-.7.5-1.1 0-1.1-.5-1.6-1.3-1.6s-1.3.5-1.3 1.6c0 .4.2.9.5 1.1-.5.3-.6.7-.6 1.4m1.3.9c-.4 0-.5-.3-.5-.9s.1-.9.5-.9.5.3.5.9c0 .5-.1.9-.5.9m0-2.7c-.3 0-.4-.2-.4-.8 0-.5.1-.8.4-.8s.4.2.4.8c0 .5-.1.8-.4.8m31 3.4V67h-1.7c1.5-2.1 1.8-2.8 1.8-3.7 0-.7-.5-1.2-1.3-1.2-.9 0-1.4.6-1.4 1.5v.3h.9v-.4c0-.3.2-.6.5-.6s.4.2.4.6c0 .8-.7 1.8-1.9 3.5v.8zm-17.4 19.7v.4c0 .9.6 1.3 1.4 1.3.9 0 1.3-.6 1.3-1.7v-.8c0-.9-.3-1.5-1-1.5-.3 0-.5 0-.7.3l.1-1.2h1.5v-.8h-2.3c0 1.3 0 2-.1 2.9h.7c.1-.2.2-.4.5-.4.2 0 .4.1.4.5v1.3c0 .5-.2.7-.5.7s-.4-.2-.4-.5v-.5zm1.8-30.2c0 .4-.2.5-.5.5s-.5-.2-.5-.5v-3.2c0-.4.2-.5.5-.5s.5.2.5.5zm-1.8-.2c0 1.1.4 1.5 1.4 1.5s1.4-.5 1.4-1.5v-2.7c0-1.1-.4-1.5-1.4-1.5s-1.4.5-1.4 1.5z"/>
	<path d="M207.8 91.4c11.3 0 20.4-9.1 20.4-20.4s-9.1-20.4-20.4-20.4-20.4 9.1-20.4 20.4 9.1 20.4 20.4 20.4z" class="st3"/>
	<path d="M199 61.3h.9v-5.7h-.5c-.3.3-.7.5-1.1.7v.5h.8zm16.6-1.5v.4c0 .7.5 1.3 1.3 1.2 1 0 1.4-.5 1.4-1.5v-2.7c0-1.1-.4-1.5-1.4-1.5s-1.4.5-1.4 1.7v.7c0 .8.5 1.2 1 1.2.4 0 .5-.1.8-.4v1.3c0 .4-.2.5-.5.5s-.4-.2-.4-.5v-.3zm1.7-1.6c-.1.1-.3.3-.5.3s-.4-.2-.4-.5v-.9c0-.4.2-.5.5-.5s.5.2.5.5zm-18.8 26 .9-2.2v2.2zm1 2.1h.9v-1.4h.5v-.7h-.5v-3.5h-.9l-1.6 3.5v.7h1.7zm18.6-4.1v-.3c0-.7-.5-1.3-1.3-1.2-1 0-1.4.5-1.4 1.5v2.7c0 1.1.4 1.5 1.4 1.5s1.4-.5 1.4-1.7V84c0-.8-.5-1.2-1-1.2-.4 0-.5.1-.8.4v-1.3c0-.4.2-.5.5-.5s.4.2.4.5v.3zm-1.7 1.6c.1-.1.3-.3.5-.3s.4.2.4.5v1.1c0 .4-.2.5-.5.5s-.5-.2-.5-.5zM191.6 78v.3c0 1 .5 1.4 1.3 1.4 1 0 1.4-.5 1.4-1.6 0-.8-.1-1.1-.7-1.4.5-.3.6-.6.6-1.3s-.4-1.4-1.3-1.4c-.8 0-1.3.5-1.3 1.3v.3h.9v-.2c0-.4.2-.6.4-.6.3 0 .4.2.4.7 0 .7-.2.9-.8.9v.8c.6 0 .8.2.8.8v.4c0 .5-.2.7-.5.7s-.4-.2-.4-.6v-.4zm31.5-3.2-1.1 4.8h.9l1.1-5.1V74h-2.5v.8zm-29-7V67h-1.7c1.5-2.1 1.8-2.8 1.8-3.7 0-.7-.5-1.2-1.3-1.2-.9 0-1.4.6-1.4 1.5v.3h.9v-.4c0-.3.2-.6.5-.6s.4.2.4.6c0 .8-.7 1.8-1.8 3.5v.8zm27.1-1.6c0 1.1.5 1.6 1.4 1.6s1.4-.6 1.4-1.6c0-.7-.1-1.1-.6-1.4.3-.2.5-.7.5-1.1 0-1.1-.5-1.6-1.3-1.6s-1.3.5-1.3 1.6c0 .4.2.9.5 1.1-.5.3-.6.7-.6 1.4m1.4.9c-.4 0-.5-.3-.5-.9s.1-.9.5-.9.5.3.5.9c0 .5-.2.9-.5.9m0-2.7c-.3 0-.4-.2-.4-.8 0-.5.1-.8.4-.8s.4.2.4.8c0 .5-.1.8-.4.8m-16.2 23.1v.4c0 .9.6 1.3 1.4 1.3.9 0 1.3-.6 1.3-1.7v-.8c0-.9-.3-1.5-1-1.5-.3 0-.5 0-.7.3l.1-1.2h1.5v-.8h-2.3c0 1.3 0 2-.1 2.9h.7c.1-.2.2-.4.5-.4.2 0 .4.1.4.5v1.3c0 .5-.2.7-.5.7s-.4-.2-.4-.5v-.5zm1.8-30.2c0 .4-.2.5-.5.5s-.5-.2-.5-.5v-3.2c0-.4.2-.5.5-.5s.5.2.5.5zm-1.8-.2c0 1.1.4 1.5 1.4 1.5s1.4-.5 1.4-1.5v-2.7c0-1.1-.4-1.5-1.4-1.5s-1.4.5-1.4 1.5z"/>
	<path d="M245.7 107.3c11.3 0 20.4-9.1 20.4-20.4s-9.1-20.4-20.4-20.4-20.4 9.1-20.4 20.4 9.2 20.4 20.4 20.4z" class="st3"/>
	<path d="M236.1 75.7v.3c0 .7.5 1.3 1.3 1.2 1 0 1.4-.5 1.4-1.5V73c0-1.1-.4-1.5-1.4-1.5s-1.4.5-1.4 1.7v.7c0 .8.5 1.1 1 1.1.4 0 .5-.1.8-.4v1.3c0 .4-.2.5-.5.5s-.4-.2-.4-.5v-.3zm1.7-1.7c-.1.1-.3.3-.5.3s-.4-.2-.4-.5v-.9c0-.4.2-.5.5-.5s.5.2.5.5zm16.6 3.2h.9v-5.7h-.5c-.3.3-.7.5-1.1.7v.5h.8zM238.6 98v-.3c0-.7-.5-1.3-1.3-1.2-1 0-1.4.5-1.4 1.5v2.7c0 1.1.4 1.5 1.4 1.5s1.4-.5 1.4-1.7v-.7c0-.8-.5-1.2-1-1.2-.4 0-.5.1-.8.4v-1.3c0-.4.2-.5.5-.5s.4.2.4.5v.3zm-1.7 1.7c.1-.1.3-.3.5-.3s.4.2.4.5v.9c0 .4-.2.5-.5.5s-.5-.2-.5-.5zm17 .4.9-2.2v2.2zm.9 2h.9v-1.4h.5v-.6h-.5v-3.5h-.9l-1.6 3.5v.7h1.7zm-23.6-11.5-1.2 4.8h.9l1.2-5.1v-.5h-2.5v.8zm28.1 3.1v.4c0 1 .5 1.4 1.3 1.4 1 0 1.4-.5 1.4-1.6 0-.8-.1-1.1-.7-1.4.5-.3.6-.6.6-1.3s-.4-1.4-1.3-1.4c-.8 0-1.3.5-1.3 1.3v.3h.9v-.2c0-.4.2-.6.4-.6.3 0 .4.2.4.7 0 .7-.2.9-.8.9v.8c.6 0 .8.2.8.8v.4c0 .5-.2.7-.5.7s-.4-.2-.4-.6v-.4h-.8zM229.5 82c0 1.1.5 1.6 1.4 1.6s1.4-.6 1.4-1.6c0-.7-.1-1.1-.6-1.4.3-.2.5-.7.5-1.1 0-1.1-.5-1.6-1.3-1.6s-1.3.5-1.3 1.6c0 .4.2.9.5 1.1-.5.2-.6.7-.6 1.4m1.3.8c-.4 0-.5-.4-.5-.9 0-.6.1-.9.5-.9s.5.4.5.9c0 .6-.1.9-.5.9m0-2.7c-.3 0-.4-.2-.4-.8 0-.5.1-.8.4-.8s.4.2.4.8c.1.6-.1.8-.4.8m31 3.4v-.8h-1.7c1.5-2.1 1.8-2.8 1.8-3.7 0-.7-.5-1.2-1.3-1.2-.9 0-1.4.6-1.4 1.5v.3h.9v-.4c0-.3.2-.6.5-.6s.4.2.4.6c0 .8-.7 1.8-1.9 3.5v.8zm-17.5 19.8v.4c0 .9.6 1.3 1.4 1.3.9 0 1.3-.6 1.3-1.7v-.8c0-.9-.3-1.5-1-1.5-.3 0-.5 0-.7.3l.1-1.2h1.5v-.8h-2.3c0 1.3 0 2-.1 2.9h.7c.1-.2.2-.4.5-.4.2 0 .4.1.4.5v1.3c0 .5-.2.7-.5.7s-.4-.2-.4-.5v-.5zm1.8-30.1c0 .4-.2.5-.5.5s-.5-.2-.5-.5V70c0-.4.2-.5.5-.5s.5.2.5.5zm-1.8-.3c0 1.1.4 1.5 1.4 1.5s1.4-.5 1.4-1.5v-2.7c0-1.1-.4-1.5-1.4-1.5s-1.4.5-1.4 1.5zM128.8 84.2c-1.6.5-2.4 2.2-1.9 3.8.5 1.5 2.2 2.4 3.7 2 1.6-.5 2.4-2.2 1.9-3.8s-2.2-2.4-3.7-2"/>
	<path d="m129.7 88 4.7 14.1" class="st4"/>
	<path d="M208.5 68.6c-1.6-.5-3.3.3-3.8 1.9s.3 3.3 1.9 3.8 3.3-.3 3.8-1.9c.5-1.5-.3-3.2-1.9-3.8"/>
	<path d="m207.4 72.3-5.1 14" class="st4"/>
	<path d="M165.1 74.3c1.5.7 3.3.1 4-1.5.7-1.5.1-3.3-1.5-4-1.5-.7-3.3-.1-4 1.5-.7 1.5 0 3.3 1.5 4"/>
	<path d="m166.6 70.7 6.5-13.4" class="st4"/>
	<path d="M246.2 89.9c1.6-.5 2.5-2.2 1.9-3.8-.5-1.6-2.2-2.5-3.8-1.9-1.6.5-2.5 2.2-1.9 3.8.5 1.6 2.2 2.5 3.8 1.9"/>
	<path d="m245.2 86.2-4.9-14" class="st4"/>
	<path d="M166.6 227.8h-1.2v-7.5l-2.4 5.1h-.7l-2.4-5.1v7.5h-1.1v-8.7h1.6l2.3 4.9 2.2-4.9h1.6zm9.1 0h-1.2v-4.3h-4.4v4.3h-1.2v-8.7h1.2v3.4h4.4v-3.4h1.2zm8-4.3c0 1.6-.2 2.7-.7 3.4s-1.3 1.1-2.3 1.1-1.8-.4-2.3-1.1-.7-1.9-.7-3.4c0-1.6.2-2.7.7-3.4s1.2-1.1 2.3-1.1c1 0 1.8.4 2.3 1.1s.7 2 .7 3.4m-1.6 2.6c.1-.3.2-.7.3-1.1s.1-.9.1-1.5 0-1.1-.1-1.5-.1-.8-.3-1.1c-.1-.3-.3-.5-.6-.7s-.5-.2-.9-.2-.7.1-.9.2-.4.4-.6.7c-.1.3-.2.7-.3 1.1s-.1 1-.1 1.5c0 .6 0 1.1.1 1.5s.1.8.3 1.1c.1.3.3.5.5.7s.5.2.9.2.7-.1.9-.2.6-.3.7-.7m9.3-1.1c0 .9-.3 1.6-.9 2.2s-1.3.8-2.1.8c-.4 0-.8-.1-1.2-.2q-.6-.15-.9-.6c-.3-.3-.6-.8-.8-1.3s-.3-1.2-.3-1.9c0-.8.1-1.5.2-2.1s.4-1.1.8-1.6c.3-.4.8-.8 1.3-1s1.2-.4 1.9-.4h.6s.3.1.5.1v1.1h-.1c-.1-.1-.3-.1-.5-.2s-.4-.1-.7-.1c-.8 0-1.5.3-2 .8s-.8 1.2-.9 2.1c.3-.2.7-.4 1-.5s.7-.2 1.1-.2.7 0 1 .1.6.2.9.4.6.5.8.9.3 1.1.3 1.6m-1.1.1c0-.4-.1-.7-.2-.9s-.3-.4-.5-.6c-.2-.1-.4-.2-.6-.2s-.4-.1-.7-.1-.6 0-.9.1-.6.2-.9.4v.5c0 .6.1 1.1.2 1.5s.3.6.5.8.4.3.6.4.4.1.7.1c.6 0 1-.2 1.3-.5s.5-.9.5-1.5m8.1 2.7h-5.9v-1.2c.4-.4.8-.7 1.2-1.1s.8-.7 1.2-1c.8-.7 1.3-1.3 1.5-1.7s.4-.9.4-1.4-.1-.8-.4-1.1-.7-.4-1.3-.4c-.4 0-.7.1-1.2.2s-.8.3-1.2.6h-.1v-1.2c.3-.1.6-.3 1.1-.4s.9-.2 1.3-.2q1.35 0 2.1.6c.5.4.8 1 .8 1.8 0 .3 0 .6-.1.9s-.2.6-.4.8-.3.5-.5.7-.5.5-.7.8c-.4.4-.8.8-1.3 1.2s-.9.7-1.2 1.1h4.7zm7.1 0h-4.7v-.9h1.8v-5.8h-1.8v-.8c.2 0 .5 0 .8-.1s.5-.1.6-.2c.2-.1.3-.2.4-.4s.2-.4.2-.6h.9v7.9h1.8zm7.1-2.4c0 .8-.3 1.4-.9 1.9s-1.3.8-2.2.8-1.7-.2-2.3-.7-.8-1.1-.8-1.9c0-.5.1-.9.4-1.3q.45-.6 1.2-.9c-.5-.2-.8-.5-1-.8s-.3-.7-.3-1.1c0-.7.3-1.2.8-1.6s1.2-.7 2.1-.7q1.35 0 2.1.6c.5.4.8.9.8 1.6 0 .4-.1.8-.4 1.2s-.6.7-1.1.9c.5.2 1 .5 1.3.9s.3.6.3 1.1m-1.2.1c0-.4-.1-.6-.2-.9s-.5-.4-.9-.7c-.2-.1-.4-.2-.6-.2s-.5-.2-.9-.3c-.4.2-.6.5-.8.8s-.3.7-.3 1.1c0 .5.2 1 .5 1.3s.8.5 1.4.5 1-.1 1.4-.4.4-.7.4-1.2m-.1-4.2c0-.4-.2-.8-.5-1s-.7-.4-1.2-.4-.9.1-1.2.4-.5.6-.5.9.1.5.2.7.4.4.7.5c.1.1.4.2.6.3s.5.2.8.3c.4-.3.7-.5.8-.8s.3-.6.3-.9m8.9 1.7q0 1.2-.3 2.1c-.2.6-.4 1.2-.8 1.6s-.8.8-1.3 1-1.2.4-1.9.4h-.6s-.3-.1-.5-.1v-1.2h.1c.1.1.3.1.5.2s.4.1.7.1c.9 0 1.5-.3 2-.8s.8-1.2.9-2.1c-.4.2-.7.4-1 .5s-.7.1-1 .1c-.4 0-.7 0-1-.1s-.6-.2-.9-.4-.6-.5-.8-.9-.3-.8-.3-1.3c0-.9.3-1.6.9-2.2s1.3-.8 2.1-.8c.4 0 .8.1 1.2.2q.6.15.9.6c.3.3.6.7.8 1.3.2.7.3 1.1.3 1.8m-1.2-.3c0-.6-.1-1.1-.2-1.5s-.3-.7-.5-.9-.4-.3-.6-.4-.4-.1-.7-.1c-.6 0-1 .2-1.3.5s-.5.8-.5 1.5c0 .4.1.7.2.9s.3.4.5.6c.2.1.4.2.6.2s.4.1.7.1.6 0 .9-.1.6-.2.9-.4z"/>
	<path d="M119.9 207.1v32.4h138.8v-32.4z" class="st3"/>
	<path d="M138.8 118.4h-.7V114l-1.4 3h-.4l-1.4-3v4.4h-.7v-5.1h1l1.4 2.8 1.3-2.8h.9zm5.2-2c0 .4 0 .7-.1 1s-.2.5-.4.7-.4.3-.6.4-.5.1-.8.1-.6 0-.8-.1-.4-.2-.6-.4-.3-.4-.4-.7-.1-.6-.1-1v-3h.7v3.1c0 .3 0 .5.1.7 0 .2.1.3.2.4s.2.3.4.3c.2.1.4.1.6.1s.5 0 .6-.1.3-.2.4-.3.2-.3.2-.4c0-.2.1-.4.1-.6v-3.1h.7v2.9zm4.4 2h-3.2v-5.1h.7v4.5h2.5zm4.3-4.5h-1.8v4.5h-.7v-4.5h-1.8v-.6h4.3zm6.1 4.5h-2.7v-.5h1v-3.4h-1v-.5h.5c.2 0 .3-.1.4-.1.1-.1.2-.1.2-.2.1-.1.1-.2.1-.4h.5v4.6h1zm4.8-2.5c0 .9-.1 1.6-.4 2s-.7.6-1.3.6-1.1-.2-1.3-.6c-.3-.4-.4-1.1-.4-2s.1-1.6.4-2 .7-.6 1.3-.6 1.1.2 1.3.7c.2.3.4 1 .4 1.9m-.9 1.5c.1-.2.1-.4.2-.7v-1.8c0-.3-.1-.5-.2-.6-.1-.2-.2-.3-.3-.4s-.3-.1-.5-.1-.4 0-.5.1-.3.2-.3.4c-.1.2-.1.4-.2.7v1.8s.1.5.2.6c.1.2.2.3.3.4s.3.1.5.1.4 0 .5-.1.2-.2.3-.4M271.1 227h-.8l-1.5-1.7-.4.4v1.3h-.6v-5.3h.6v3.4l1.9-1.9h.8l-1.8 1.8zm3.9 0h-.6v-2.7c0-.2-.1-.3-.1-.4-.1-.1-.1-.2-.2-.2s-.2-.1-.4-.1-.4 0-.6.1-.4.2-.5.3v2.9h-.6v-5.3h.6v1.9c.2-.2.4-.3.6-.4s.4-.1.7-.1c.4 0 .7.1.9.4.2.2.3.6.3 1.1zm4.5-4.4-2.3 4.3h-.7l2.5-4.5h-2.9v-.6h3.5zm2.2 4.4h-.8v-1h.8zm4.1 0h-3.4v-.7c.2-.2.5-.4.7-.6s.5-.4.7-.6c.4-.4.7-.8.9-1s.2-.5.2-.8q0-.45-.3-.6c-.2-.1-.4-.2-.7-.2-.2 0-.4 0-.7.1-.2.1-.5.2-.7.3v-.7c.2-.1.4-.2.6-.2.3-.1.5-.1.8-.1.5 0 .9.1 1.2.4s.4.6.4 1c0 .2 0 .4-.1.5 0 .2-.1.3-.2.5-.1.1-.2.3-.3.4s-.3.3-.4.5c-.2.2-.5.5-.8.7s-.5.4-.7.6h2.7z"/>
	<path d="M212.3 125.6c6.3 0 11.3-5.1 11.3-11.3 0-6.3-5.1-11.3-11.3-11.3s-11.3 5.1-11.3 11.3c-.1 6.2 5 11.3 11.3 11.3z" class="st3"/>
	<path d="M214 114.2c0-.9-.8-1.7-1.7-1.7s-1.7.8-1.7 1.7.8 1.7 1.7 1.7 1.7-.7 1.7-1.7"/>
	<path fill="none" stroke="#000" stroke-linecap="round" stroke-width=".998" d="M212.6 114.1h-8.8"/>
	<path d="M226.3 108.2c-2.3-5.4-7.7-9.3-13.8-9.3-5.7 0-10.6 3.2-13.2 8m-.3-4.8-1 5.5 5.2-2.1" class="st3"/>
	<path d="M86.6 218.8c2.7 0 4.9-2.2 4.9-4.9s-2.2-4.9-4.9-4.9-4.9 2.2-4.9 4.9 2.2 4.9 4.9 4.9zm206.6 0c2.7 0 4.9-2.2 4.9-4.9s-2.2-4.9-4.9-4.9-4.9 2.2-4.9 4.9 2.2 4.9 4.9 4.9zM81.3 127.6c2.7 0 4.9-2.2 4.9-4.9s-2.2-4.9-4.9-4.9-4.9 2.2-4.9 4.9 2.2 4.9 4.9 4.9zm217.1 0c2.7 0 4.9-2.2 4.9-4.9s-2.2-4.9-4.9-4.9-4.9 2.2-4.9 4.9 2.2 4.9 4.9 4.9zm-152.7 40.3c-4.3 0-9.3 1.9-12 4.6m165.1-30v23.1l-6 6.8m-186.5-21.8c21.5 5.4 60.7 9.6 85.4 8.8s64.6-4.4 84.2-9.3c5-1.2 5 1.7.1 2.7m-169.2-2c-2.5-.6-3.6-1-5.4-1.3-1.4-.2-1.8 1.8-.7 2.5.4.3 1.9.5 5.5 1.3 21.5 5.3 60.7 9.5 85.5 8.7 24.7-.8 64.7-4.1 84.2-9.2" class="st0"/>
	<path d="m55.3 67.8 62.3 46.7" class="st3"/>
	<path d="m122 117.8-4.1-6.3-.3 3-2.8 1.1z"/>
	<path d="m309.5 41.8-41 32.3" class="st3"/>
	<path d="m264.2 77.5 7.1-2.3-2.8-1-.4-3z"/>
	<path d="M345.2 114.4H228.6" class="st3"/>
	<path d="m223.1 114.4 7 2.6-1.5-2.6 1.5-2.5z"/>
	<path d="m275.7 277.1-49.2-44" class="st3"/>
	<path d="m222.5 229.5 3.5 6.6.5-3 2.9-.8zM9.3 62.8H8.1v-7.5l-2.4 5.1H5l-2.4-5.1v7.5H1.5v-8.7h1.6L5.4 59l2.2-4.9h1.6zm7.7 0h-1.1v-.7c-.4.3-.7.5-1.1.7s-.7.2-1.1.2c-.7 0-1.2-.2-1.6-.6q-.6-.6-.6-1.8v-4.2h1.1V61s.1.4.2.6.2.3.4.4.4.1.7.1.6-.1.9-.2.7-.3.9-.6v-4.9h1.1v6.4zm3.3 0h-1.1v-9.1h1.1zm5.6 0c-.2.1-.4.1-.7.1s-.5.1-.7.1c-.7 0-1.2-.2-1.5-.5s-.5-.9-.5-1.7v-3.6h-.7v-.9h.7v-1.9h1.1v1.9h2.3v.9h-2.3V61s.1.4.2.5c.1.2.2.3.4.3s.4.1.7.1c.2 0 .4 0 .6-.1s.3-.1.4-.1h.1zm2.5-7.6h-1.2v-1.1h1.2zm-.1 7.6h-1.1v-6.5h1.1zm8-3.3c0 .5-.1 1-.2 1.5s-.4.8-.6 1.1c-.3.3-.6.5-.9.7s-.7.2-1.1.2c-.3 0-.6 0-.9-.1s-.6-.2-.8-.3v2.7h-1.1v-9h1.1v.7c.3-.2.6-.5 1-.6s.8-.2 1.2-.2q1.2 0 1.8.9c.4.6.5 1.3.5 2.4m-1.2 0c0-.8-.1-1.4-.4-1.8q-.45-.6-1.2-.6c-.3 0-.6.1-1 .2s-.6.3-.9.5v3.7c.3.1.6.2.8.3s.5.1.8.1c.6 0 1.1-.2 1.4-.6s.5-1 .5-1.8m4 3.3H38v-9.1h1.1zm3.4-7.6h-1.2v-1.1h1.2zm-.1 7.6h-1.1v-6.5h1.1zm7.5-3.1h-4.8c0 .4.1.8.2 1.1s.3.5.5.7.4.3.7.4.6.1.9.1c.4 0 .9-.1 1.3-.3l1-.5h.1v1.2c-.4.2-.8.3-1.1.4-.2.1-.7.2-1.1.2-1.1 0-1.9-.3-2.5-.9s-.9-1.4-.9-2.5.3-1.9.9-2.5 1.4-.9 2.3-.9 1.6.3 2 .8.7 1.2.7 2.2zm-.9-.9c0-.6-.1-1-.4-1.3s-.7-.5-1.3-.5-1.1.2-1.4.5-.5.8-.6 1.3zm6.7-1.3c-.2 0-.4-.1-.5-.1h-.5c-.3 0-.7.1-1 .2q-.45.15-.9.6v4.6h-1.1v-6.5h1.1v1c.4-.4.8-.6 1.2-.7s.7-.2 1-.2h.4s.2 0 .4.1zm263.8-17.1h-5.7v-8.7h5.7v1h-4.6v2.4h4.6v1h-4.6v3.2h4.6zm7.2 0h-1.1v-3.7c0-.3 0-.6-.1-.8s-.1-.5-.2-.6c-.1-.2-.2-.3-.4-.4s-.4-.1-.7-.1-.6.1-.9.2q-.45.15-.9.6v4.9h-1.1V34h1.1v.7c.3-.3.7-.5 1.1-.7s.7-.2 1.1-.2c.7 0 1.2.2 1.6.6q.6.6.6 1.8zm7.6-3.2h-4.8c0 .4.1.8.2 1.1s.3.5.5.7.4.3.7.4.6.1.9.1c.4 0 .9-.1 1.3-.3l1-.5h.1v1.2c-.4.2-.8.3-1.1.4s-.8.2-1.2.2c-1.1 0-1.9-.3-2.5-.9s-.9-1.4-.9-2.5.3-1.9.9-2.5 1.4-.9 2.3-.9 1.6.3 2 .8.7 1.2.7 2.2zm-1-.8c0-.6-.1-1-.4-1.3s-.7-.5-1.3-.5-1.1.2-1.4.5-.5.8-.6 1.3zM340 35c-.2 0-.4-.1-.5-.1h-.5c-.3 0-.7.1-1 .2q-.45.15-.9.6v4.6H336v-6.5h1.1v1c.4-.4.8-.6 1.2-.7s.7-.2 1-.2h.4s.2 0 .4.1zm6.3 4.6c0 1.1-.3 1.9-.8 2.4s-1.3.8-2.3.8c-.3 0-.7 0-1-.1s-.7-.1-1-.2v-1.1h.1q.3.15.9.3c.4.1.8.2 1.2.2s.7 0 .9-.1.4-.2.6-.4c.1-.2.2-.3.3-.6s.1-.5.1-.7v-.6c-.3.3-.6.5-1 .6s-.7.2-1.2.2c-.8 0-1.4-.3-1.9-.8s-.7-1.4-.7-2.4c0-.6.1-1 .2-1.5s.4-.8.6-1.1q.45-.45.9-.6c.3-.1.7-.2 1.1-.2s.7 0 1 .1.5.2.8.3l.1-.3h1zm-1.1-1V35c-.3-.1-.6-.2-.8-.3s-.5-.1-.8-.1c-.6 0-1.1.2-1.4.6s-.5 1-.5 1.8c0 .7.1 1.3.4 1.7s.7.6 1.3.6c.3 0 .6-.1 1-.2s.6-.3.8-.5m9-4.8-3.8 9h-1.2l1.2-2.7-2.6-6.2h1.2l2 4.9 2-4.9zm10.9 6.6H364v-.7c-.3.3-.6.5-1 .6s-.7.2-1.1.2c-.8 0-1.4-.3-1.9-.9s-.7-1.4-.7-2.5c0-.6.1-1 .2-1.5s.4-.8.6-1.1c.3-.3.6-.5.9-.7s.7-.2 1.1-.2c.3 0 .6 0 .9.1s.5.2.8.3v-2.8h1.1v9.2zm-1.1-1.6V35c-.3-.1-.6-.2-.8-.3s-.5-.1-.8-.1c-.6 0-1.1.2-1.4.6s-.5 1-.5 1.8.1 1.4.4 1.8.7.6 1.3.6c.3 0 .6-.1.9-.2s.6-.2.9-.4m4.5-6.1h-1.2v-1.1h1.2zm-.1 7.7h-1.1v-6.5h1.1zm7.3 0h-1.1v-.7c-.1.1-.2.2-.4.3s-.3.2-.5.3-.4.2-.6.2-.5.1-.8.1q-.9 0-1.5-.6t-.6-1.5q0-.75.3-1.2c.2-.3.5-.5.9-.7s.9-.3 1.4-.4 1.2-.1 1.8-.1v-.2c0-.2 0-.5-.1-.6s-.2-.3-.4-.4-.3-.2-.6-.2h-.7c-.3 0-.6 0-1 .1s-.7.2-1.1.3V34c.2-.1.5-.1.9-.2s.8-.1 1.2-.1c.5 0 .9 0 1.2.1s.6.2.9.4c.2.2.4.4.6.7s.2.6.2 1.1zm-1.1-1.6V37c-.3 0-.7 0-1.2.1s-.8.1-1.1.2-.6.2-.8.4-.3.5-.3.8c0 .4.1.7.3.8s.6.3 1 .3.7-.1 1.1-.2.7-.4 1-.6m4.3 1.6h-1.1v-9.2h1.1zm-23 67.8h-3.1v7.7h-1.2v-7.7h-3.1v-1h7.4zm5.5 4.6h-4.8c0 .4.1.8.2 1.1s.3.5.5.7.4.3.7.4.6.1.9.1c.4 0 .9-.1 1.3-.3l1-.5h.1v1.2c-.4.2-.8.3-1.1.4s-.8.2-1.2.2c-1.1 0-1.9-.3-2.5-.9s-.9-1.4-.9-2.5.3-1.9.9-2.5 1.4-.9 2.3-.9 1.6.3 2 .8.7 1.2.7 2.2zm-1.1-.9c0-.6-.1-1-.4-1.3s-.7-.5-1.3-.5-1.1.2-1.4.5-.5.8-.6 1.3zm7.5 2.2c0 .6-.2 1.1-.7 1.5s-1.2.6-2 .6c-.5 0-.9-.1-1.3-.2s-.7-.2-1-.4v-1.2h.1q.45.45 1.2.6c.5.1.8.2 1.2.2.5 0 .9-.1 1.1-.2s.4-.4.4-.7-.1-.5-.2-.6-.4-.2-.9-.3c-.2 0-.4-.1-.6-.1s-.5-.1-.7-.2c-.6-.2-1-.4-1.2-.7s-.4-.7-.4-1.1c0-.3.1-.5.2-.8s.3-.5.5-.6c.2-.2.5-.3.8-.4s.7-.2 1.1-.2.8 0 1.2.1.7.2 1 .3v1.2h-.1c-.3-.2-.6-.4-1-.5s-.8-.2-1.2-.2-.7.1-1 .2-.4.4-.4.7q0 .45.3.6c.2.1.4.2.8.3.2 0 .4.1.7.1s.5.1.6.1q.75.15 1.2.6c.1.4.3.8.3 1.3m5 1.8c-.2.1-.4.1-.7.1s-.5.1-.7.1c-.7 0-1.2-.2-1.5-.5s-.5-.9-.5-1.7v-3.5h-.7v-.9h.7v-1.9h1.1v1.9h2.3v.9h-2.3v3.8s.1.4.2.5c.1.2.2.3.4.3s.4.1.7.1c.2 0 .4 0 .6-.1s.3-.1.4-.1h.1zm10.9 0h-1.1v-.7c-.3.3-.6.5-1 .6s-.7.2-1.1.2c-.8 0-1.4-.3-1.9-.9s-.7-1.4-.7-2.5c0-.6.1-1 .2-1.5s.4-.8.6-1.1c.3-.3.6-.5.9-.7s.7-.2 1.1-.2c.3 0 .6 0 .9.1s.5.2.8.3v-2.8h1.1v9.2zm-1.1-1.6v-3.8c-.3-.1-.6-.2-.8-.3s-.5-.1-.8-.1c-.6 0-1.1.2-1.4.6s-.5 1-.5 1.8.1 1.4.4 1.8.7.6 1.3.6c.3 0 .6-.1.9-.2s.6-.2.9-.4m4.2-6h-1.2v-1.1h1.2zm-.1 7.6h-1.1v-6.5h1.1zm7.1 0h-1.1v-.7c-.1.1-.2.2-.4.3s-.3.2-.5.3-.4.2-.6.2-.5.1-.8.1q-.9 0-1.5-.6t-.6-1.5q0-.75.3-1.2c.2-.3.5-.5.9-.7s.9-.3 1.4-.4 1.2-.1 1.8-.1v-.2c0-.2 0-.5-.1-.6s-.2-.3-.4-.4-.3-.2-.6-.2h-.7c-.3 0-.6 0-1 .1s-.7.2-1.1.3h-.1v-1.1c.2-.1.5-.1.9-.2s.8-.1 1.2-.1c.5 0 .9 0 1.2.1s.6.2.9.4c.2.2.4.4.6.7s.2.6.2 1.1zm-1.1-1.6v-1.8c-.3 0-.7 0-1.2.1s-.8.1-1.1.2-.6.2-.8.4-.3.5-.3.8c0 .4.1.7.3.8s.6.3 1 .3.7-.1 1.1-.2.7-.4 1-.6m4.1 1.6h-1.1v-9.1h1.1zm12.1-3.3h-5.8v-.9h5.8zm-55.8 9.3c-.2 0-.3-.1-.5-.1s-.4-.1-.5-.1c-.5 0-.8.1-1 .3s-.3.6-.3 1.1v.2h2v.9h-2v5.6h-1.1v-5.6h-.7v-.9h.7v-.2q0-1.2.6-1.8c.4-.4.9-.6 1.7-.6h.7s.4.1.5.1zm6.3 4.7c0 1.1-.3 1.9-.8 2.5s-1.3.9-2.2.9-1.7-.3-2.2-.9-.8-1.5-.8-2.5.3-1.9.8-2.5 1.3-.9 2.2-.9 1.7.3 2.2.9c.5.7.8 1.5.8 2.5m-1.2 0c0-.8-.2-1.5-.5-1.9s-.8-.6-1.4-.6-1.1.2-1.4.6-.5 1-.5 1.9c0 .8.2 1.4.5 1.9s.8.6 1.4.6 1-.2 1.4-.6.5-1.1.5-1.9m7-2c-.2 0-.4-.1-.5-.1h-.5c-.3 0-.7.1-1 .2q-.45.15-.9.6v4.6h-1.1v-6.5h1.1v1c.4-.4.8-.6 1.2-.7s.7-.2 1-.2h.4s.2 0 .4.1zm14.8 5.2h-1.1v-4.5s-.1-.5-.2-.6c-.1-.2-.2-.3-.4-.4s-.4-.1-.7-.1-.6.1-.9.2-.6.4-.9.6v4.9h-1.1v-4.5s-.1-.5-.2-.6c-.1-.2-.2-.3-.4-.4s-.4-.1-.7-.1-.6.1-.9.2q-.45.15-.9.6v4.9h-1.1v-6.5h1.1v.7c.3-.3.7-.5 1-.7s.7-.2 1.1-.2.8.1 1.1.3.5.4.7.8c.4-.4.9-.6 1.2-.8s.8-.2 1.2-.2c.7 0 1.2.2 1.6.7s.5 1 .5 1.8zm7.5-3.1h-4.9c0 .4.1.8.2 1.1s.3.5.5.7.4.3.7.4.6.1.9.1c.4 0 .9-.1 1.3-.3l1-.5h.1v1.2c-.4.2-.8.3-1.1.4s-.8.2-1.2.2c-1.1 0-1.9-.3-2.5-.9s-.9-1.4-.9-2.5.3-1.9.9-2.5 1.4-.9 2.3-.9 1.6.3 2 .8.7 1.2.7 2.2zm-1.1-.8c0-.6-.1-1-.4-1.3s-.7-.5-1.3-.5-1.1.2-1.4.5-.5.8-.6 1.3zm6.1 3.9c-.2.1-.4.1-.7.1s-.5.1-.7.1c-.7 0-1.2-.2-1.5-.5s-.5-.9-.5-1.7v-3.5h-.7v-.9h.7v-1.9h1.1v1.9h2.3v.9h-2.3v3.8s.1.4.2.5c.1.2.2.3.4.3s.4.1.7.1c.2 0 .4 0 .6-.1s.3-.1.4-.1h.1zm6.8-3.1h-4.8c0 .4.1.8.2 1.1s.3.5.5.7.4.3.7.4.6.1.9.1c.4 0 .9-.1 1.3-.3l1-.5h.1v1.2c-.4.2-.8.3-1.1.4s-.8.2-1.2.2c-1.1 0-1.9-.3-2.5-.9s-.9-1.4-.9-2.5.3-1.9.9-2.5 1.4-.9 2.3-.9 1.6.3 2 .8.7 1.2.7 2.2zm-1-.8c0-.6-.1-1-.4-1.3s-.7-.5-1.3-.5-1.1.2-1.4.5-.5.8-.6 1.3zm6.8-1.3c-.2 0-.4-.1-.5-.1h-.5c-.3 0-.7.1-1 .2q-.45.15-.9.6v4.6h-1.1v-6.5h1.1v1c.4-.4.8-.6 1.2-.7s.7-.2 1-.2h.4s.2 0 .4.1zm-51.4 13.9c-.2 0-.4-.1-.5-.1h-.5c-.3 0-.7.1-1 .2q-.45.15-.9.6v4.6h-1.1v-6.5h1.1v1c.4-.4.8-.6 1.2-.7s.7-.2 1-.2h.4s.2 0 .4.1zm6.5 2.2h-4.8c0 .4.1.8.2 1.1s.3.5.5.7.4.3.7.4.6.1.9.1c.4 0 .9-.1 1.3-.3l1-.5h.1v1.2c-.4.2-.8.3-1.1.4s-.8.2-1.2.2c-1.1 0-1.9-.3-2.5-.9s-.9-1.4-.9-2.5.3-1.9.9-2.5 1.4-.9 2.3-.9 1.6.3 2 .8.7 1.2.7 2.2zm-1.1-.9c0-.6-.1-1-.4-1.3s-.7-.5-1.3-.5-1.1.2-1.4.5-.5.8-.6 1.3zm7.8 4h-1.1v-.7c-.1.1-.2.2-.4.3s-.3.2-.5.3-.4.2-.6.2-.5.1-.8.1q-.9 0-1.5-.6t-.6-1.5q0-.75.3-1.2c.2-.3.5-.5.9-.7s.9-.3 1.4-.4 1.2-.1 1.8-.1v-.2c0-.2 0-.5-.1-.6s-.2-.3-.4-.4-.3-.2-.6-.2h-.7c-.3 0-.6 0-1 .1s-.7.2-1.1.3h-.1v-1.1c.2-.1.5-.1.9-.2s.8-.1 1.2-.1c.5 0 .9 0 1.2.1s.6.2.9.4c.2.2.4.4.6.7s.2.6.2 1.1zm-1.1-1.6v-1.8c-.3 0-.7 0-1.2.1s-.8.1-1.1.2-.6.2-.8.4-.3.5-.3.8c0 .4.1.7.3.8s.6.3 1 .3.7-.1 1.1-.2.8-.4 1-.6m8.6 1.6h-1.1v-.7c-.3.3-.6.5-1 .6s-.7.2-1.1.2c-.8 0-1.4-.3-1.9-.9s-.7-1.4-.7-2.5c0-.6.1-1 .2-1.5s.4-.8.6-1.1c.3-.3.6-.5.9-.7s.7-.2 1.1-.2c.3 0 .6 0 .9.1s.5.2.8.3v-2.8h1.1v9.2zm-1.1-1.6v-3.8c-.3-.1-.6-.2-.8-.3s-.5-.1-.8-.1c-.6 0-1.1.2-1.4.6s-.5 1-.5 1.8.1 1.4.4 1.8.7.6 1.3.6c.3 0 .6-.1.9-.2s.6-.2.9-.4m8.7-1.5h-4.8c0 .4.1.8.2 1.1s.3.5.5.7.4.3.7.4.6.1.9.1c.4 0 .9-.1 1.3-.3l1-.5h.1v1.2c-.4.2-.8.3-1.1.4s-.8.2-1.2.2c-1.1 0-1.9-.3-2.5-.9s-.9-1.4-.9-2.5.3-1.9.9-2.5 1.4-.9 2.3-.9 1.6.3 2 .8.7 1.2.7 2.2zm-1.1-.9c0-.6-.1-1-.4-1.3s-.7-.5-1.3-.5-1.1.2-1.4.5-.5.8-.6 1.3zm6.8-1.3c-.2 0-.4-.1-.5-.1h-.5c-.3 0-.7.1-1 .2q-.45.15-.9.6v4.6h-1.2v-6.5h1.1v1c.4-.4.8-.6 1.2-.7s.7-.2 1-.2h.4s.2 0 .4.1zm5.7 3.5c0 .6-.2 1.1-.7 1.5s-1.2.6-2 .6c-.5 0-.9-.1-1.3-.2s-.7-.2-1-.4v-1.2h.1q.45.45 1.2.6c.5.1.8.2 1.2.2.5 0 .9-.1 1.1-.2s.4-.4.4-.7-.1-.5-.2-.6q-.15-.15-.9-.3c-.2 0-.4-.1-.6-.1s-.5-.1-.7-.2c-.6-.2-1-.4-1.2-.7s-.4-.7-.4-1.1c0-.3.1-.5.2-.8s.3-.5.5-.6c.2-.2.5-.3.8-.4s.7-.2 1.1-.2.8 0 1.2.1.7.2 1 .3v1.2h-.1c-.3-.2-.6-.4-1-.5s-.8-.2-1.2-.2-.7.1-1 .2-.4.4-.4.7q0 .45.3.6c.2.1.4.2.8.3.2 0 .4.1.7.1s.5.1.6.1q.75.15 1.2.6c.1.4.3.8.3 1.3m11.3-1.4c0 1.1-.3 1.9-.8 2.5s-1.3.9-2.2.9-1.7-.3-2.2-.9-.8-1.5-.8-2.5.3-1.9.8-2.5 1.3-.9 2.2-.9 1.7.3 2.2.9.8 1.4.8 2.5m-1.1 0c0-.8-.2-1.5-.5-1.9s-.8-.6-1.4-.6-1.1.2-1.4.6-.5 1-.5 1.9c0 .8.2 1.4.5 1.9s.8.6 1.4.6 1-.2 1.4-.6.5-1.1.5-1.9m8.3 3.2h-1.1v-3.7c0-.3 0-.6-.1-.8s-.1-.5-.2-.6c-.1-.2-.2-.3-.4-.4s-.4-.1-.7-.1-.6.1-.9.2q-.45.15-.9.6v4.9h-1.1v-6.5h1.1v.7c.3-.3.7-.5 1.1-.7s.7-.2 1.1-.2c.7 0 1.2.2 1.6.6s.6 1 .6 1.8zm3.3 0h-1.1v-9.1h1.1zm7.8-6.5-3.8 9H418l1.2-2.7-2.6-6.2h1.2l2 4.9 2-4.9zM287.2 278.1H286v-7.5l-2.4 5.1h-.7l-2.4-5.1v7.5h-1.1v-8.7h1.6l2.3 4.9 2.2-4.9h1.6zm7.7-3.2h-4.8c0 .4.1.8.2 1.1s.3.5.5.7.4.3.7.4.6.1.9.1c.4 0 .9-.1 1.3-.3l1-.5h.1v1.2c-.4.2-.8.3-1.1.4s-.8.2-1.2.2c-1.1 0-1.9-.3-2.5-.9s-.9-1.4-.9-2.5.3-1.9.9-2.5 1.4-.9 2.3-.9 1.6.3 2 .8.7 1.2.7 2.2zm-1.1-.8c0-.6-.1-1-.4-1.3s-.7-.5-1.3-.5-1.1.2-1.4.5-.5.8-.6 1.3zm6.1 3.9c-.2.1-.4.1-.7.1s-.5.1-.7.1c-.7 0-1.2-.2-1.5-.5s-.5-.9-.5-1.7v-3.5h-.7v-.9h.7v-1.9h1.1v1.9h2.3v.9h-2.3v3.8s.1.4.2.5c.1.2.2.3.4.3s.4.1.7.1c.2 0 .4 0 .6-.1s.3-.1.4-.1h.1zm6.8-3.1h-4.8c0 .4.1.8.2 1.1s.3.5.5.7.4.3.7.4.6.1.9.1c.4 0 .9-.1 1.3-.3l1-.5h.1v1.2c-.4.2-.8.3-1.1.4s-.8.2-1.2.2c-1.1 0-1.9-.3-2.5-.9s-.9-1.4-.9-2.5.3-1.9.9-2.5 1.4-.9 2.3-.9 1.6.3 2 .8.7 1.2.7 2.2zm-1-.8c0-.6-.1-1-.4-1.3s-.7-.5-1.3-.5-1.1.2-1.4.5-.5.8-.6 1.3zm6.8-1.4c-.2 0-.4-.1-.5-.1h-.5c-.3 0-.7.1-1 .2s-.6.3-.9.6v4.6h-1.1v-6.5h1.1v1c.4-.4.8-.6 1.2-.7s.7-.2 1-.2h.4s.2 0 .4.1zm10.7 5.4h-1.1v-3.7c0-.3 0-.6-.1-.8s-.1-.5-.2-.6c-.1-.2-.2-.3-.4-.4s-.4-.1-.7-.1-.6.1-.9.2q-.45.15-.9.6v4.9h-1.1v-6.5h1.1v.7c.3-.3.7-.5 1.1-.7s.7-.2 1.1-.2c.7 0 1.2.2 1.6.6s.6 1 .6 1.8zm7.6 0h-1.1v-.7c-.4.3-.7.5-1.1.7s-.7.2-1.1.2c-.7 0-1.2-.2-1.6-.6s-.6-1-.6-1.8v-4.2h1.1v4.6s.1.4.2.6.2.3.4.4.4.1.7.1.6-.1.9-.2.7-.3.9-.6v-4.9h1.1v6.4zm11.6 0h-1.1v-4.5s-.1-.5-.2-.6c-.1-.2-.2-.3-.4-.4s-.4-.1-.7-.1-.6.1-.9.2-.6.4-.9.6v4.9h-1.1v-4.5s-.1-.5-.2-.6c-.1-.2-.2-.3-.4-.4s-.4-.1-.7-.1-.6.1-.9.2q-.45.15-.9.6v4.9h-1v-6.5h1.1v.7c.3-.3.7-.5 1-.7s.7-.2 1.1-.2.8.1 1.1.3.5.4.7.8c.4-.4.9-.6 1.2-.8s.8-.2 1.2-.2c.7 0 1.2.2 1.6.7s.5 1 .5 1.8zm7.9-3.4c0 .5-.1 1-.2 1.5s-.4.8-.6 1.1c-.3.3-.6.5-.9.7s-.7.2-1.1.2-.7 0-1-.1-.6-.2-.8-.4l-.1.3h-1v-9h1.1v3.3c.3-.3.6-.5 1-.6s.7-.2 1.2-.2q1.2 0 1.8.9c.4.5.6 1.3.6 2.3m-1.2.1c0-.8-.1-1.4-.4-1.8q-.45-.6-1.2-.6c-.3 0-.6.1-1 .2s-.6.3-.9.5v3.8c.3.1.6.2.8.3s.5.1.8.1c.6 0 1.1-.2 1.4-.6s.5-1.1.5-1.9m8.4.1h-4.8c0 .4.1.8.2 1.1s.3.5.5.7.4.3.7.4.6.1.9.1c.4 0 .9-.1 1.3-.3l1-.5h.1v1.2c-.4.2-.8.3-1.1.4s-.8.2-1.2.2c-1.1 0-1.9-.3-2.5-.9s-.9-1.4-.9-2.5.3-1.9.9-2.5 1.4-.9 2.3-.9 1.6.3 2 .8.7 1.2.7 2.2zm-1.1-.8c0-.6-.1-1-.4-1.3s-.7-.5-1.3-.5-1.1.2-1.4.5-.5.8-.6 1.3zm6.8-1.4c-.2 0-.4-.1-.5-.1h-.5c-.3 0-.7.1-1 .2q-.45.15-.9.6v4.6h-1.1v-6.5h1.1v1c.4-.4.8-.6 1.2-.7s.7-.2 1-.2h.4s.2 0 .4.1zM282.9 284c-.2 0-.3-.1-.5-.1s-.4-.1-.5-.1c-.5 0-.8.1-1 .3s-.3.6-.3 1.1v.2h2v.9h-2v5.6h-1.1v-5.6h-.7v-.9h.7v-.2q0-1.2.6-1.8c.4-.4.9-.6 1.7-.6h.7s.4.1.5.1zm6.3 4.8c0 1.1-.3 1.9-.8 2.5s-1.3.9-2.2.9-1.7-.3-2.2-.9-.8-1.5-.8-2.5.3-1.9.8-2.5 1.3-.9 2.2-.9 1.7.3 2.2.9.8 1.4.8 2.5m-1.2 0c0-.8-.2-1.5-.5-1.9s-.8-.6-1.4-.6-1.1.2-1.4.6-.5 1-.5 1.9c0 .8.2 1.4.5 1.9s.8.6 1.4.6 1-.2 1.4-.6.5-1.1.5-1.9m6.9-2.1c-.2 0-.4-.1-.5-.1h-.5c-.3 0-.7.1-1 .2q-.45.15-.9.6v4.6h-1.2v-6.5h1.1v1c.4-.4.8-.6 1.2-.7s.7-.2 1-.2h.4s.2 0 .4.1zm6.4-2.3h-1.2v-1.1h1.2zm-.1 7.7h-1.1v-6.5h1.1zm7.5 0h-1.1v-.7c-.3.3-.6.5-1 .6s-.7.2-1.1.2c-.8 0-1.4-.3-1.9-.9s-.7-1.4-.7-2.5c0-.6.1-1 .2-1.5s.4-.8.6-1.1c.3-.3.6-.5.9-.7s.7-.2 1.1-.2c.3 0 .6 0 .9.1s.5.2.8.3v-2.8h1.1v9.2zm-1.1-1.7v-3.7c-.3-.1-.6-.2-.8-.3s-.5-.1-.8-.1c-.6 0-1.1.2-1.4.6s-.5 1-.5 1.8.1 1.4.4 1.8.7.6 1.3.6c.3 0 .6-.1.9-.2s.6-.2.9-.5m8.8-1.5h-4.8c0 .4.1.8.2 1.1s.3.5.5.7.4.3.7.4.6.1.9.1c.4 0 .9-.1 1.3-.3l1-.5h.1v1.2c-.4.2-.8.3-1.1.4s-.8.2-1.2.2c-1.1 0-1.9-.3-2.5-.9s-.9-1.4-.9-2.5.3-1.9.9-2.5 1.4-.9 2.3-.9 1.6.3 2 .8.7 1.2.7 2.2zm-1.1-.8c0-.6-.1-1-.4-1.3s-.7-.5-1.3-.5-1.1.2-1.4.5-.5.8-.6 1.3zm8.2 4h-1.1v-3.7c0-.3 0-.6-.1-.8s-.1-.5-.2-.6c-.1-.2-.2-.3-.4-.4s-.4-.1-.7-.1-.6.1-.9.2q-.45.15-.9.6v4.9h-1.1v-6.5h1.1v.7c.3-.3.7-.5 1.1-.7s.7-.2 1.1-.2c.7 0 1.2.2 1.6.6q.6.6.6 1.8zm5.5-.1c-.2.1-.4.1-.7.1s-.5.1-.7.1c-.7 0-1.2-.2-1.5-.5s-.5-.9-.5-1.7v-3.5h-.7v-.9h.7v-1.9h1.1v1.9h2.3v.9h-2.3v3.8s.1.4.2.5c.1.2.2.3.4.3s.4.1.7.1c.2 0 .4 0 .6-.1s.3-.1.4-.1h.1zm2.5-7.6h-1.2v-1.1h1.2zm0 7.7h-1.1v-6.5h1.1zm5.7-8.1c-.2 0-.3-.1-.5-.1s-.4-.1-.5-.1c-.5 0-.8.1-1 .3s-.3.6-.3 1.1v.2h2v.9h-2v5.6h-1.1v-5.6h-.7v-.9h.7v-.2q0-1.2.6-1.8c.6-.6.9-.6 1.7-.6h.7s.4.1.5.1zm1.7.4h-1.2v-1.1h1.2zm0 7.7h-1.1v-6.5h1.1zm7-.5c-.4.2-.7.3-1 .4s-.7.1-1.1.1c-.5 0-.9-.1-1.3-.2s-.7-.3-1-.6-.5-.6-.7-1.1-.2-.9-.2-1.5c0-1.1.3-1.9.9-2.5s1.4-.9 2.3-.9c.4 0 .7.1 1.1.2s.7.2 1 .4v1.2h-.1c-.3-.3-.7-.5-1-.6s-.7-.2-1-.2q-.9 0-1.5.6c-.6.6-.5 1-.5 1.8s.2 1.4.5 1.8.9.6 1.5.6c.2 0 .4 0 .7-.1s.4-.1.6-.2.3-.2.5-.3.3-.2.3-.2h.1zm6.5.5h-1.1v-.7c-.1.1-.2.2-.4.3s-.3.2-.5.3-.4.2-.6.2-.5.1-.8.1q-.9 0-1.5-.6c-.6-.6-.6-.9-.6-1.5q0-.75.3-1.2c.2-.3.5-.5.9-.7s.9-.3 1.4-.4 1.2-.1 1.8-.1v-.2c0-.2 0-.5-.1-.6s-.2-.3-.4-.4-.3-.2-.6-.2h-.7c-.3 0-.6 0-1 .1s-.7.2-1.1.3h-.1v-1.1c.2-.1.5-.1.9-.2s.8-.1 1.2-.1c.5 0 .9 0 1.2.1s.6.2.9.4c.2.2.4.4.6.7s.2.6.2 1.1zm-1.1-1.7v-1.8c-.3 0-.7 0-1.2.1s-.8.1-1.1.2-.6.2-.8.4-.3.5-.3.8c0 .4.1.7.3.8s.6.3 1 .3.7-.1 1.1-.2.7-.3 1-.6m6.6 1.6c-.2.1-.4.1-.7.1s-.5.1-.7.1c-.7 0-1.2-.2-1.5-.5s-.5-.9-.5-1.7v-3.5h-.7v-.9h.7v-1.9h1.1v1.9h2.3v.9h-2.3v3.8s.1.4.2.5c.1.2.2.3.4.3s.4.1.7.1c.2 0 .4 0 .6-.1s.3-.1.4-.1h.1zm2.5-7.6h-1.2v-1.1h1.2zm0 7.7h-1.1v-6.5h1.1zm7.7-3.3c0 1.1-.3 1.9-.8 2.5s-1.3.9-2.2.9-1.7-.3-2.2-.9-.8-1.5-.8-2.5.3-1.9.8-2.5 1.3-.9 2.2-.9 1.7.3 2.2.9.8 1.4.8 2.5m-1.1 0c0-.8-.2-1.5-.5-1.9s-.8-.6-1.4-.6-1.1.2-1.4.6-.5 1-.5 1.9c0 .8.2 1.4.5 1.9s.8.6 1.4.6 1-.2 1.4-.6.5-1.1.5-1.9m8.3 3.3h-1.1v-3.7c0-.3 0-.6-.1-.8s-.1-.5-.2-.6c-.1-.2-.2-.3-.4-.4s-.4-.1-.7-.1-.6.1-.9.2q-.45.15-.9.6v4.9h-1.1v-6.5h1.1v.7c.3-.3.7-.5 1.1-.7s.7-.2 1.1-.2c.7 0 1.2.2 1.6.6q.6.6.6 1.8zm12-3.4c0 .5-.1 1-.2 1.5s-.4.8-.6 1.1c-.3.3-.6.5-.9.7s-.7.2-1.1.2c-.3 0-.6 0-.9-.1s-.6-.2-.8-.3v2.7h-1.1v-9h1.1v.7c.3-.2.6-.5 1-.6s.8-.2 1.2-.2q1.2 0 1.8.9c.4.6.5 1.3.5 2.4m-1 0c0-.8-.1-1.4-.4-1.8s-.7-.6-1.2-.6c-.3 0-.6.1-1 .2s-.6.3-.9.5v3.7c.3.1.6.2.8.3s.5.1.8.1c.6 0 1.1-.2 1.4-.6s.5-1 .5-1.8m8.1 3.4h-1.1v-.7c-.4.3-.7.5-1.1.7s-.7.2-1.1.2c-.7 0-1.2-.2-1.6-.6q-.6-.6-.6-1.8v-4.2h1.1v4.6s.1.4.2.6.2.3.4.4.4.1.7.1.6-.1.9-.2.7-.3.9-.6v-4.9h1.1v6.4zm6.3-5.4c-.2 0-.4-.1-.5-.1h-.5c-.3 0-.7.1-1 .2q-.45.15-.9.6v4.6h-1.2v-6.5h1.1v1c.4-.4.8-.6 1.2-.7s.7-.2 1-.2h.4s.2 0 .4.1zm6.8 2c0 .5-.1 1-.2 1.5s-.4.8-.6 1.1c-.3.3-.6.5-.9.7s-.7.2-1.1.2c-.3 0-.6 0-.9-.1s-.6-.2-.8-.3v2.7h-1.1v-9h1.1v.7c.3-.2.6-.5 1-.6s.8-.2 1.2-.2q1.2 0 1.8.9c.4.6.5 1.3.5 2.4m-1.2 0c0-.8-.1-1.4-.4-1.8s-.7-.6-1.2-.6c-.3 0-.6.1-1 .2s-.6.3-.9.5v3.7c.3.1.6.2.8.3s.5.1.8.1c.6 0 1.1-.2 1.4-.6s.5-1 .5-1.8m8.5.1c0 1.1-.3 1.9-.8 2.5s-1.3.9-2.2.9-1.7-.3-2.2-.9-.8-1.5-.8-2.5.3-1.9.8-2.5 1.3-.9 2.2-.9 1.7.3 2.2.9.8 1.4.8 2.5m-1.2 0c0-.8-.2-1.5-.5-1.9s-.8-.6-1.4-.6-1.1.2-1.4.6-.5 1-.5 1.9c0 .8.2 1.4.5 1.9s.8.6 1.4.6 1-.2 1.4-.6.5-1.1.5-1.9m7.6 1.4c0 .6-.2 1.1-.7 1.5s-1.2.6-2 .6c-.5 0-.9-.1-1.3-.2s-.7-.2-1-.4v-1.2h.1q.45.45 1.2.6c.5.1.8.2 1.2.2.5 0 .9-.1 1.1-.2s.4-.4.4-.7-.1-.5-.2-.6-.4-.2-.9-.3c-.2 0-.4-.1-.6-.1s-.5-.1-.7-.2c-.6-.2-1-.4-1.2-.7s-.4-.7-.4-1.1c0-.3.1-.5.2-.8s.3-.5.5-.6c.2-.2.5-.3.8-.4s.7-.2 1.1-.2.8 0 1.2.1.7.2 1 .3v1.2h-.1c-.3-.2-.6-.4-1-.5s-.8-.2-1.2-.2-.7.1-1 .2-.4.4-.4.7q0 .45.3.6c.3.15.4.2.8.3.2 0 .4.1.7.1s.5.1.6.1q.75.15 1.2.6c.1.4.3.8.3 1.3m7-1.3h-4.8c0 .4.1.8.2 1.1s.3.5.5.7.4.3.7.4.6.1.9.1c.4 0 .9-.1 1.3-.3l1-.5h.1v1.2c-.4.2-.8.3-1.1.4s-.8.2-1.2.2c-1.1 0-1.9-.3-2.5-.9s-.9-1.4-.9-2.5.3-1.9.9-2.5 1.4-.9 2.3-.9 1.6.3 2 .8.7 1.2.7 2.2zm-1.1-.8c0-.6-.1-1-.4-1.3s-.7-.5-1.3-.5-1.1.2-1.4.5-.5.8-.6 1.3zm7.4 2.1c0 .6-.2 1.1-.7 1.5s-1.2.6-2 .6c-.5 0-.9-.1-1.3-.2s-.7-.2-1-.4v-1.2h.1q.45.45 1.2.6c.5.1.8.2 1.2.2.5 0 .9-.1 1.1-.2s.4-.4.4-.7-.1-.5-.2-.6-.4-.2-.9-.3c-.2 0-.4-.1-.6-.1s-.5-.1-.7-.2c-.6-.2-1-.4-1.2-.7s-.4-.7-.4-1.1c0-.3.1-.5.2-.8s.3-.5.5-.6c.2-.2.5-.3.8-.4s.7-.2 1.1-.2.8 0 1.2.1.7.2 1 .3v1.2h-.1c-.3-.2-.6-.4-1-.5s-.8-.2-1.2-.2-.7.1-1 .2-.4.4-.4.7q0 .45.3.6c.2.1.4.2.8.3.2 0 .4.1.7.1s.5.1.6.1q.75.15 1.2.6c.2.4.3.8.3 1.3m-316-93h-3.4v-.7c.2-.2.5-.4.7-.6s.5-.4.7-.6c.4-.4.7-.8.9-1s.2-.5.2-.8q0-.45-.3-.6c-.3-.15-.4-.2-.7-.2-.2 0-.4 0-.7.1-.2.1-.5.2-.7.3v-.7c.2-.1.4-.2.6-.2.3-.1.5-.1.8-.1.5 0 .9.1 1.2.4s.4.6.4 1c0 .2 0 .4-.1.5 0 .2-.1.3-.2.5-.1.1-.2.3-.3.4s-.3.3-.4.5c-.2.2-.5.5-.8.7s-.5.4-.7.6h2.7zm5.5-1.9h-2.1v-.6h2.1zm7 1.9h-3.4v-.7c.2-.2.5-.4.7-.6s.5-.4.7-.6c.4-.4.7-.8.9-1s.2-.5.2-.8q0-.45-.3-.6c-.3-.15-.4-.2-.7-.2-.2 0-.4 0-.7.1-.2.1-.5.2-.7.3v-.7c.2-.1.4-.2.6-.2.3-.1.5-.1.8-.1.5 0 .9.1 1.2.4s.4.6.4 1c0 .2 0 .4-.1.5 0 .2-.1.3-.2.5-.1.1-.2.3-.3.4s-.3.3-.4.5c-.2.2-.5.5-.8.7s-.5.4-.7.6h2.7zm7.7 0h-.7l-.5-1.4h-2.2l-.5 1.4h-.7l1.9-5.1h.9zm-1.4-2-.9-2.5-.9 2.5zm6.7 2h-.6v-4.4l-1.4 3h-.4l-1.4-3v4.4h-.6v-5.1h.8l1.4 2.8 1.3-2.8h.9zm4.9-3.5c0 .2 0 .4-.1.6s-.2.4-.3.5c-.2.2-.4.3-.6.4s-.5.1-.9.1h-.7v1.9h-.7v-5.1h1.4c.3 0 .6 0 .8.1s.4.1.6.2.3.3.4.5.1.5.1.8m-.7 0c0-.2 0-.3-.1-.5s-.2-.2-.3-.3-.2-.1-.4-.2h-1.1v2h.6c.3 0 .5 0 .7-.1s.3-.1.4-.2.2-.2.2-.3zm7.4 3.5h-3.4v-.7c.2-.2.5-.4.7-.6s.5-.4.7-.6c.4-.4.7-.8.9-1s.2-.5.2-.8q0-.45-.3-.6c-.2-.1-.4-.2-.7-.2-.2 0-.4 0-.7.1-.2.1-.5.2-.7.3v-.7c.2-.1.4-.2.6-.2.3-.1.5-.1.8-.1.5 0 .9.1 1.2.4s.4.6.4 1c0 .2 0 .4-.1.5 0 .2-.1.3-.2.5-.1.1-.2.3-.3.4s-.3.3-.4.5c-.2.2-.5.5-.8.7s-.5.4-.7.6h2.7zm4.5-1.4h-.8v1.4h-.7v-1.4h-2.3v-.8l2.5-2.9h.6v3.1h.8zm-1.4-.6v-2.3l-2 2.3zm5.7-.5c0 .9-.1 1.6-.4 2s-.7.6-1.3.6-1.1-.2-1.3-.6c-.3-.4-.4-1.1-.4-2s.1-1.6.4-2 .7-.6 1.3-.6 1.1.2 1.3.7c.3.3.4 1 .4 1.9m-.8 1.5c.1-.2.1-.4.2-.7v-1.8s-.1-.5-.2-.6c-.1-.2-.2-.3-.3-.4s-.3-.1-.5-.1-.4 0-.5.1-.3.2-.3.4c-.1.2-.1.4-.2.7v1.8s.1.5.2.6c.1.2.2.3.3.4s.3.1.5.1.4 0 .5-.1c0-.1.1-.2.3-.4m8.5-4.1-1.9 5.1h-.9l-1.9-5.1h.7l1.6 4.5 1.6-4.5zm4.6.6c.2.2.4.5.5.8s.2.7.2 1.1-.1.8-.2 1.1-.3.6-.5.8-.5.4-.7.5c-.3.1-.6.2-1 .2s-.7-.1-1-.2-.5-.3-.7-.5-.4-.5-.5-.8-.2-.7-.2-1.1.1-.8.2-1.1.3-.6.5-.8.4-.4.7-.5.6-.2 1-.2.7.1 1 .2c.2.1.4.3.7.5m-.1 2c0-.7-.1-1.2-.4-1.5-.3-.4-.7-.5-1.2-.5s-.9.2-1.2.5c-.3.4-.4.9-.4 1.5 0 .7.2 1.2.5 1.5s.7.5 1.2.5.9-.2 1.2-.5c.1-.4.3-.9.3-1.5m5.2 2.5h-3.2v-5.1h.7v4.5h2.5zm3.6-4.5h-1.8v4.5h-.7v-4.5h-1.8v-.6h4.3zm4.9 3.1c0 .2 0 .4-.1.6s-.2.4-.4.5-.4.3-.6.3c-.2.1-.5.1-.9.1s-.7 0-1-.1l-.9-.3v-.8c.3.2.6.4.9.5s.7.2 1 .2c.4 0 .7-.1 1-.2.2-.2.4-.4.4-.6s-.1-.4-.2-.5-.3-.2-.5-.2-.4-.1-.6-.1-.4-.1-.6-.1c-.5-.1-.8-.3-1-.5s-.3-.5-.3-.9.2-.8.5-1 .8-.4 1.4-.4c.4 0 .7 0 1 .1s.6.2.8.3v.8c-.2-.2-.4-.3-.8-.4-.3-.1-.6-.2-1-.2s-.7.1-.9.2c-.2.2-.3.3-.3.6 0 .2.1.4.2.5q.15.15.6.3c.1 0 .4.1.6.1s.5.1.7.1c.4.1.7.3.9.5s.1.2.1.6m6.5 1.4H194v-.5h1.1v-3.4H194v-.5h.5s.3-.1.4-.1c.1-.1.2-.1.2-.2.1-.1.1-.2.1-.4h.5v4.6h1zc-.1 0 0 0 0 0m7.2-3.5c0 .2 0 .4-.1.6s-.2.4-.3.5c-.2.2-.4.3-.6.4s-.5.1-.9.1h-.7v1.9h-.7v-5.1h1.4c.3 0 .6 0 .8.1s.4.1.6.2.3.3.4.5.1.5.1.8m-.7 0c0-.2 0-.3-.1-.5s-.2-.2-.3-.3-.2-.1-.4-.2h-1.2v2h.6c.3 0 .5 0 .7-.1s.3-.1.4-.2.2-.2.2-.3c.1-.1.1-.3.1-.4m5.5 3.5h-.7v-2.5h-2.5v2.5h-.6v-5.1h.7v2h2.5v-2h.7zm6.8-2.4c.1.1.2.2.3.4.1.1.1.3.1.6 0 .2 0 .4-.1.6s-.2.4-.4.5c-.2.2-.4.3-.6.4s-.5.1-.8.1-.6 0-.8-.1-.5-.1-.7-.2v-.7h.1c.2.1.4.2.7.3s.5.1.8.1c.1 0 .3 0 .5-.1.2 0 .3-.1.4-.2s.2-.2.2-.3c.1-.1.1-.3.1-.5s0-.3-.1-.5c-.1-.1-.1-.2-.2-.3s-.2-.1-.4-.1h-.8v-.6h.2c.3 0 .6-.1.8-.2s.3-.4.3-.6c0-.1 0-.2-.1-.3s-.1-.2-.2-.2c-.1-.1-.2-.1-.3-.1h-.4s-.4 0-.7.1c-.2.1-.5.2-.7.3v-.7c.2-.1.4-.2.6-.2.3-.1.5-.1.8-.1.2 0 .5 0 .7.1s.4.1.5.2c.2.1.3.2.4.4s.1.3.1.5c0 .3-.1.5-.3.7s-.4.3-.7.4c.1 0 .2.1.4.1.1 0 .2.1.3.2m10-2.7-1.3 5.1h-.8l-1.1-4.2-1 4.2h-.7l-1.3-5.1h.7l1.1 4.2 1.1-4.2h.7l1.1 4.3 1.1-4.3zm2.7 5.1h-2v-.5h.7v-4.1h-.7v-.5h2v.5h-.7v4.1h.7zm5.6 0h-.9l-1.7-2h-1v2h-.7v-5.1h1.4c.3 0 .6 0 .8.1s.4.1.6.2.3.3.4.4.2.4.2.7q0 .6-.3.9c-.3.3-.4.4-.8.6zm-1.6-3.6c0-.1 0-.3-.1-.4s-.1-.2-.3-.3c-.1-.1-.2-.1-.3-.1h-1.3v1.9h.7c.2 0 .4 0 .6-.1.2 0 .3-.1.4-.2s.2-.2.2-.3c.1-.2.1-.4.1-.5m5.6 3.6h-3.4v-5.1h3.4v.6h-2.7v1.4h2.7v.6h-2.7v1.9h2.7zm7.1-1.6c0 .5-.2.9-.5 1.3-.3.3-.8.5-1.3.5-.3 0-.5 0-.7-.1s-.4-.2-.5-.3c-.2-.2-.3-.4-.5-.8-.1-.3-.2-.7-.2-1.1 0-.5 0-.9.1-1.2s.3-.7.5-.9c.2-.3.5-.5.8-.6s.7-.2 1.1-.2h.3s.2 0 .3.1v.7c-.1 0-.2-.1-.3-.1h-.4c-.5 0-.9.2-1.2.5s-.5.7-.5 1.2l.6-.3c.2-.1.4-.1.6-.1s.4 0 .6.1c.2 0 .3.1.5.2s.4.3.5.5c.1 0 .2.3.2.6m-.7 0c0-.2 0-.4-.1-.5s-.2-.3-.3-.4-.2-.1-.3-.1h-.4c-.2 0-.4 0-.5.1-.2 0-.3.1-.5.2v.3c0 .4 0 .6.1.9.1.2.2.4.3.5s.2.2.3.2.3.1.4.1c.3 0 .6-.1.8-.3.1-.3.2-.6.2-1m5-.9c0 .9-.1 1.6-.4 2s-.7.6-1.3.6-1.1-.2-1.3-.6c-.3-.4-.4-1.1-.4-2s.1-1.6.4-2 .7-.6 1.3-.6 1.1.2 1.3.7c.3.3.4 1 .4 1.9m-.9 1.5c.1-.2.1-.4.2-.7v-1.8s-.1-.5-.2-.6c-.1-.2-.2-.3-.3-.4s-.3-.1-.5-.1-.4 0-.5.1-.3.2-.3.4c-.1.2-.1.4-.2.7s0 .6 0 .9v.9c0 .2.1.5.2.6.1.2.2.3.3.4s.3.1.5.1.4 0 .5-.1.3-.2.3-.4m8.6 1h-.7v-2.5h-2.5v2.5h-.7v-5.1h.7v2h2.5v-2h.7zm5 0h-4v-.6l3.1-3.9h-3v-.6h3.8v.6l-3.2 3.9h3.2zM181.2 40h-1.5l-2.6-2.9-.7.7V40h-1.1v-9.1h1.1v5.8l3.2-3.3h1.4l-3 3zm11.4-8.7-2.3 8.7H189l-1.8-7.2-1.8 7.2h-1.3l-2.3-8.7h1.2l1.8 7.3 1.8-7.3h1.2l1.8 7.3 1.8-7.3zm7 8.7h-1.1v-3.7c0-.3 0-.6-.1-.8s-.1-.5-.2-.6c-.1-.2-.2-.3-.4-.4s-.4-.1-.7-.1-.6.1-.9.2-.6.3-.9.6v4.9h-1.1V31h1.1v3.3c.3-.3.7-.5 1.1-.7s.7-.2 1.1-.2c.7 0 1.2.2 1.6.6q.6.6.6 1.8z"/>
</svg>
