<svg xmlns="http://www.w3.org/2000/svg" xmlns:xlink="http://www.w3.org/1999/xlink" width="510" height="216" viewBox="0 0 510 216">
	<defs>
		<path id="a" d="M0 0h95.484v5.968L47.742 48.935 0 5.968z"/>
		<path id="c" d="M0 0h95.484v5.968L47.742 48.935 0 5.968z"/>
		<path id="e" d="M0 0h95.484v5.968L47.742 48.935 0 5.968z"/>
		<path id="g" d="M0 0h95.484v5.968L47.742 48.935 0 5.968z"/>
		<path id="i" d="M0 0h95.484v5.968L47.742 48.935 0 5.968z"/>
	</defs>
	<g fill="none" fill-rule="evenodd">
		<path fill="#000" d="M142.124 140.952c0-1.43-1.496-2.222-3.234-2.882-1.76.638-2.992 1.496-2.992 2.882 0 1.342.902 2.486 3.102 2.486 2.178 0 3.124-1.078 3.124-2.486m-.572-7.282c0-1.43-1.188-2.09-2.53-2.09-1.254 0-2.574.462-2.574 1.958 0 1.43 1.452 2.156 2.684 2.64 1.584-.682 2.42-1.474 2.42-2.508m-.462 3.432c1.65.88 3.322 1.826 3.322 4.004 0 2.508-2.002 4.114-5.412 4.114-3.498 0-5.434-1.562-5.434-4.092 0-2.266 1.892-3.366 3.388-4.026-1.32-.682-2.816-1.606-2.816-3.564 0-2.574 2.354-3.718 4.84-3.718 2.222 0 4.84 1.056 4.84 3.74 0 2.002-1.496 2.882-2.728 3.542m84.008 6.116c2.794 0 3.586-3.014 3.696-5.28-.638.836-1.672 1.562-3.3 1.562-2.684 0-4.752-1.606-4.752-4.752 0-2.948 2.112-4.906 5.06-4.906 3.256 0 5.412 2.244 5.412 7.062 0 2.992-.836 8.338-6.072 8.338-1.32 0-2.794-.264-4.004-.99-.154-.088-.176-.22-.11-.352l.704-1.408c.088-.176.198-.154.374-.066.924.506 1.848.792 2.992.792m3.762-7.458c-.132-2.794-1.364-3.916-3.058-3.916s-2.75 1.254-2.75 2.838c0 1.914 1.122 2.838 2.706 2.838 1.364 0 2.398-.704 3.102-1.76m79.542 2.266.572-7.744c0-.132.11-.264.264-.264h7.744c.154 0 .264.132.264.264v1.54c0 .132-.11.264-.264.264h-6.006l-.308 3.96c.286-.242.66-.418 1.1-.572a4.4 4.4 0 0 1 1.386-.22c1.584 0 2.794.528 3.608 1.452.748.858 1.144 2.09 1.144 3.498 0 1.386-.484 2.596-1.32 3.476-.946.99-2.376 1.54-4.048 1.54-1.98 0-3.278-.484-4.312-1.32-.154-.088-.22-.22-.132-.396l.638-1.32c.088-.154.198-.176.352-.088.99.77 1.826 1.254 3.454 1.254.902 0 1.694-.308 2.244-.902.506-.528.836-1.298.836-2.222 0-.946-.286-1.76-.77-2.266-.484-.55-1.188-.836-2.024-.836-.748 0-1.32.22-1.738.484a3.3 3.3 0 0 0-.968.924c-.088.154-.198.176-.352.132l-1.1-.242c-.22-.044-.286-.132-.264-.396m97.208-.506c0 5.06-1.98 7.7-5.61 7.7-3.652 0-5.632-2.64-5.632-7.7s1.98-7.7 5.632-7.7c3.63 0 5.61 2.64 5.61 7.7m-2.376 0c0-1.892-.264-3.3-.858-4.224-.528-.88-1.32-1.298-2.376-1.298s-1.87.44-2.398 1.298c-.594.924-.902 2.354-.902 4.224 0 1.892.308 3.322.88 4.246.55.858 1.342 1.298 2.42 1.298 1.034 0 1.848-.44 2.376-1.298.594-.946.858-2.332.858-4.246"/>
		<circle cx="57" cy="83" r="37" fill="#E6E6E6"/>
		<g transform="translate(20 47)">
			<g transform="translate(-10.742 -11.935)">
				<mask id="b" fill="#fff">
					<use xlink:href="#a"/>
				</mask>
				<circle cx="47.742" cy="48.935" r="44.161" stroke="#000" mask="url(#b)"/>
			</g>
			<path fill="#000" d="M75.57 15.145 64.928 8.31l6.584-5.143z"/>
			<circle cx="37" cy="37" r="37" stroke="#000"/>
			<circle cx="37" cy="37" r="2.387" fill="#000"/>
			<path stroke="#000" stroke-linecap="square" d="M37 0v5.968m21.748 1.098-3.508 4.828m16.95 13.672-5.677 1.845m5.677 21.023-5.677-1.845m-7.765 20.345-3.508-4.828m-39.988 4.828 3.508-4.828M1.81 48.434l5.677-1.845M1.81 25.566l5.677 1.845m7.765-20.345 3.508 4.828M37 74v-5.968"/>
			<path fill="#000" d="M40.032 12.27c0 2.196-.86 3.342-2.435 3.342-1.585 0-2.445-1.146-2.445-3.342s.86-3.342 2.445-3.342c1.575 0 2.435 1.146 2.435 3.342m-1.032 0c0-.821-.114-1.433-.372-1.834-.23-.382-.573-.563-1.031-.563-.459 0-.812.191-1.041.563-.258.401-.391 1.022-.391 1.834 0 .82.133 1.441.381 1.843.24.372.583.563 1.05.563.45 0 .803-.191 1.032-.563.258-.411.372-1.013.372-1.843m12.585 1.336-1.346.497c-.115.038-.162.02-.162-.115v-.649c0-.067.019-.134.114-.162l1.585-.583a.8.8 0 0 1 .248-.047h.478a.11.11 0 0 1 .114.114v5.548h1.309c.057 0 .114.057.114.114v.66a.116.116 0 0 1-.114.114H50.19a.11.11 0 0 1-.114-.115v-.659c0-.057.047-.114.114-.114h1.394v-4.603zm9.997 17.732H64.6c.066 0 .124.057.124.114v.66c0 .066-.058.114-.124.114h-4.001a.11.11 0 0 1-.115-.115v-.353c0-.907.182-1.413.669-1.89.64-.64 1.48-.87 2.09-1.357.297-.248.497-.525.497-.954 0-.268-.086-.526-.267-.726-.2-.21-.497-.334-.898-.334-.592 0-1.07.238-1.518.544-.067.038-.143.057-.19-.029l-.278-.573c-.038-.066-.028-.105.048-.152.497-.334 1.098-.65 2.015-.65.659 0 1.231.24 1.594.65.296.315.459.744.459 1.241 0 .668-.287 1.146-.736 1.528-.668.582-1.45.792-2.005 1.308-.277.248-.382.496-.382.974m.525 15.869h-.353a.11.11 0 0 1-.114-.114v-.583c0-.057.047-.114.114-.114h.277c.372 0 .659-.039.917-.21a.95.95 0 0 0 .43-.812.97.97 0 0 0-.335-.726 1.06 1.06 0 0 0-.706-.248c-.516 0-.955.2-1.308.44-.086.066-.153.047-.182-.02l-.277-.544c-.028-.067-.038-.124.048-.172.468-.306.983-.563 1.785-.563.535 0 .974.162 1.29.42.391.315.601.783.601 1.289 0 .64-.296 1.212-1.003 1.49.803.257 1.242.83 1.242 1.651 0 .583-.239 1.06-.669 1.385-.372.286-.888.449-1.508.449-.793 0-1.385-.172-1.824-.45-.076-.057-.086-.095-.048-.171l.277-.573c.048-.086.096-.076.182-.029.467.306.859.41 1.336.41.344 0 .64-.075.85-.228.287-.182.43-.497.43-.879 0-.43-.191-.725-.535-.916-.277-.153-.592-.182-.917-.182M53.28 62.065h-.764a.11.11 0 0 1-.114-.115v-1.27h-2.894a.11.11 0 0 1-.114-.115v-.572c0-.086.019-.125.076-.21l2.912-4.135c.058-.086.105-.115.21-.115h.688c.057 0 .115.048.115.115v4.192h.878a.11.11 0 0 1 .115.114v.611a.11.11 0 0 1-.115.115h-.878v1.27a.116.116 0 0 1-.115.115m-.878-4.994-1.91 2.769h1.91v-2.77zm-16.801 5.547.248-3.36c0-.058.048-.115.115-.115h3.361c.067 0 .115.057.115.114v.669a.116.116 0 0 1-.115.114h-2.607l-.133 1.719c.124-.105.286-.181.477-.248.172-.058.372-.096.602-.096.687 0 1.212.23 1.566.63.324.373.496.908.496 1.519 0 .601-.21 1.126-.573 1.508-.41.43-1.031.669-1.757.669-.86 0-1.422-.21-1.871-.573-.067-.038-.096-.096-.058-.172l.277-.573c.039-.067.086-.076.153-.038.43.334.793.544 1.5.544.39 0 .734-.134.973-.391.22-.23.363-.564.363-.965 0-.41-.124-.764-.334-.983-.21-.239-.516-.363-.879-.363-.324 0-.573.095-.754.21a1.4 1.4 0 0 0-.42.4c-.038.068-.086.077-.153.058l-.477-.105c-.096-.019-.124-.057-.115-.172m-11.954-5.07c-1.213 0-1.557 1.308-1.605 2.292.277-.363.726-.678 1.433-.678 1.165 0 2.062.697 2.062 2.062 0 1.28-.916 2.13-2.196 2.13-1.413 0-2.349-.974-2.349-3.065 0-1.3.363-3.62 2.635-3.62.573 0 1.213.115 1.738.43.067.039.077.096.048.153l-.306.611c-.038.077-.085.067-.162.029a2.6 2.6 0 0 0-1.298-.344m-1.633 3.237c.057 1.213.592 1.7 1.327 1.7s1.194-.545 1.194-1.232c0-.83-.487-1.232-1.175-1.232-.592 0-1.04.306-1.346.764M10.413 43.627h4.134c.057 0 .115.057.115.114v.554c0 .095-.02.134-.058.21l-2.559 5.519c-.028.076-.086.105-.172.105h-.802c-.133 0-.143-.086-.095-.181L13 45.785c.2-.411.468-.879.716-1.3h-2.559v.87a.11.11 0 0 1-.114.114h-.63a.116.116 0 0 1-.115-.114V43.74c0-.057.057-.114.115-.114zm3.475-13.158c0-.62-.65-.964-1.403-1.25-.764.276-1.3.648-1.3 1.25 0 .582.392 1.079 1.347 1.079.946 0 1.356-.468 1.356-1.08zm-.248-3.16c0-.621-.516-.908-1.098-.908-.544 0-1.117.2-1.117.85 0 .62.63.936 1.165 1.146.687-.296 1.05-.64 1.05-1.089zm-.2 1.489c.715.382 1.441.792 1.441 1.738 0 1.088-.869 1.785-2.349 1.785-1.518 0-2.358-.678-2.358-1.776 0-.983.821-1.46 1.47-1.747-.573-.296-1.222-.697-1.222-1.547 0-1.117 1.022-1.614 2.1-1.614.965 0 2.101.459 2.101 1.624 0 .869-.649 1.25-1.184 1.537zm9.443-11.668c1.212 0 1.556-1.308 1.604-2.292-.277.363-.726.678-1.432.678-1.165 0-2.063-.697-2.063-2.062 0-1.28.917-2.13 2.196-2.13 1.413 0 2.35.974 2.35 3.065 0 1.299-.364 3.62-2.636 3.62-.573 0-1.213-.115-1.738-.43-.067-.039-.076-.096-.048-.153l.306-.611c.038-.077.086-.067.162-.029.401.22.802.344 1.299.344m1.632-3.237c-.057-1.213-.592-1.7-1.327-1.7s-1.193.545-1.193 1.232c0 .83.487 1.232 1.174 1.232.592 0 1.04-.306 1.346-.764"/>
		</g>
		<g transform="translate(107 47)">
			<g transform="matrix(-1 0 0 1 84.742 -11.935)">
				<mask id="d" fill="#fff">
					<use xlink:href="#c"/>
				</mask>
				<circle cx="47.742" cy="48.935" r="44.161" stroke="#000" mask="url(#d)"/>
			</g>
			<path fill="#000" d="M-1.57 15.145 9.072 8.31 2.487 3.168z"/>
			<circle cx="37" cy="37" r="37" stroke="#000"/>
			<circle cx="37" cy="37" r="2.387" fill="#000"/>
			<path stroke="#000" stroke-linecap="square" d="M37 0v5.968m21.748 1.098-3.508 4.828m16.95 13.672-5.677 1.845m5.677 21.023-5.677-1.845m-7.765 20.345-3.508-4.828m-39.988 4.828 3.508-4.828M1.81 48.434l5.677-1.845M1.81 25.566l5.677 1.845m7.765-20.345 3.508 4.828M37 74v-5.968"/>
			<path fill="#000" d="M40.032 12.27c0 2.196-.86 3.342-2.435 3.342-1.585 0-2.445-1.146-2.445-3.342s.86-3.342 2.445-3.342c1.575 0 2.435 1.146 2.435 3.342m-1.032 0c0-.821-.114-1.433-.372-1.834-.23-.382-.573-.563-1.031-.563-.459 0-.812.191-1.041.563-.258.401-.391 1.022-.391 1.834 0 .82.133 1.441.381 1.843.24.372.583.563 1.05.563.45 0 .803-.191 1.032-.563.258-.411.372-1.013.372-1.843m12.528 6.053c1.213 0 1.556-1.308 1.604-2.291-.277.363-.726.678-1.432.678-1.165 0-2.063-.697-2.063-2.063 0-1.28.917-2.13 2.196-2.13 1.414 0 2.35.975 2.35 3.066 0 1.299-.364 3.619-2.636 3.619-.573 0-1.213-.115-1.738-.43-.067-.038-.076-.095-.048-.153l.306-.61c.038-.077.086-.068.162-.03.401.22.802.344 1.299.344m1.633-3.237c-.058-1.212-.592-1.7-1.328-1.7-.735 0-1.193.545-1.193 1.233 0 .83.487 1.231 1.174 1.231.592 0 1.041-.305 1.347-.764m10.856 15.383c0-.62-.65-.964-1.403-1.25-.764.276-1.299.648-1.299 1.25 0 .582.391 1.079 1.346 1.079.946 0 1.356-.468 1.356-1.08zm-.248-3.16c0-.621-.516-.908-1.098-.908-.544 0-1.117.2-1.117.85 0 .62.63.936 1.165 1.146.687-.296 1.05-.64 1.05-1.089zm-.2 1.489c.716.382 1.441.792 1.441 1.738 0 1.088-.869 1.785-2.349 1.785-1.518 0-2.358-.678-2.358-1.776 0-.983.821-1.46 1.47-1.747-.573-.296-1.222-.697-1.222-1.547 0-1.117 1.022-1.614 2.1-1.614.965 0 2.101.459 2.101 1.624 0 .869-.649 1.25-1.184 1.537zm-3.027 14.829h4.134c.057 0 .115.057.115.114v.554c0 .095-.02.134-.058.21l-2.559 5.519c-.028.076-.086.105-.172.105H61.2c-.133 0-.143-.086-.095-.181l2.024-4.163c.2-.411.468-.879.716-1.3h-2.559v.87a.11.11 0 0 1-.114.114h-.63a.116.116 0 0 1-.115-.114V43.74c0-.057.057-.114.115-.114zm-8.25 12.728c-1.213 0-1.557 1.308-1.604 2.291.277-.363.725-.678 1.432-.678 1.165 0 2.062.697 2.062 2.063 0 1.28-.916 2.129-2.196 2.129-1.413 0-2.349-.974-2.349-3.065 0-1.299.363-3.619 2.636-3.619.573 0 1.212.115 1.737.43.067.038.077.095.048.153l-.305.61c-.039.077-.086.068-.163.03a2.6 2.6 0 0 0-1.298-.344m-1.633 3.236c.057 1.213.592 1.7 1.327 1.7s1.194-.544 1.194-1.232c0-.83-.487-1.231-1.175-1.231-.592 0-1.04.305-1.346.763m-15.058 3.027.248-3.36c0-.058.048-.115.115-.115h3.361c.067 0 .115.057.115.114v.669a.116.116 0 0 1-.115.114h-2.607l-.133 1.719c.124-.105.286-.181.477-.248.172-.058.372-.096.602-.096.687 0 1.212.23 1.566.63.324.373.496.908.496 1.519 0 .601-.21 1.126-.573 1.508-.41.43-1.031.669-1.757.669-.86 0-1.422-.21-1.871-.573-.067-.038-.096-.096-.058-.172l.277-.573c.039-.067.086-.076.153-.038.43.334.793.544 1.5.544.39 0 .734-.134.973-.391.22-.23.363-.564.363-.965 0-.41-.124-.764-.334-.983-.21-.239-.516-.363-.879-.363-.324 0-.573.095-.754.21a1.4 1.4 0 0 0-.42.4c-.038.068-.086.077-.153.058l-.477-.105c-.096-.019-.124-.057-.115-.172m-10.966.64h-.764a.11.11 0 0 1-.115-.115v-1.27h-2.893a.11.11 0 0 1-.114-.114v-.573c0-.086.019-.124.076-.21l2.912-4.134c.058-.086.105-.115.21-.115h.688c.057 0 .114.048.114.115v4.191h.879a.11.11 0 0 1 .114.115v.611a.11.11 0 0 1-.114.115h-.879v1.27a.116.116 0 0 1-.114.114m-.879-4.994-1.91 2.77h1.91zM11.978 47.207h-.353a.11.11 0 0 1-.114-.114v-.583c0-.057.047-.114.114-.114h.277c.372 0 .659-.039.917-.21a.95.95 0 0 0 .43-.812.97.97 0 0 0-.335-.726 1.06 1.06 0 0 0-.706-.248c-.516 0-.955.2-1.309.44-.085.066-.152.047-.18-.02l-.278-.544c-.028-.067-.038-.124.048-.172.468-.306.983-.563 1.785-.563.535 0 .974.162 1.29.42.391.315.601.783.601 1.289 0 .64-.296 1.212-1.003 1.49.803.257 1.242.83 1.242 1.651 0 .583-.239 1.06-.669 1.385-.372.286-.888.449-1.508.449-.793 0-1.385-.172-1.824-.45-.076-.057-.086-.095-.048-.171l.277-.573c.048-.086.096-.076.182-.029.467.306.859.41 1.336.41.344 0 .64-.075.85-.228.287-.182.43-.497.43-.879 0-.43-.191-.725-.535-.916-.277-.153-.592-.182-.917-.182m-.525-15.869h3.018c.066 0 .124.057.124.114v.66c0 .066-.058.114-.124.114H10.47a.11.11 0 0 1-.115-.115v-.353c0-.907.182-1.413.669-1.89.64-.64 1.48-.87 2.09-1.357.297-.248.497-.525.497-.954 0-.268-.086-.526-.267-.726-.2-.21-.497-.334-.898-.334-.592 0-1.07.238-1.518.544-.067.038-.143.057-.19-.029l-.278-.573c-.038-.066-.028-.105.048-.152.497-.334 1.098-.65 2.015-.65.659 0 1.231.24 1.594.65.296.315.459.744.459 1.241 0 .668-.287 1.146-.736 1.528-.668.582-1.451.792-2.005 1.308-.277.248-.382.496-.382.974M22.94 12.413l-1.346.496c-.115.039-.163.02-.163-.114v-.65c0-.066.02-.133.115-.162l1.585-.582a.8.8 0 0 1 .248-.048h.478a.11.11 0 0 1 .114.115v5.547h1.308c.058 0 .115.058.115.115v.659a.116.116 0 0 1-.115.114h-3.733a.11.11 0 0 1-.115-.114v-.66c0-.056.048-.114.115-.114h1.394z"/>
		</g>
		<g transform="translate(194 47)">
			<g transform="translate(-10.742 -11.935)">
				<mask id="f" fill="#fff">
					<use xlink:href="#e"/>
				</mask>
				<circle cx="47.742" cy="48.935" r="44.161" stroke="#000" mask="url(#f)"/>
			</g>
			<path fill="#000" d="M75.57 15.145 64.928 8.31l6.584-5.143z"/>
			<circle cx="37" cy="37" r="37" stroke="#000"/>
			<circle cx="37" cy="37" r="2.387" fill="#000"/>
			<path stroke="#000" stroke-linecap="square" d="M37 0v5.968m21.748 1.098-3.508 4.828m16.95 13.672-5.677 1.845m5.677 21.023-5.677-1.845m-7.765 20.345-3.508-4.828m-39.988 4.828 3.508-4.828M1.81 48.434l5.677-1.845M1.81 25.566l5.677 1.845m7.765-20.345 3.508 4.828M37 74v-5.968"/>
			<path fill="#000" d="M40.032 12.27c0 2.196-.86 3.342-2.435 3.342-1.585 0-2.445-1.146-2.445-3.342s.86-3.342 2.445-3.342c1.575 0 2.435 1.146 2.435 3.342m-1.032 0c0-.821-.114-1.433-.372-1.834-.23-.382-.573-.563-1.031-.563-.459 0-.812.191-1.041.563-.258.401-.391 1.022-.391 1.834 0 .82.133 1.441.381 1.843.24.372.583.563 1.05.563.45 0 .803-.191 1.032-.563.258-.411.372-1.013.372-1.843m12.585 1.336-1.346.497c-.115.038-.162.02-.162-.115v-.649c0-.067.019-.134.114-.162l1.585-.583a.8.8 0 0 1 .248-.047h.478a.11.11 0 0 1 .114.114v5.548h1.309c.057 0 .114.057.114.114v.66a.116.116 0 0 1-.114.114H50.19a.11.11 0 0 1-.114-.115v-.659c0-.057.047-.114.114-.114h1.394v-4.603zm9.997 17.732H64.6c.066 0 .124.057.124.114v.66c0 .066-.058.114-.124.114h-4.001a.11.11 0 0 1-.115-.115v-.353c0-.907.182-1.413.669-1.89.64-.64 1.48-.87 2.09-1.357.297-.248.497-.525.497-.954 0-.268-.086-.526-.267-.726-.2-.21-.497-.334-.898-.334-.592 0-1.07.238-1.518.544-.067.038-.143.057-.19-.029l-.278-.573c-.038-.066-.028-.105.048-.152.497-.334 1.098-.65 2.015-.65.659 0 1.231.24 1.594.65.296.315.459.744.459 1.241 0 .668-.287 1.146-.736 1.528-.668.582-1.45.792-2.005 1.308-.277.248-.382.496-.382.974m.525 15.869h-.353a.11.11 0 0 1-.114-.114v-.583c0-.057.047-.114.114-.114h.277c.372 0 .659-.039.917-.21a.95.95 0 0 0 .43-.812.97.97 0 0 0-.335-.726 1.06 1.06 0 0 0-.706-.248c-.516 0-.955.2-1.308.44-.086.066-.153.047-.182-.02l-.277-.544c-.028-.067-.038-.124.048-.172.468-.306.983-.563 1.785-.563.535 0 .974.162 1.29.42.391.315.601.783.601 1.289 0 .64-.296 1.212-1.003 1.49.803.257 1.242.83 1.242 1.651 0 .583-.239 1.06-.669 1.385-.372.286-.888.449-1.508.449-.793 0-1.385-.172-1.824-.45-.076-.057-.086-.095-.048-.171l.277-.573c.048-.086.096-.076.182-.029.467.306.859.41 1.336.41.344 0 .64-.075.85-.228.287-.182.43-.497.43-.879 0-.43-.191-.725-.535-.916-.277-.153-.592-.182-.917-.182M53.28 62.065h-.764a.11.11 0 0 1-.114-.115v-1.27h-2.894a.11.11 0 0 1-.114-.115v-.572c0-.086.019-.125.076-.21l2.912-4.135c.058-.086.105-.115.21-.115h.688c.057 0 .115.048.115.115v4.192h.878a.11.11 0 0 1 .115.114v.611a.11.11 0 0 1-.115.115h-.878v1.27a.116.116 0 0 1-.115.115m-.878-4.994-1.91 2.769h1.91v-2.77zm-16.801 5.547.248-3.36c0-.058.048-.115.115-.115h3.361c.067 0 .115.057.115.114v.669a.116.116 0 0 1-.115.114h-2.607l-.133 1.719c.124-.105.286-.181.477-.248.172-.058.372-.096.602-.096.687 0 1.212.23 1.566.63.324.373.496.908.496 1.519 0 .601-.21 1.126-.573 1.508-.41.43-1.031.669-1.757.669-.86 0-1.422-.21-1.871-.573-.067-.038-.096-.096-.058-.172l.277-.573c.039-.067.086-.076.153-.038.43.334.793.544 1.5.544.39 0 .734-.134.973-.391.22-.23.363-.564.363-.965 0-.41-.124-.764-.334-.983-.21-.239-.516-.363-.879-.363-.324 0-.573.095-.754.21a1.4 1.4 0 0 0-.42.4c-.038.068-.086.077-.153.058l-.477-.105c-.096-.019-.124-.057-.115-.172m-11.954-5.07c-1.213 0-1.557 1.308-1.605 2.292.277-.363.726-.678 1.433-.678 1.165 0 2.062.697 2.062 2.062 0 1.28-.916 2.13-2.196 2.13-1.413 0-2.349-.974-2.349-3.065 0-1.3.363-3.62 2.635-3.62.573 0 1.213.115 1.738.43.067.039.077.096.048.153l-.306.611c-.038.077-.085.067-.162.029a2.6 2.6 0 0 0-1.298-.344m-1.633 3.237c.057 1.213.592 1.7 1.327 1.7s1.194-.545 1.194-1.232c0-.83-.487-1.232-1.175-1.232-.592 0-1.04.306-1.346.764M10.413 43.627h4.134c.057 0 .115.057.115.114v.554c0 .095-.02.134-.058.21l-2.559 5.519c-.028.076-.086.105-.172.105h-.802c-.133 0-.143-.086-.095-.181L13 45.785c.2-.411.468-.879.716-1.3h-2.559v.87a.11.11 0 0 1-.114.114h-.63a.116.116 0 0 1-.115-.114V43.74c0-.057.057-.114.115-.114zm3.475-13.158c0-.62-.65-.964-1.403-1.25-.764.276-1.3.648-1.3 1.25 0 .582.392 1.079 1.347 1.079.946 0 1.356-.468 1.356-1.08zm-.248-3.16c0-.621-.516-.908-1.098-.908-.544 0-1.117.2-1.117.85 0 .62.63.936 1.165 1.146.687-.296 1.05-.64 1.05-1.089zm-.2 1.489c.715.382 1.441.792 1.441 1.738 0 1.088-.869 1.785-2.349 1.785-1.518 0-2.358-.678-2.358-1.776 0-.983.821-1.46 1.47-1.747-.573-.296-1.222-.697-1.222-1.547 0-1.117 1.022-1.614 2.1-1.614.965 0 2.101.459 2.101 1.624 0 .869-.649 1.25-1.184 1.537zm9.443-11.668c1.212 0 1.556-1.308 1.604-2.292-.277.363-.726.678-1.432.678-1.165 0-2.063-.697-2.063-2.062 0-1.28.917-2.13 2.196-2.13 1.413 0 2.35.974 2.35 3.065 0 1.299-.364 3.62-2.636 3.62-.573 0-1.213-.115-1.738-.43-.067-.039-.076-.096-.048-.153l.306-.611c.038-.077.086-.067.162-.029.401.22.802.344 1.299.344m1.632-3.237c-.057-1.213-.592-1.7-1.327-1.7s-1.193.545-1.193 1.232c0 .83.487 1.232 1.174 1.232.592 0 1.04-.306 1.346-.764"/>
		</g>
		<g transform="translate(281 47)">
			<g transform="matrix(-1 0 0 1 84.742 -11.935)">
				<mask id="h" fill="#fff">
					<use xlink:href="#g"/>
				</mask>
				<circle cx="47.742" cy="48.935" r="44.161" stroke="#000" mask="url(#h)"/>
			</g>
			<path fill="#000" d="M-1.57 15.145 9.072 8.31 2.487 3.168z"/>
			<circle cx="37" cy="37" r="37" stroke="#000"/>
			<circle cx="37" cy="37" r="2.387" fill="#000"/>
			<path stroke="#000" stroke-linecap="square" d="M37 0v5.968m21.748 1.098-3.508 4.828m16.95 13.672-5.677 1.845m5.677 21.023-5.677-1.845m-7.765 20.345-3.508-4.828m-39.988 4.828 3.508-4.828M1.81 48.434l5.677-1.845M1.81 25.566l5.677 1.845m7.765-20.345 3.508 4.828M37 74v-5.968"/>
			<path fill="#000" d="M40.032 12.27c0 2.196-.86 3.342-2.435 3.342-1.585 0-2.445-1.146-2.445-3.342s.86-3.342 2.445-3.342c1.575 0 2.435 1.146 2.435 3.342m-1.032 0c0-.821-.114-1.433-.372-1.834-.23-.382-.573-.563-1.031-.563-.459 0-.812.191-1.041.563-.258.401-.391 1.022-.391 1.834 0 .82.133 1.441.381 1.843.24.372.583.563 1.05.563.45 0 .803-.191 1.032-.563.258-.411.372-1.013.372-1.843m12.528 6.053c1.213 0 1.556-1.308 1.604-2.291-.277.363-.726.678-1.432.678-1.165 0-2.063-.697-2.063-2.063 0-1.28.917-2.13 2.196-2.13 1.414 0 2.35.975 2.35 3.066 0 1.299-.364 3.619-2.636 3.619-.573 0-1.213-.115-1.738-.43-.067-.038-.076-.095-.048-.153l.306-.61c.038-.077.086-.068.162-.03.401.22.802.344 1.299.344m1.633-3.237c-.058-1.212-.592-1.7-1.328-1.7-.735 0-1.193.545-1.193 1.233 0 .83.487 1.231 1.174 1.231.592 0 1.041-.305 1.347-.764m10.856 15.383c0-.62-.65-.964-1.403-1.25-.764.276-1.299.648-1.299 1.25 0 .582.391 1.079 1.346 1.079.946 0 1.356-.468 1.356-1.08zm-.248-3.16c0-.621-.516-.908-1.098-.908-.544 0-1.117.2-1.117.85 0 .62.63.936 1.165 1.146.687-.296 1.05-.64 1.05-1.089zm-.2 1.489c.716.382 1.441.792 1.441 1.738 0 1.088-.869 1.785-2.349 1.785-1.518 0-2.358-.678-2.358-1.776 0-.983.821-1.46 1.47-1.747-.573-.296-1.222-.697-1.222-1.547 0-1.117 1.022-1.614 2.1-1.614.965 0 2.101.459 2.101 1.624 0 .869-.649 1.25-1.184 1.537zm-3.027 14.829h4.134c.057 0 .115.057.115.114v.554c0 .095-.02.134-.058.21l-2.559 5.519c-.028.076-.086.105-.172.105H61.2c-.133 0-.143-.086-.095-.181l2.024-4.163c.2-.411.468-.879.716-1.3h-2.559v.87a.11.11 0 0 1-.114.114h-.63a.116.116 0 0 1-.115-.114V43.74c0-.057.057-.114.115-.114zm-8.25 12.728c-1.213 0-1.557 1.308-1.604 2.291.277-.363.725-.678 1.432-.678 1.165 0 2.062.697 2.062 2.063 0 1.28-.916 2.129-2.196 2.129-1.413 0-2.349-.974-2.349-3.065 0-1.299.363-3.619 2.636-3.619.573 0 1.212.115 1.737.43.067.038.077.095.048.153l-.305.61c-.039.077-.086.068-.163.03a2.6 2.6 0 0 0-1.298-.344m-1.633 3.236c.057 1.213.592 1.7 1.327 1.7s1.194-.544 1.194-1.232c0-.83-.487-1.231-1.175-1.231-.592 0-1.04.305-1.346.763m-15.058 3.027.248-3.36c0-.058.048-.115.115-.115h3.361c.067 0 .115.057.115.114v.669a.116.116 0 0 1-.115.114h-2.607l-.133 1.719c.124-.105.286-.181.477-.248.172-.058.372-.096.602-.096.687 0 1.212.23 1.566.63.324.373.496.908.496 1.519 0 .601-.21 1.126-.573 1.508-.41.43-1.031.669-1.757.669-.86 0-1.422-.21-1.871-.573-.067-.038-.096-.096-.058-.172l.277-.573c.039-.067.086-.076.153-.038.43.334.793.544 1.5.544.39 0 .734-.134.973-.391.22-.23.363-.564.363-.965 0-.41-.124-.764-.334-.983-.21-.239-.516-.363-.879-.363-.324 0-.573.095-.754.21a1.4 1.4 0 0 0-.42.4c-.038.068-.086.077-.153.058l-.477-.105c-.096-.019-.124-.057-.115-.172m-10.966.64h-.764a.11.11 0 0 1-.115-.115v-1.27h-2.893a.11.11 0 0 1-.114-.114v-.573c0-.086.019-.124.076-.21l2.912-4.134c.058-.086.105-.115.21-.115h.688c.057 0 .114.048.114.115v4.191h.879a.11.11 0 0 1 .114.115v.611a.11.11 0 0 1-.114.115h-.879v1.27a.116.116 0 0 1-.114.114m-.879-4.994-1.91 2.77h1.91zM11.978 47.207h-.353a.11.11 0 0 1-.114-.114v-.583c0-.057.047-.114.114-.114h.277c.372 0 .659-.039.917-.21a.95.95 0 0 0 .43-.812.97.97 0 0 0-.335-.726 1.06 1.06 0 0 0-.706-.248c-.516 0-.955.2-1.309.44-.085.066-.152.047-.18-.02l-.278-.544c-.028-.067-.038-.124.048-.172.468-.306.983-.563 1.785-.563.535 0 .974.162 1.29.42.391.315.601.783.601 1.289 0 .64-.296 1.212-1.003 1.49.803.257 1.242.83 1.242 1.651 0 .583-.239 1.06-.669 1.385-.372.286-.888.449-1.508.449-.793 0-1.385-.172-1.824-.45-.076-.057-.086-.095-.048-.171l.277-.573c.048-.086.096-.076.182-.029.467.306.859.41 1.336.41.344 0 .64-.075.85-.228.287-.182.43-.497.43-.879 0-.43-.191-.725-.535-.916-.277-.153-.592-.182-.917-.182m-.525-15.869h3.018c.066 0 .124.057.124.114v.66c0 .066-.058.114-.124.114H10.47a.11.11 0 0 1-.115-.115v-.353c0-.907.182-1.413.669-1.89.64-.64 1.48-.87 2.09-1.357.297-.248.497-.525.497-.954 0-.268-.086-.526-.267-.726-.2-.21-.497-.334-.898-.334-.592 0-1.07.238-1.518.544-.067.038-.143.057-.19-.029l-.278-.573c-.038-.066-.028-.105.048-.152.497-.334 1.098-.65 2.015-.65.659 0 1.231.24 1.594.65.296.315.459.744.459 1.241 0 .668-.287 1.146-.736 1.528-.668.582-1.451.792-2.005 1.308-.277.248-.382.496-.382.974M22.94 12.413l-1.346.496c-.115.039-.163.02-.163-.114v-.65c0-.066.02-.133.115-.162l1.585-.582a.8.8 0 0 1 .248-.048h.478a.11.11 0 0 1 .114.115v5.547h1.308c.058 0 .115.058.115.115v.659a.116.116 0 0 1-.115.114h-3.733a.11.11 0 0 1-.115-.114v-.66c0-.056.048-.114.115-.114h1.394z"/>
		</g>
		<g transform="translate(368 47)">
			<g transform="translate(-10.742 -11.935)">
				<mask id="j" fill="#fff">
					<use xlink:href="#i"/>
				</mask>
				<circle cx="47.742" cy="48.935" r="44.161" stroke="#000" mask="url(#j)"/>
			</g>
			<path fill="#000" d="M75.57 15.145 64.928 8.31l6.584-5.143z"/>
			<circle cx="37" cy="37" r="37" stroke="#000"/>
			<circle cx="37" cy="37" r="2.387" fill="#000"/>
			<path stroke="#000" stroke-linecap="square" d="M37 0v5.968m21.748 1.098-3.508 4.828m16.95 13.672-5.677 1.845m5.677 21.023-5.677-1.845m-7.765 20.345-3.508-4.828m-39.988 4.828 3.508-4.828M1.81 48.434l5.677-1.845M1.81 25.566l5.677 1.845m7.765-20.345 3.508 4.828M37 74v-5.968"/>
			<path fill="#000" d="M40.032 12.27c0 2.196-.86 3.342-2.435 3.342-1.585 0-2.445-1.146-2.445-3.342s.86-3.342 2.445-3.342c1.575 0 2.435 1.146 2.435 3.342m-1.032 0c0-.821-.114-1.433-.372-1.834-.23-.382-.573-.563-1.031-.563-.459 0-.812.191-1.041.563-.258.401-.391 1.022-.391 1.834 0 .82.133 1.441.381 1.843.24.372.583.563 1.05.563.45 0 .803-.191 1.032-.563.258-.411.372-1.013.372-1.843m12.585 1.336-1.346.497c-.115.038-.162.02-.162-.115v-.649c0-.067.019-.134.114-.162l1.585-.583a.8.8 0 0 1 .248-.047h.478a.11.11 0 0 1 .114.114v5.548h1.309c.057 0 .114.057.114.114v.66a.116.116 0 0 1-.114.114H50.19a.11.11 0 0 1-.114-.115v-.659c0-.057.047-.114.114-.114h1.394v-4.603zm9.997 17.732H64.6c.066 0 .124.057.124.114v.66c0 .066-.058.114-.124.114h-4.001a.11.11 0 0 1-.115-.115v-.353c0-.907.182-1.413.669-1.89.64-.64 1.48-.87 2.09-1.357.297-.248.497-.525.497-.954 0-.268-.086-.526-.267-.726-.2-.21-.497-.334-.898-.334-.592 0-1.07.238-1.518.544-.067.038-.143.057-.19-.029l-.278-.573c-.038-.066-.028-.105.048-.152.497-.334 1.098-.65 2.015-.65.659 0 1.231.24 1.594.65.296.315.459.744.459 1.241 0 .668-.287 1.146-.736 1.528-.668.582-1.45.792-2.005 1.308-.277.248-.382.496-.382.974m.525 15.869h-.353a.11.11 0 0 1-.114-.114v-.583c0-.057.047-.114.114-.114h.277c.372 0 .659-.039.917-.21a.95.95 0 0 0 .43-.812.97.97 0 0 0-.335-.726 1.06 1.06 0 0 0-.706-.248c-.516 0-.955.2-1.308.44-.086.066-.153.047-.182-.02l-.277-.544c-.028-.067-.038-.124.048-.172.468-.306.983-.563 1.785-.563.535 0 .974.162 1.29.42.391.315.601.783.601 1.289 0 .64-.296 1.212-1.003 1.49.803.257 1.242.83 1.242 1.651 0 .583-.239 1.06-.669 1.385-.372.286-.888.449-1.508.449-.793 0-1.385-.172-1.824-.45-.076-.057-.086-.095-.048-.171l.277-.573c.048-.086.096-.076.182-.029.467.306.859.41 1.336.41.344 0 .64-.075.85-.228.287-.182.43-.497.43-.879 0-.43-.191-.725-.535-.916-.277-.153-.592-.182-.917-.182M53.28 62.065h-.764a.11.11 0 0 1-.114-.115v-1.27h-2.894a.11.11 0 0 1-.114-.115v-.572c0-.086.019-.125.076-.21l2.912-4.135c.058-.086.105-.115.21-.115h.688c.057 0 .115.048.115.115v4.192h.878a.11.11 0 0 1 .115.114v.611a.11.11 0 0 1-.115.115h-.878v1.27a.116.116 0 0 1-.115.115m-.878-4.994-1.91 2.769h1.91v-2.77zm-16.801 5.547.248-3.36c0-.058.048-.115.115-.115h3.361c.067 0 .115.057.115.114v.669a.116.116 0 0 1-.115.114h-2.607l-.133 1.719c.124-.105.286-.181.477-.248.172-.058.372-.096.602-.096.687 0 1.212.23 1.566.63.324.373.496.908.496 1.519 0 .601-.21 1.126-.573 1.508-.41.43-1.031.669-1.757.669-.86 0-1.422-.21-1.871-.573-.067-.038-.096-.096-.058-.172l.277-.573c.039-.067.086-.076.153-.038.43.334.793.544 1.5.544.39 0 .734-.134.973-.391.22-.23.363-.564.363-.965 0-.41-.124-.764-.334-.983-.21-.239-.516-.363-.879-.363-.324 0-.573.095-.754.21a1.4 1.4 0 0 0-.42.4c-.038.068-.086.077-.153.058l-.477-.105c-.096-.019-.124-.057-.115-.172m-11.954-5.07c-1.213 0-1.557 1.308-1.605 2.292.277-.363.726-.678 1.433-.678 1.165 0 2.062.697 2.062 2.062 0 1.28-.916 2.13-2.196 2.13-1.413 0-2.349-.974-2.349-3.065 0-1.3.363-3.62 2.635-3.62.573 0 1.213.115 1.738.43.067.039.077.096.048.153l-.306.611c-.038.077-.085.067-.162.029a2.6 2.6 0 0 0-1.298-.344m-1.633 3.237c.057 1.213.592 1.7 1.327 1.7s1.194-.545 1.194-1.232c0-.83-.487-1.232-1.175-1.232-.592 0-1.04.306-1.346.764M10.413 43.627h4.134c.057 0 .115.057.115.114v.554c0 .095-.02.134-.058.21l-2.559 5.519c-.028.076-.086.105-.172.105h-.802c-.133 0-.143-.086-.095-.181L13 45.785c.2-.411.468-.879.716-1.3h-2.559v.87a.11.11 0 0 1-.114.114h-.63a.116.116 0 0 1-.115-.114V43.74c0-.057.057-.114.115-.114zm3.475-13.158c0-.62-.65-.964-1.403-1.25-.764.276-1.3.648-1.3 1.25 0 .582.392 1.079 1.347 1.079.946 0 1.356-.468 1.356-1.08zm-.248-3.16c0-.621-.516-.908-1.098-.908-.544 0-1.117.2-1.117.85 0 .62.63.936 1.165 1.146.687-.296 1.05-.64 1.05-1.089zm-.2 1.489c.715.382 1.441.792 1.441 1.738 0 1.088-.869 1.785-2.349 1.785-1.518 0-2.358-.678-2.358-1.776 0-.983.821-1.46 1.47-1.747-.573-.296-1.222-.697-1.222-1.547 0-1.117 1.022-1.614 2.1-1.614.965 0 2.101.459 2.101 1.624 0 .869-.649 1.25-1.184 1.537zm9.443-11.668c1.212 0 1.556-1.308 1.604-2.292-.277.363-.726.678-1.432.678-1.165 0-2.063-.697-2.063-2.062 0-1.28.917-2.13 2.196-2.13 1.413 0 2.35.974 2.35 3.065 0 1.299-.364 3.62-2.636 3.62-.573 0-1.213-.115-1.738-.43-.067-.039-.076-.096-.048-.153l.306-.611c.038-.077.086-.067.162-.029.401.22.802.344 1.299.344m1.632-3.237c-.057-1.213-.592-1.7-1.327-1.7s-1.193.545-1.193 1.232c0 .83.487 1.232 1.174 1.232.592 0 1.04-.306 1.346-.764"/>
		</g>
		<path stroke="#000" stroke-linecap="square" stroke-width="1.5" d="M30 150h46m41 0h46m41 0h46m41 0h46m41 0h46"/>
		<path fill="#000" d="M22.26 176.785h.825c.075 0 .135.075.135.135v9.945c0 .075-.06.135-.135.135h-.825a.134.134 0 0 1-.135-.135v-9.945c0-.06.06-.135.135-.135m5.76.735c-.42 0-.705.135-.9.375-.255.285-.345.75-.345 1.335v1.005h2.07c.075 0 .15.075.15.15v.525c0 .06-.075.135-.15.135h-2.07v5.82c0 .075-.045.135-.12.135h-.75c-.06 0-.135-.06-.135-.135v-5.82h-.87c-.075 0-.135-.075-.135-.135v-.525c0-.075.06-.15.135-.15h.87v-1.095c0-.78.165-1.5.6-1.95.33-.33.795-.525 1.455-.525.81 0 1.515.27 1.98.63.06.045.09.12.06.18l-.255.525c-.045.075-.15.09-.225.03-.435-.33-.885-.51-1.365-.51m7.41 3.525v3.6c0 .48.075.87.255 1.14.195.33.54.495 1.095.495.42 0 .81-.09 1.26-.42.105-.075.165-.06.21.015l.255.54c.03.075 0 .12-.075.18-.525.36-1.185.555-1.89.555-.81 0-1.335-.24-1.65-.645-.345-.435-.465-1.05-.465-1.725v-3.735h-.81c-.06 0-.135-.075-.135-.135v-.525c0-.075.075-.15.135-.15h.81v-1.305c0-.075.075-.135.15-.135h.72c.075 0 .135.06.135.135v1.305h2.415c.075 0 .135.075.135.15v.525c0 .06-.06.135-.135.135zm5.085-4.125v4.515c.465-.87 1.335-1.32 2.415-1.32.81 0 1.485.195 1.95.6.54.48.81 1.23.81 2.28v3.885c0 .075-.06.12-.135.12h-.72c-.075 0-.15-.045-.15-.12v-3.645c0-.78-.15-1.395-.555-1.8-.315-.285-.75-.435-1.38-.435-.795 0-1.44.345-1.845 1.065-.27.51-.39 1.11-.39 1.695v3.12c0 .075-.06.12-.135.12h-.735c-.075 0-.15-.045-.15-.12v-9.96c0-.075.075-.135.15-.135h.735c.075 0 .135.06.135.135m7.89 6.24h4.5c-.015-.645-.225-1.17-.57-1.56-.345-.405-.915-.675-1.62-.675-.78 0-1.365.285-1.755.735-.33.39-.525.945-.555 1.5m2.565 3.195c.855 0 1.56-.285 2.1-.615.12-.075.18-.045.21.015l.255.495c.03.09.015.135-.06.18-.555.36-1.53.72-2.565.72-1.125 0-2.055-.405-2.685-1.11-.555-.615-.87-1.485-.87-2.49 0-.96.33-1.83.9-2.445.555-.615 1.38-.99 2.46-.99 1.095 0 1.92.435 2.445 1.065.51.615.765 1.5.72 2.535 0 .105-.075.165-.18.165h-5.295c.045.66.24 1.185.585 1.605.45.54 1.155.87 1.98.87m12.015-.195h1.02v-4.905a3.9 3.9 0 0 0-1.53-.285c-.84 0-1.53.375-1.965 1.02-.315.435-.465.99-.465 1.635 0 .765.225 1.335.615 1.725.54.57 1.365.81 2.325.81m1.905.84h-2.01c-1.215 0-2.295-.33-3-1.05-.54-.54-.87-1.305-.87-2.295 0-.855.225-1.635.675-2.25.585-.795 1.53-1.305 2.73-1.305.615 0 1.08.105 1.59.285v-3.465c0-.06.06-.135.135-.135h.75c.06 0 .12.075.12.135v9.945c0 .075-.06.135-.12.135m2.295-6.615c0-.075.075-.15.15-.15h.735c.075 0 .135.075.135.15v6.48c0 .075-.06.135-.135.135h-.735c-.075 0-.15-.06-.15-.135zm.51-2.775a.62.62 0 0 1-.615-.615c0-.33.27-.6.615-.6.33 0 .6.27.6.6s-.27.615-.6.615m4.98 8.775c.615 0 1.2-.15 1.74-.465v-2.265c-1.425.03-3.525.18-3.525 1.485 0 .885.9 1.245 1.785 1.245m-2.355-5.565c.72-.465 1.65-.705 2.565-.705 1.065 0 2.535.345 2.535 2.58v4.185c0 .075-.075.12-.135.12h-.645c-.06 0-.135-.045-.135-.12v-.24h-.06c-.69.39-1.29.51-2.055.51-1.215 0-2.445-.585-2.445-1.965 0-2.01 2.745-2.16 4.47-2.265v-.225c0-1.47-.78-1.785-1.635-1.785-.84 0-1.515.285-2.085.615-.105.06-.18.045-.21-.045l-.21-.465c-.045-.09-.03-.135.045-.195m7.17-3.9c0-.06.075-.135.15-.135h.735c.075 0 .135.075.135.135v9.945c0 .075-.06.135-.135.135h-.735c-.075 0-.15-.06-.15-.135zm8.01 0v4.515c.465-.87 1.335-1.32 2.415-1.32.81 0 1.485.195 1.95.6.54.48.81 1.23.81 2.28v3.885c0 .075-.06.12-.135.12h-.72c-.075 0-.15-.045-.15-.12v-3.645c0-.78-.15-1.395-.555-1.8-.315-.285-.75-.435-1.38-.435-.795 0-1.44.345-1.845 1.065-.27.51-.39 1.11-.39 1.695v3.12c0 .075-.06.12-.135.12h-.735c-.075 0-.15-.045-.15-.12v-9.96c0-.075.075-.135.15-.135h.735c.075 0 .135.06.135.135m9.54 9.465c.615 0 1.2-.15 1.74-.465v-2.265c-1.425.03-3.525.18-3.525 1.485 0 .885.9 1.245 1.785 1.245m-2.355-5.565c.72-.465 1.65-.705 2.565-.705 1.065 0 2.535.345 2.535 2.58v4.185c0 .075-.075.12-.135.12h-.645c-.06 0-.135-.045-.135-.12v-.24h-.06c-.69.39-1.29.51-2.055.51-1.215 0-2.445-.585-2.445-1.965 0-2.01 2.745-2.16 4.47-2.265v-.225c0-1.47-.78-1.785-1.635-1.785-.84 0-1.515.285-2.085.615-.105.06-.18.045-.21-.045l-.21-.465c-.045-.09-.03-.135.045-.195m8.145.6h.045c.465-.855 1.335-1.305 2.415-1.305.825 0 1.5.21 1.98.645.51.465.78 1.2.78 2.235v3.885c0 .075-.06.12-.135.12h-.72c-.075 0-.15-.045-.15-.12v-3.645c0-.75-.135-1.35-.525-1.74-.315-.315-.765-.495-1.425-.495-.795 0-1.41.36-1.8 1.02-.285.51-.42 1.11-.42 1.755v3.105c0 .075-.075.12-.135.12h-.735c-.075 0-.15-.045-.15-.12v-6.495c0-.075.075-.15.15-.15h.69c.075 0 .135.075.135.15zm10.86 4.74h1.02v-4.905a3.9 3.9 0 0 0-1.53-.285c-.84 0-1.53.375-1.965 1.02-.315.435-.465.99-.465 1.635 0 .765.225 1.335.615 1.725.54.57 1.365.81 2.325.81m1.905.84h-2.01c-1.215 0-2.295-.33-3-1.05-.54-.54-.87-1.305-.87-2.295 0-.855.225-1.635.675-2.25.585-.795 1.53-1.305 2.73-1.305.615 0 1.08.105 1.59.285v-3.465c0-.06.06-.135.135-.135h.75c.06 0 .12.075.12.135v9.945c0 .075-.06.135-.12.135m6.09-6.615c0-.075.075-.15.15-.15h.735c.075 0 .135.075.135.15v6.48c0 .075-.06.135-.135.135h-.735c-.075 0-.15-.06-.15-.135zm.51-2.775a.62.62 0 0 1-.615-.615c0-.33.27-.6.615-.6.33 0 .6.27.6.6s-.27.615-.6.615m4.59 8.745c.915 0 1.485-.345 1.485-1.095 0-.585-.435-.84-1.005-1.11-.42-.195-1.125-.375-1.665-.63-.645-.3-1.11-.78-1.11-1.605 0-1.14.885-1.815 2.46-1.815.915 0 1.605.24 2.055.48.105.06.105.12.075.195l-.27.54c-.045.09-.105.105-.18.06-.51-.27-1.035-.435-1.635-.435-.96 0-1.47.33-1.47.96 0 .51.375.75.84.96.51.225 1.2.42 1.65.645.78.36 1.29.84 1.29 1.68 0 1.215-.975 1.965-2.49 1.965-1.125 0-1.89-.315-2.34-.57-.075-.045-.09-.09-.045-.165l.27-.57c.03-.09.09-.105.18-.06.51.315 1.155.57 1.905.57m8.16.63a.18.18 0 0 1-.15-.18v-9.885c0-.06.075-.135.15-.135h.735c.075 0 .135.075.135.135v3.645c.57-.3 1.17-.45 1.905-.45.9 0 1.755.315 2.355.96.525.57.855 1.425.855 2.55 0 .975-.27 1.74-.78 2.31-.705.825-1.89 1.215-3.18 1.215-.69 0-1.62-.045-2.025-.165m.87-5.565v4.815c.33.06.855.09 1.23.09.87 0 1.755-.255 2.31-.93.345-.42.555-.99.555-1.77 0-.9-.27-1.56-.69-1.98-.45-.465-1.065-.675-1.695-.675-.705 0-1.23.165-1.71.45m7.53 1.74h4.5c-.015-.645-.225-1.17-.57-1.56-.345-.405-.915-.675-1.62-.675-.78 0-1.365.285-1.755.735-.33.39-.525.945-.555 1.5m2.565 3.195c.855 0 1.56-.285 2.1-.615.12-.075.18-.045.21.015l.255.495c.03.09.015.135-.06.18-.555.36-1.53.72-2.565.72-1.125 0-2.055-.405-2.685-1.11-.555-.615-.87-1.485-.87-2.49 0-.96.33-1.83.9-2.445.555-.615 1.38-.99 2.46-.99 1.095 0 1.92.435 2.445 1.065.51.615.765 1.5.72 2.535 0 .105-.075.165-.18.165h-5.295c.045.66.24 1.185.585 1.605.45.54 1.155.87 1.98.87m5.82-5.31v3.6c0 .48.075.87.255 1.14.195.33.54.495 1.095.495.42 0 .81-.09 1.26-.42.105-.075.165-.06.21.015l.255.54c.03.075 0 .12-.075.18-.525.36-1.185.555-1.89.555-.81 0-1.335-.24-1.65-.645-.345-.435-.465-1.05-.465-1.725v-3.735h-.81c-.06 0-.135-.075-.135-.135v-.525c0-.075.075-.15.135-.15h.81v-1.305c0-.075.075-.135.15-.135h.72c.075 0 .135.06.135.135v1.305h2.415c.075 0 .135.075.135.15v.525c0 .06-.06.135-.135.135zm8.175.84-1.695 5.01c-.045.135-.105.15-.225.15h-.765c-.12 0-.18-.03-.225-.15l-2.205-6.465c-.03-.075-.03-.195.105-.195h.75c.105 0 .18.045.21.15l1.785 5.415h.03l1.77-5.415c.03-.105.09-.15.21-.15h.57c.12 0 .18.045.21.15l1.785 5.415h.03l1.8-5.415c.03-.105.09-.15.21-.15h.69c.135 0 .135.12.105.195l-2.235 6.465c-.03.12-.09.15-.225.15h-.78c-.105 0-.18-.03-.21-.15l-1.665-5.01zm6.96 1.275h4.5c-.015-.645-.225-1.17-.57-1.56-.345-.405-.915-.675-1.62-.675-.78 0-1.365.285-1.755.735-.33.39-.525.945-.555 1.5m2.565 3.195c.855 0 1.56-.285 2.1-.615.12-.075.18-.045.21.015l.255.495c.03.09.015.135-.06.18-.555.36-1.53.72-2.565.72-1.125 0-2.055-.405-2.685-1.11-.555-.615-.87-1.485-.87-2.49 0-.96.33-1.83.9-2.445.555-.615 1.38-.99 2.46-.99 1.095 0 1.92.435 2.445 1.065.51.615.765 1.5.72 2.535 0 .105-.075.165-.18.165h-5.295c.045.66.24 1.185.585 1.605.45.54 1.155.87 1.98.87m5.295-3.195h4.5c-.015-.645-.225-1.17-.57-1.56-.345-.405-.915-.675-1.62-.675-.78 0-1.365.285-1.755.735-.33.39-.525.945-.555 1.5m2.565 3.195c.855 0 1.56-.285 2.1-.615.12-.075.18-.045.21.015l.255.495c.03.09.015.135-.06.18-.555.36-1.53.72-2.565.72-1.125 0-2.055-.405-2.685-1.11-.555-.615-.87-1.485-.87-2.49 0-.96.33-1.83.9-2.445.555-.615 1.38-.99 2.46-.99 1.095 0 1.92.435 2.445 1.065.51.615.765 1.5.72 2.535 0 .105-.075.165-.18.165h-5.295c.045.66.24 1.185.585 1.605.45.54 1.155.87 1.98.87m5.625-4.935h.045c.465-.855 1.335-1.305 2.415-1.305.825 0 1.5.21 1.98.645.51.465.78 1.2.78 2.235v3.885c0 .075-.06.12-.135.12h-.72c-.075 0-.15-.045-.15-.12v-3.645c0-.75-.135-1.35-.525-1.74-.315-.315-.765-.495-1.425-.495-.795 0-1.41.36-1.8 1.02-.285.51-.42 1.11-.42 1.755v3.105c0 .075-.075.12-.135.12h-.735c-.075 0-.15-.045-.15-.12v-6.495c0-.075.075-.15.15-.15h.69c.075 0 .135.075.135.15zm12.255-.375v3.6c0 .48.075.87.255 1.14.195.33.54.495 1.095.495.42 0 .81-.09 1.26-.42.105-.075.165-.06.21.015l.255.54c.03.075 0 .12-.075.18-.525.36-1.185.555-1.89.555-.81 0-1.335-.24-1.65-.645-.345-.435-.465-1.05-.465-1.725v-3.735h-.81c-.06 0-.135-.075-.135-.135v-.525c0-.075.075-.15.135-.15h.81v-1.305c0-.075.075-.135.15-.135h.72c.075 0 .135.06.135.135v1.305h2.415c.075 0 .135.075.135.15v.525c0 .06-.06.135-.135.135zm8.175.84-1.695 5.01c-.045.135-.105.15-.225.15h-.765c-.12 0-.18-.03-.225-.15l-2.205-6.465c-.03-.075-.03-.195.105-.195h.75c.105 0 .18.045.21.15l1.785 5.415h.03l1.77-5.415c.03-.105.09-.15.21-.15h.57c.12 0 .18.045.21.15l1.785 5.415h.03l1.8-5.415c.03-.105.09-.15.21-.15h.69c.135 0 .135.12.105.195l-2.235 6.465c-.03.12-.09.15-.225.15h-.78c-.105 0-.18-.03-.21-.15l-1.665-5.01zm6.9 1.74c0 .75.255 1.395.69 1.89.465.495 1.125.81 1.89.81.78 0 1.44-.315 1.905-.81.435-.495.69-1.14.69-1.89 0-.72-.255-1.38-.69-1.86a2.53 2.53 0 0 0-1.905-.825c-.765 0-1.425.315-1.89.825a2.76 2.76 0 0 0-.69 1.86m-.99 0c0-1.005.375-1.875 1.005-2.49.63-.645 1.545-1.02 2.565-1.02 1.035 0 1.95.375 2.58 1.02.63.615 1.005 1.485 1.005 2.49 0 1.02-.375 1.89-1.005 2.505-.63.645-1.545 1.02-2.58 1.02-1.02 0-1.935-.375-2.565-1.02-.63-.615-1.005-1.485-1.005-2.505m13.695-2.205h.045c.465-.855 1.335-1.305 2.415-1.305.825 0 1.5.21 1.98.645.51.465.78 1.2.78 2.235v3.885c0 .075-.06.12-.135.12h-.72c-.075 0-.15-.045-.15-.12v-3.645c0-.75-.135-1.35-.525-1.74-.315-.315-.765-.495-1.425-.495-.795 0-1.41.36-1.8 1.02-.285.51-.42 1.11-.42 1.755v3.105c0 .075-.075.12-.135.12h-.735c-.075 0-.15-.045-.15-.12v-6.495c0-.075.075-.15.15-.15h.69c.075 0 .135.075.135.15zm7.185 2.73v-3.765c0-.075.075-.15.15-.15h.72c.075 0 .135.075.135.15v3.675c0 .615.09.99.285 1.365.285.48.87.84 1.8.84s1.53-.345 1.8-.84c.21-.375.285-.75.285-1.365v-3.675c0-.075.06-.15.135-.15h.735c.075 0 .135.075.135.15v3.765c0 .87-.15 1.395-.495 1.905-.45.705-1.365 1.095-2.595 1.095-1.215 0-2.13-.39-2.595-1.095-.345-.51-.495-1.035-.495-1.905m9.225-3.045h.045c.435-.645 1.11-.99 2.01-.99.555 0 1.065.135 1.47.435.345.24.63.57.795 1.02.165-.36.435-.765.87-1.065.405-.255.885-.39 1.425-.39.69 0 1.35.18 1.83.645.435.42.72 1.095.72 2.085v4.035c0 .075-.06.12-.12.12h-.75c-.075 0-.135-.045-.135-.12v-3.795c0-.72-.15-1.26-.465-1.605-.3-.33-.735-.48-1.275-.48-.615 0-1.11.255-1.44.795-.255.45-.375 1.05-.375 1.8v3.285c0 .075-.06.12-.135.12h-.735c-.075 0-.135-.045-.135-.12v-3.795c0-.72-.165-1.275-.495-1.62-.285-.315-.72-.465-1.245-.465-.6 0-1.125.24-1.44.795-.24.405-.375.945-.375 1.68v3.405c0 .075-.075.12-.135.12h-.735c-.075 0-.15-.045-.15-.12v-6.495c0-.075.075-.15.15-.15h.69c.075 0 .135.075.135.15zm11.385 5.88a.18.18 0 0 1-.15-.18v-9.885c0-.06.075-.135.15-.135h.735c.075 0 .135.075.135.135v3.645c.57-.3 1.17-.45 1.905-.45.9 0 1.755.315 2.355.96.525.57.855 1.425.855 2.55 0 .975-.27 1.74-.78 2.31-.705.825-1.89 1.215-3.18 1.215-.69 0-1.62-.045-2.025-.165m.87-5.565v4.815c.33.06.855.09 1.23.09.87 0 1.755-.255 2.31-.93.345-.42.555-.99.555-1.77 0-.9-.27-1.56-.69-1.98-.45-.465-1.065-.675-1.695-.675-.705 0-1.23.165-1.71.45m7.53 1.74h4.5c-.015-.645-.225-1.17-.57-1.56-.345-.405-.915-.675-1.62-.675-.78 0-1.365.285-1.755.735-.33.39-.525.945-.555 1.5m2.565 3.195c.855 0 1.56-.285 2.1-.615.12-.075.18-.045.21.015l.255.495c.03.09.015.135-.06.18-.555.36-1.53.72-2.565.72-1.125 0-2.055-.405-2.685-1.11-.555-.615-.87-1.485-.87-2.49 0-.96.33-1.83.9-2.445.555-.615 1.38-.99 2.46-.99 1.095 0 1.92.435 2.445 1.065.51.615.765 1.5.72 2.535 0 .105-.075.165-.18.165h-5.295c.045.66.24 1.185.585 1.605.45.54 1.155.87 1.98.87m9.225-5.685c.09.075.09.15.03.21l-.39.54c-.045.06-.105.075-.195.015-.33-.27-.705-.42-1.23-.42-.555 0-.99.27-1.29.72-.33.495-.48 1.2-.48 1.83v3.315c0 .075-.075.12-.135.12h-.735c-.075 0-.15-.045-.15-.12v-6.495c0-.075.075-.15.15-.15h.69c.075 0 .135.075.135.15v.915h.045c.345-.735 1.02-1.185 1.92-1.185.675 0 1.215.21 1.635.555m2.91 5.685c.915 0 1.485-.345 1.485-1.095 0-.585-.435-.84-1.005-1.11-.42-.195-1.125-.375-1.665-.63-.645-.3-1.11-.78-1.11-1.605 0-1.14.885-1.815 2.46-1.815.915 0 1.605.24 2.055.48.105.06.105.12.075.195l-.27.54c-.045.09-.105.105-.18.06-.51-.27-1.035-.435-1.635-.435-.96 0-1.47.33-1.47.96 0 .51.375.75.84.96.51.225 1.2.42 1.65.645.78.36 1.29.84 1.29 1.68 0 1.215-.975 1.965-2.49 1.965-1.125 0-1.89-.315-2.34-.57-.075-.045-.09-.09-.045-.165l.27-.57c.03-.09.09-.105.18-.06.51.315 1.155.57 1.905.57m5.295.45c.015.66-.465 1.32-1.08 1.56-.09.03-.15.03-.21-.045l-.105-.165c-.045-.075-.015-.135.045-.195.195-.15.42-.33.42-.57 0-.39-.495-.345-.495-.9 0-.36.255-.615.645-.615.54 0 .78.39.78.93m6.555-5.775v4.965c.465.24.885.33 1.545.33.585 0 1.29-.195 1.8-.72.42-.42.705-1.08.705-1.98 0-.84-.27-1.485-.75-1.935-.51-.495-1.245-.75-2.1-.75-.39 0-.84.03-1.2.09m-.855-.735c.525-.12 1.26-.18 1.965-.18 1.155 0 2.175.315 2.895.96.645.585 1.05 1.455 1.05 2.55 0 1.11-.345 1.92-.855 2.475-.705.75-1.695 1.05-2.565 1.05-.675 0-1.125-.075-1.635-.315v3.495c0 .075-.06.135-.135.135h-.735c-.075 0-.15-.06-.15-.135v-9.855c0-.09.06-.165.165-.18m7.68-3.375c0-.06.075-.135.15-.135h.735c.075 0 .135.075.135.135v9.945c0 .075-.06.135-.135.135h-.735c-.075 0-.15-.06-.15-.135zm3.84 6.24h4.5c-.015-.645-.225-1.17-.57-1.56-.345-.405-.915-.675-1.62-.675-.78 0-1.365.285-1.755.735-.33.39-.525.945-.555 1.5m2.565 3.195c.855 0 1.56-.285 2.1-.615.12-.075.18-.045.21.015l.255.495c.03.09.015.135-.06.18-.555.36-1.53.72-2.565.72-1.125 0-2.055-.405-2.685-1.11-.555-.615-.87-1.485-.87-2.49 0-.96.33-1.83.9-2.445.555-.615 1.38-.99 2.46-.99 1.095 0 1.92.435 2.445 1.065.51.615.765 1.5.72 2.535 0 .105-.075.165-.18.165h-5.295c.045.66.24 1.185.585 1.605.45.54 1.155.87 1.98.87m6.945.03c.615 0 1.2-.15 1.74-.465v-2.265c-1.425.03-3.525.18-3.525 1.485 0 .885.9 1.245 1.785 1.245m-2.355-5.565c.72-.465 1.65-.705 2.565-.705 1.065 0 2.535.345 2.535 2.58v4.185c0 .075-.075.12-.135.12h-.645c-.06 0-.135-.045-.135-.12v-.24h-.06c-.69.39-1.29.51-2.055.51-1.215 0-2.445-.585-2.445-1.965 0-2.01 2.745-2.16 4.47-2.265v-.225c0-1.47-.78-1.785-1.635-1.785-.84 0-1.515.285-2.085.615-.105.06-.18.045-.21-.045l-.21-.465c-.045-.09-.03-.135.045-.195m9.075 5.535c.915 0 1.485-.345 1.485-1.095 0-.585-.435-.84-1.005-1.11-.42-.195-1.125-.375-1.665-.63-.645-.3-1.11-.78-1.11-1.605 0-1.14.885-1.815 2.46-1.815.915 0 1.605.24 2.055.48.105.06.105.12.075.195l-.27.54c-.045.09-.105.105-.18.06-.51-.27-1.035-.435-1.635-.435-.96 0-1.47.33-1.47.96 0 .51.375.75.84.96.51.225 1.2.42 1.65.645.78.36 1.29.84 1.29 1.68 0 1.215-.975 1.965-2.49 1.965-1.125 0-1.89-.315-2.34-.57-.075-.045-.09-.09-.045-.165l.27-.57c.03-.09.09-.105.18-.06.51.315 1.155.57 1.905.57m4.86-3.195h4.5c-.015-.645-.225-1.17-.57-1.56-.345-.405-.915-.675-1.62-.675-.78 0-1.365.285-1.755.735-.33.39-.525.945-.555 1.5m2.565 3.195c.855 0 1.56-.285 2.1-.615.12-.075.18-.045.21.015l.255.495c.03.09.015.135-.06.18-.555.36-1.53.72-2.565.72-1.125 0-2.055-.405-2.685-1.11-.555-.615-.87-1.485-.87-2.49 0-.96.33-1.83.9-2.445.555-.615 1.38-.99 2.46-.99 1.095 0 1.92.435 2.445 1.065.51.615.765 1.5.72 2.535 0 .105-.075.165-.18.165h-5.295c.045.66.24 1.185.585 1.605.45.54 1.155.87 1.98.87m13.02-5.685c.09.075.09.15.03.21l-.39.54c-.045.06-.105.075-.195.015-.33-.27-.705-.42-1.23-.42-.555 0-.99.27-1.29.72-.33.495-.48 1.2-.48 1.83v3.315c0 .075-.075.12-.135.12h-.735c-.075 0-.15-.045-.15-.12v-6.495c0-.075.075-.15.15-.15h.69c.075 0 .135.075.135.15v.915h.045c.345-.735 1.02-1.185 1.92-1.185.675 0 1.215.21 1.635.555m1.515 2.49h4.5c-.015-.645-.225-1.17-.57-1.56-.345-.405-.915-.675-1.62-.675-.78 0-1.365.285-1.755.735-.33.39-.525.945-.555 1.5m2.565 3.195c.855 0 1.56-.285 2.1-.615.12-.075.18-.045.21.015l.255.495c.03.09.015.135-.06.18-.555.36-1.53.72-2.565.72-1.125 0-2.055-.405-2.685-1.11-.555-.615-.87-1.485-.87-2.49 0-.96.33-1.83.9-2.445.555-.615 1.38-.99 2.46-.99 1.095 0 1.92.435 2.445 1.065.51.615.765 1.5.72 2.535 0 .105-.075.165-.18.165h-5.295c.045.66.24 1.185.585 1.605.45.54 1.155.87 1.98.87m7.905-.045c.57 0 1.125-.09 1.665-.42.09-.075.165-.045.195.015l.285.525c.03.075 0 .12-.075.18-.54.36-1.32.54-2.1.54-1.125 0-2.07-.345-2.7-1.005-.585-.615-.93-1.47-.93-2.52 0-.9.285-1.665.78-2.235.675-.825 1.725-1.275 2.865-1.275.78 0 1.515.225 2.055.6.075.045.105.105.075.18l-.3.525c-.015.075-.105.09-.195.03a3 3 0 0 0-1.635-.465c-.795 0-1.53.315-2.01.885-.39.45-.615 1.05-.615 1.755 0 .81.27 1.485.72 1.95.45.48 1.11.735 1.92.735m3.78-2.685c0 .75.255 1.395.69 1.89.465.495 1.125.81 1.89.81.78 0 1.44-.315 1.905-.81.435-.495.69-1.14.69-1.89 0-.72-.255-1.38-.69-1.86a2.53 2.53 0 0 0-1.905-.825c-.765 0-1.425.315-1.89.825a2.76 2.76 0 0 0-.69 1.86m-.99 0c0-1.005.375-1.875 1.005-2.49.63-.645 1.545-1.02 2.565-1.02 1.035 0 1.95.375 2.58 1.02.63.615 1.005 1.485 1.005 2.49 0 1.02-.375 1.89-1.005 2.505-.63.645-1.545 1.02-2.58 1.02-1.02 0-1.935-.375-2.565-1.02-.63-.615-1.005-1.485-1.005-2.505m13.5-2.955c.09.075.09.15.03.21l-.39.54c-.045.06-.105.075-.195.015-.33-.27-.705-.42-1.23-.42-.555 0-.99.27-1.29.72-.33.495-.48 1.2-.48 1.83v3.315c0 .075-.075.12-.135.12h-.735c-.075 0-.15-.045-.15-.12v-6.495c0-.075.075-.15.15-.15h.69c.075 0 .135.075.135.15v.915h.045c.345-.735 1.02-1.185 1.92-1.185.675 0 1.215.21 1.635.555m4.44 5.49h1.02v-4.905a3.9 3.9 0 0 0-1.53-.285c-.84 0-1.53.375-1.965 1.02-.315.435-.465.99-.465 1.635 0 .765.225 1.335.615 1.725.54.57 1.365.81 2.325.81m1.905.84h-2.01c-1.215 0-2.295-.33-3-1.05-.54-.54-.87-1.305-.87-2.295 0-.855.225-1.635.675-2.25.585-.795 1.53-1.305 2.73-1.305.615 0 1.08.105 1.59.285v-3.465c0-.06.06-.135.135-.135h.75c.06 0 .12.075.12.135v9.945c0 .075-.06.135-.12.135m7.26-5.955v3.6c0 .48.075.87.255 1.14.195.33.54.495 1.095.495.42 0 .81-.09 1.26-.42.105-.075.165-.06.21.015l.255.54c.03.075 0 .12-.075.18-.525.36-1.185.555-1.89.555-.81 0-1.335-.24-1.65-.645-.345-.435-.465-1.05-.465-1.725v-3.735h-.81c-.06 0-.135-.075-.135-.135v-.525c0-.075.075-.15.135-.15h.81v-1.305c0-.075.075-.135.15-.135h.72c.075 0 .135.06.135.135v1.305h2.415c.075 0 .135.075.135.15v.525c0 .06-.06.135-.135.135zM378 176.92v4.515c.465-.87 1.335-1.32 2.415-1.32.81 0 1.485.195 1.95.6.54.48.81 1.23.81 2.28v3.885c0 .075-.06.12-.135.12h-.72c-.075 0-.15-.045-.15-.12v-3.645c0-.78-.15-1.395-.555-1.8-.315-.285-.75-.435-1.38-.435-.795 0-1.44.345-1.845 1.065-.27.51-.39 1.11-.39 1.695v3.12c0 .075-.06.12-.135.12h-.735c-.075 0-.15-.045-.15-.12v-9.96c0-.075.075-.135.15-.135h.735c.075 0 .135.06.135.135m7.89 6.24h4.5c-.015-.645-.225-1.17-.57-1.56-.345-.405-.915-.675-1.62-.675-.78 0-1.365.285-1.755.735-.33.39-.525.945-.555 1.5m2.565 3.195c.855 0 1.56-.285 2.1-.615.12-.075.18-.045.21.015l.255.495c.03.09.015.135-.06.18-.555.36-1.53.72-2.565.72-1.125 0-2.055-.405-2.685-1.11-.555-.615-.87-1.485-.87-2.49 0-.96.33-1.83.9-2.445.555-.615 1.38-.99 2.46-.99 1.095 0 1.92.435 2.445 1.065.51.615.765 1.5.72 2.535 0 .105-.075.165-.18.165h-5.295c.045.66.24 1.185.585 1.605.45.54 1.155.87 1.98.87m8.445-9.435c0-.06.075-.135.15-.135h.735c.075 0 .135.075.135.135v9.945c0 .075-.06.135-.135.135h-.735c-.075 0-.15-.06-.15-.135zm3.78 6.705c0 .75.255 1.395.69 1.89.465.495 1.125.81 1.89.81.78 0 1.44-.315 1.905-.81.435-.495.69-1.14.69-1.89 0-.72-.255-1.38-.69-1.86a2.53 2.53 0 0 0-1.905-.825c-.765 0-1.425.315-1.89.825a2.76 2.76 0 0 0-.69 1.86m-.99 0c0-1.005.375-1.875 1.005-2.49.63-.645 1.545-1.02 2.565-1.02 1.035 0 1.95.375 2.58 1.02.63.615 1.005 1.485 1.005 2.49 0 1.02-.375 1.89-1.005 2.505-.63.645-1.545 1.02-2.58 1.02-1.02 0-1.935-.375-2.565-1.02-.63-.615-1.005-1.485-1.005-2.505m13.035-1.74-1.695 5.01c-.045.135-.105.15-.225.15h-.765c-.12 0-.18-.03-.225-.15l-2.205-6.465c-.03-.075-.03-.195.105-.195h.75c.105 0 .18.045.21.15l1.785 5.415h.03l1.77-5.415c.03-.105.09-.15.21-.15h.57c.12 0 .18.045.21.15l1.785 5.415h.03l1.8-5.415c.03-.105.09-.15.21-.15h.69c.135 0 .135.12.105.195l-2.235 6.465c-.03.12-.09.15-.225.15h-.78c-.105 0-.18-.03-.21-.15l-1.665-5.01zm6.96 1.275h4.5c-.015-.645-.225-1.17-.57-1.56-.345-.405-.915-.675-1.62-.675-.78 0-1.365.285-1.755.735-.33.39-.525.945-.555 1.5m2.565 3.195c.855 0 1.56-.285 2.1-.615.12-.075.18-.045.21.015l.255.495c.03.09.015.135-.06.18-.555.36-1.53.72-2.565.72-1.125 0-2.055-.405-2.685-1.11-.555-.615-.87-1.485-.87-2.49 0-.96.33-1.83.9-2.445.555-.615 1.38-.99 2.46-.99 1.095 0 1.92.435 2.445 1.065.51.615.765 1.5.72 2.535 0 .105-.075.165-.18.165h-5.295c.045.66.24 1.185.585 1.605.45.54 1.155.87 1.98.87m6.555 0c.915 0 1.485-.345 1.485-1.095 0-.585-.435-.84-1.005-1.11-.42-.195-1.125-.375-1.665-.63-.645-.3-1.11-.78-1.11-1.605 0-1.14.885-1.815 2.46-1.815.915 0 1.605.24 2.055.48.105.06.105.12.075.195l-.27.54c-.045.09-.105.105-.18.06-.51-.27-1.035-.435-1.635-.435-.96 0-1.47.33-1.47.96 0 .51.375.75.84.96.51.225 1.2.42 1.65.645.78.36 1.29.84 1.29 1.68 0 1.215-.975 1.965-2.49 1.965-1.125 0-1.89-.315-2.34-.57-.075-.045-.09-.09-.045-.165l.27-.57c.03-.09.09-.105.18-.06.51.315 1.155.57 1.905.57m5.385-5.31v3.6c0 .48.075.87.255 1.14.195.33.54.495 1.095.495.42 0 .81-.09 1.26-.42.105-.075.165-.06.21.015l.255.54c.03.075 0 .12-.075.18-.525.36-1.185.555-1.89.555-.81 0-1.335-.24-1.65-.645-.345-.435-.465-1.05-.465-1.725v-3.735h-.81c-.06 0-.135-.075-.135-.135v-.525c0-.075.075-.15.135-.15h.81v-1.305c0-.075.075-.135.15-.135h.72c.075 0 .135.06.135.135v1.305h2.415c.075 0 .135.075.135.15v.525c0 .06-.06.135-.135.135zm8.835.375h.045c.465-.855 1.335-1.305 2.415-1.305.825 0 1.5.21 1.98.645.51.465.78 1.2.78 2.235v3.885c0 .075-.06.12-.135.12h-.72c-.075 0-.15-.045-.15-.12v-3.645c0-.75-.135-1.35-.525-1.74-.315-.315-.765-.495-1.425-.495-.795 0-1.41.36-1.8 1.02-.285.51-.42 1.11-.42 1.755v3.105c0 .075-.075.12-.135.12h-.735c-.075 0-.15-.045-.15-.12v-6.495c0-.075.075-.15.15-.15h.69c.075 0 .135.075.135.15zm7.185 2.73v-3.765c0-.075.075-.15.15-.15h.72c.075 0 .135.075.135.15v3.675c0 .615.09.99.285 1.365.285.48.87.84 1.8.84s1.53-.345 1.8-.84c.21-.375.285-.75.285-1.365v-3.675c0-.075.06-.15.135-.15h.735c.075 0 .135.075.135.15v3.765c0 .87-.15 1.395-.495 1.905-.45.705-1.365 1.095-2.595 1.095-1.215 0-2.13-.39-2.595-1.095-.345-.51-.495-1.035-.495-1.905m9.225-3.045h.045c.435-.645 1.11-.99 2.01-.99.555 0 1.065.135 1.47.435.345.24.63.57.795 1.02.165-.36.435-.765.87-1.065.405-.255.885-.39 1.425-.39.69 0 1.35.18 1.83.645.435.42.72 1.095.72 2.085v4.035c0 .075-.06.12-.12.12h-.75c-.075 0-.135-.045-.135-.12v-3.795c0-.72-.15-1.26-.465-1.605-.3-.33-.735-.48-1.275-.48-.615 0-1.11.255-1.44.795-.255.45-.375 1.05-.375 1.8v3.285c0 .075-.06.12-.135.12h-.735c-.075 0-.135-.045-.135-.12v-3.795c0-.72-.165-1.275-.495-1.62-.285-.315-.72-.465-1.245-.465-.6 0-1.125.24-1.44.795-.24.405-.375.945-.375 1.68v3.405c0 .075-.075.12-.135.12h-.735c-.075 0-.15-.045-.15-.12v-6.495c0-.075.075-.15.15-.15h.69c.075 0 .135.075.135.15zm11.385 5.88a.18.18 0 0 1-.15-.18v-9.885c0-.06.075-.135.15-.135h.735c.075 0 .135.075.135.135v3.645c.57-.3 1.17-.45 1.905-.45.9 0 1.755.315 2.355.96.525.57.855 1.425.855 2.55 0 .975-.27 1.74-.78 2.31-.705.825-1.89 1.215-3.18 1.215-.69 0-1.62-.045-2.025-.165m.87-5.565v4.815c.33.06.855.09 1.23.09.87 0 1.755-.255 2.31-.93.345-.42.555-.99.555-1.77 0-.9-.27-1.56-.69-1.98-.45-.465-1.065-.675-1.695-.675-.705 0-1.23.165-1.71.45m7.53 1.74h4.5c-.015-.645-.225-1.17-.57-1.56-.345-.405-.915-.675-1.62-.675-.78 0-1.365.285-1.755.735-.33.39-.525.945-.555 1.5m2.565 3.195c.855 0 1.56-.285 2.1-.615.12-.075.18-.045.21.015l.255.495c.03.09.015.135-.06.18-.555.36-1.53.72-2.565.72-1.125 0-2.055-.405-2.685-1.11-.555-.615-.87-1.485-.87-2.49 0-.96.33-1.83.9-2.445.555-.615 1.38-.99 2.46-.99 1.095 0 1.92.435 2.445 1.065.51.615.765 1.5.72 2.535 0 .105-.075.165-.18.165h-5.295c.045.66.24 1.185.585 1.605.45.54 1.155.87 1.98.87m9.225-5.685c.09.075.09.15.03.21l-.39.54c-.045.06-.105.075-.195.015-.33-.27-.705-.42-1.23-.42-.555 0-.99.27-1.29.72-.33.495-.48 1.2-.48 1.83v3.315c0 .075-.075.12-.135.12h-.735c-.075 0-.15-.045-.15-.12v-6.495c0-.075.075-.15.15-.15h.69c.075 0 .135.075.135.15v.915h.045c.345-.735 1.02-1.185 1.92-1.185.675 0 1.215.21 1.635.555m1.14 5.835c0 .36-.285.645-.63.645a.63.63 0 0 1-.645-.645c0-.36.27-.63.645-.63.345 0 .63.27.63.63m-469.89 11.28h.825c.075 0 .135.075.135.135v9.945c0 .075-.06.135-.135.135h-.825a.134.134 0 0 1-.135-.135v-9.945c0-.06.06-.135.135-.135m5.76.735c-.42 0-.705.135-.9.375-.255.285-.345.75-.345 1.335v1.005h2.07c.075 0 .15.075.15.15v.525c0 .06-.075.135-.15.135h-2.07v5.82c0 .075-.045.135-.12.135h-.75c-.06 0-.135-.06-.135-.135v-5.82h-.87c-.075 0-.135-.075-.135-.135v-.525c0-.075.06-.15.135-.15h.87v-1.095c0-.78.165-1.5.6-1.95.33-.33.795-.525 1.455-.525.81 0 1.515.27 1.98.63.06.045.09.12.06.18l-.255.525c-.045.075-.15.09-.225.03-.435-.33-.885-.51-1.365-.51m7.41 3.525v3.6c0 .48.075.87.255 1.14.195.33.54.495 1.095.495.42 0 .81-.09 1.26-.42.105-.075.165-.06.21.015l.255.54c.03.075 0 .12-.075.18-.525.36-1.185.555-1.89.555-.81 0-1.335-.24-1.65-.645-.345-.435-.465-1.05-.465-1.725v-3.735h-.81c-.06 0-.135-.075-.135-.135v-.525c0-.075.075-.15.135-.15h.81v-1.305c0-.075.075-.135.15-.135h.72c.075 0 .135.06.135.135v1.305h2.415c.075 0 .135.075.135.15v.525c0 .06-.06.135-.135.135zm5.085-4.125v4.515c.465-.87 1.335-1.32 2.415-1.32.81 0 1.485.195 1.95.6.54.48.81 1.23.81 2.28v3.885c0 .075-.06.12-.135.12h-.72c-.075 0-.15-.045-.15-.12v-3.645c0-.78-.15-1.395-.555-1.8-.315-.285-.75-.435-1.38-.435-.795 0-1.44.345-1.845 1.065-.27.51-.39 1.11-.39 1.695v3.12c0 .075-.06.12-.135.12h-.735c-.075 0-.15-.045-.15-.12v-9.96c0-.075.075-.135.15-.135h.735c.075 0 .135.06.135.135m7.89 6.24h4.5c-.015-.645-.225-1.17-.57-1.56-.345-.405-.915-.675-1.62-.675-.78 0-1.365.285-1.755.735-.33.39-.525.945-.555 1.5m2.565 3.195c.855 0 1.56-.285 2.1-.615.12-.075.18-.045.21.015l.255.495c.03.09.015.135-.06.18-.555.36-1.53.72-2.565.72-1.125 0-2.055-.405-2.685-1.11-.555-.615-.87-1.485-.87-2.49 0-.96.33-1.83.9-2.445.555-.615 1.38-.99 2.46-.99 1.095 0 1.92.435 2.445 1.065.51.615.765 1.5.72 2.535 0 .105-.075.165-.18.165h-5.295c.045.66.24 1.185.585 1.605.45.54 1.155.87 1.98.87m12.015-.195h1.02v-4.905a3.9 3.9 0 0 0-1.53-.285c-.84 0-1.53.375-1.965 1.02-.315.435-.465.99-.465 1.635 0 .765.225 1.335.615 1.725.54.57 1.365.81 2.325.81m1.905.84h-2.01c-1.215 0-2.295-.33-3-1.05-.54-.54-.87-1.305-.87-2.295 0-.855.225-1.635.675-2.25.585-.795 1.53-1.305 2.73-1.305.615 0 1.08.105 1.59.285v-3.465c0-.06.06-.135.135-.135h.75c.06 0 .12.075.12.135v9.945c0 .075-.06.135-.12.135m2.295-6.615c0-.075.075-.15.15-.15h.735c.075 0 .135.075.135.15v6.48c0 .075-.06.135-.135.135h-.735c-.075 0-.15-.06-.15-.135zm.51-2.775a.62.62 0 0 1-.615-.615c0-.33.27-.6.615-.6.33 0 .6.27.6.6s-.27.615-.6.615m4.98 8.775c.615 0 1.2-.15 1.74-.465v-2.265c-1.425.03-3.525.18-3.525 1.485 0 .885.9 1.245 1.785 1.245m-2.355-5.565c.72-.465 1.65-.705 2.565-.705 1.065 0 2.535.345 2.535 2.58v4.185c0 .075-.075.12-.135.12h-.645c-.06 0-.135-.045-.135-.12v-.24h-.06c-.69.39-1.29.51-2.055.51-1.215 0-2.445-.585-2.445-1.965 0-2.01 2.745-2.16 4.47-2.265v-.225c0-1.47-.78-1.785-1.635-1.785-.84 0-1.515.285-2.085.615-.105.06-.18.045-.21-.045l-.21-.465c-.045-.09-.03-.135.045-.195m7.17-3.9c0-.06.075-.135.15-.135h.735c.075 0 .135.075.135.135v9.945c0 .075-.06.135-.135.135h-.735c-.075 0-.15-.06-.15-.135zm8.01 0v4.515c.465-.87 1.335-1.32 2.415-1.32.81 0 1.485.195 1.95.6.54.48.81 1.23.81 2.28v3.885c0 .075-.06.12-.135.12h-.72c-.075 0-.15-.045-.15-.12v-3.645c0-.78-.15-1.395-.555-1.8-.315-.285-.75-.435-1.38-.435-.795 0-1.44.345-1.845 1.065-.27.51-.39 1.11-.39 1.695v3.12c0 .075-.06.12-.135.12h-.735c-.075 0-.15-.045-.15-.12v-9.96c0-.075.075-.135.15-.135h.735c.075 0 .135.06.135.135m9.54 9.465c.615 0 1.2-.15 1.74-.465v-2.265c-1.425.03-3.525.18-3.525 1.485 0 .885.9 1.245 1.785 1.245m-2.355-5.565c.72-.465 1.65-.705 2.565-.705 1.065 0 2.535.345 2.535 2.58v4.185c0 .075-.075.12-.135.12h-.645c-.06 0-.135-.045-.135-.12v-.24h-.06c-.69.39-1.29.51-2.055.51-1.215 0-2.445-.585-2.445-1.965 0-2.01 2.745-2.16 4.47-2.265v-.225c0-1.47-.78-1.785-1.635-1.785-.84 0-1.515.285-2.085.615-.105.06-.18.045-.21-.045l-.21-.465c-.045-.09-.03-.135.045-.195m8.145.6h.045c.465-.855 1.335-1.305 2.415-1.305.825 0 1.5.21 1.98.645.51.465.78 1.2.78 2.235v3.885c0 .075-.06.12-.135.12h-.72c-.075 0-.15-.045-.15-.12v-3.645c0-.75-.135-1.35-.525-1.74-.315-.315-.765-.495-1.425-.495-.795 0-1.41.36-1.8 1.02-.285.51-.42 1.11-.42 1.755v3.105c0 .075-.075.12-.135.12h-.735c-.075 0-.15-.045-.15-.12v-6.495c0-.075.075-.15.15-.15h.69c.075 0 .135.075.135.15zm10.86 4.74h1.02v-4.905a3.9 3.9 0 0 0-1.53-.285c-.84 0-1.53.375-1.965 1.02-.315.435-.465.99-.465 1.635 0 .765.225 1.335.615 1.725.54.57 1.365.81 2.325.81m1.905.84h-2.01c-1.215 0-2.295-.33-3-1.05-.54-.54-.87-1.305-.87-2.295 0-.855.225-1.635.675-2.25.585-.795 1.53-1.305 2.73-1.305.615 0 1.08.105 1.59.285v-3.465c0-.06.06-.135.135-.135h.75c.06 0 .12.075.12.135v9.945c0 .075-.06.135-.12.135m6.09-6.615c0-.075.075-.15.15-.15h.735c.075 0 .135.075.135.15v6.48c0 .075-.06.135-.135.135h-.735c-.075 0-.15-.06-.15-.135zm.51-2.775a.62.62 0 0 1-.615-.615c0-.33.27-.6.615-.6.33 0 .6.27.6.6s-.27.615-.6.615m4.59 8.745c.915 0 1.485-.345 1.485-1.095 0-.585-.435-.84-1.005-1.11-.42-.195-1.125-.375-1.665-.63-.645-.3-1.11-.78-1.11-1.605 0-1.14.885-1.815 2.46-1.815.915 0 1.605.24 2.055.48.105.06.105.12.075.195l-.27.54c-.045.09-.105.105-.18.06-.51-.27-1.035-.435-1.635-.435-.96 0-1.47.33-1.47.96 0 .51.375.75.84.96.51.225 1.2.42 1.65.645.78.36 1.29.84 1.29 1.68 0 1.215-.975 1.965-2.49 1.965-1.125 0-1.89-.315-2.34-.57-.075-.045-.09-.09-.045-.165l.27-.57c.03-.09.09-.105.18-.06.51.315 1.155.57 1.905.57m8.16.63a.18.18 0 0 1-.15-.18v-9.885c0-.06.075-.135.15-.135h.735c.075 0 .135.075.135.135v3.645c.57-.3 1.17-.45 1.905-.45.9 0 1.755.315 2.355.96.525.57.855 1.425.855 2.55 0 .975-.27 1.74-.78 2.31-.705.825-1.89 1.215-3.18 1.215-.69 0-1.62-.045-2.025-.165m.87-5.565v4.815c.33.06.855.09 1.23.09.87 0 1.755-.255 2.31-.93.345-.42.555-.99.555-1.77 0-.9-.27-1.56-.69-1.98-.45-.465-1.065-.675-1.695-.675-.705 0-1.23.165-1.71.45m7.53 1.74h4.5c-.015-.645-.225-1.17-.57-1.56-.345-.405-.915-.675-1.62-.675-.78 0-1.365.285-1.755.735-.33.39-.525.945-.555 1.5m2.565 3.195c.855 0 1.56-.285 2.1-.615.12-.075.18-.045.21.015l.255.495c.03.09.015.135-.06.18-.555.36-1.53.72-2.565.72-1.125 0-2.055-.405-2.685-1.11-.555-.615-.87-1.485-.87-2.49 0-.96.33-1.83.9-2.445.555-.615 1.38-.99 2.46-.99 1.095 0 1.92.435 2.445 1.065.51.615.765 1.5.72 2.535 0 .105-.075.165-.18.165h-5.295c.045.66.24 1.185.585 1.605.45.54 1.155.87 1.98.87m5.82-5.31v3.6c0 .48.075.87.255 1.14.195.33.54.495 1.095.495.42 0 .81-.09 1.26-.42.105-.075.165-.06.21.015l.255.54c.03.075 0 .12-.075.18-.525.36-1.185.555-1.89.555-.81 0-1.335-.24-1.65-.645-.345-.435-.465-1.05-.465-1.725v-3.735h-.81c-.06 0-.135-.075-.135-.135v-.525c0-.075.075-.15.135-.15h.81v-1.305c0-.075.075-.135.15-.135h.72c.075 0 .135.06.135.135v1.305h2.415c.075 0 .135.075.135.15v.525c0 .06-.06.135-.135.135zm8.175.84-1.695 5.01c-.045.135-.105.15-.225.15h-.765c-.12 0-.18-.03-.225-.15l-2.205-6.465c-.03-.075-.03-.195.105-.195h.75c.105 0 .18.045.21.15l1.785 5.415h.03l1.77-5.415c.03-.105.09-.15.21-.15h.57c.12 0 .18.045.21.15l1.785 5.415h.03l1.8-5.415c.03-.105.09-.15.21-.15h.69c.135 0 .135.12.105.195l-2.235 6.465c-.03.12-.09.15-.225.15h-.78c-.105 0-.18-.03-.21-.15l-1.665-5.01zm6.96 1.275h4.5c-.015-.645-.225-1.17-.57-1.56-.345-.405-.915-.675-1.62-.675-.78 0-1.365.285-1.755.735-.33.39-.525.945-.555 1.5m2.565 3.195c.855 0 1.56-.285 2.1-.615.12-.075.18-.045.21.015l.255.495c.03.09.015.135-.06.18-.555.36-1.53.72-2.565.72-1.125 0-2.055-.405-2.685-1.11-.555-.615-.87-1.485-.87-2.49 0-.96.33-1.83.9-2.445.555-.615 1.38-.99 2.46-.99 1.095 0 1.92.435 2.445 1.065.51.615.765 1.5.72 2.535 0 .105-.075.165-.18.165h-5.295c.045.66.24 1.185.585 1.605.45.54 1.155.87 1.98.87m5.295-3.195h4.5c-.015-.645-.225-1.17-.57-1.56-.345-.405-.915-.675-1.62-.675-.78 0-1.365.285-1.755.735-.33.39-.525.945-.555 1.5m2.565 3.195c.855 0 1.56-.285 2.1-.615.12-.075.18-.045.21.015l.255.495c.03.09.015.135-.06.18-.555.36-1.53.72-2.565.72-1.125 0-2.055-.405-2.685-1.11-.555-.615-.87-1.485-.87-2.49 0-.96.33-1.83.9-2.445.555-.615 1.38-.99 2.46-.99 1.095 0 1.92.435 2.445 1.065.51.615.765 1.5.72 2.535 0 .105-.075.165-.18.165h-5.295c.045.66.24 1.185.585 1.605.45.54 1.155.87 1.98.87m5.625-4.935h.045c.465-.855 1.335-1.305 2.415-1.305.825 0 1.5.21 1.98.645.51.465.78 1.2.78 2.235v3.885c0 .075-.06.12-.135.12h-.72c-.075 0-.15-.045-.15-.12v-3.645c0-.75-.135-1.35-.525-1.74-.315-.315-.765-.495-1.425-.495-.795 0-1.41.36-1.8 1.02-.285.51-.42 1.11-.42 1.755v3.105c0 .075-.075.12-.135.12h-.735c-.075 0-.15-.045-.15-.12v-6.495c0-.075.075-.15.15-.15h.69c.075 0 .135.075.135.15zm13.92 4.785c2.415 0 2.85-2.76 2.895-4.5-.48.75-1.29 1.41-2.58 1.41-1.95 0-3.18-1.215-3.18-3.18 0-1.935 1.335-3.27 3.3-3.27 2.46 0 3.57 1.92 3.57 4.785 0 2.025-.525 5.7-3.99 5.7-.87 0-1.845-.15-2.625-.63-.09-.045-.075-.105-.045-.18l.315-.645c.045-.09.105-.075.195-.03.66.375 1.335.54 2.145.54m2.91-5.61c-.135-1.86-.915-2.985-2.475-2.985-1.38 0-2.235.99-2.235 2.295 0 1.41.825 2.265 2.235 2.265 1.125 0 1.98-.66 2.475-1.575m9.345 5.79c.615 0 1.2-.15 1.74-.465v-2.265c-1.425.03-3.525.18-3.525 1.485 0 .885.9 1.245 1.785 1.245m-2.355-5.565c.72-.465 1.65-.705 2.565-.705 1.065 0 2.535.345 2.535 2.58v4.185c0 .075-.075.12-.135.12h-.645c-.06 0-.135-.045-.135-.12v-.24h-.06c-.69.39-1.29.51-2.055.51-1.215 0-2.445-.585-2.445-1.965 0-2.01 2.745-2.16 4.47-2.265v-.225c0-1.47-.78-1.785-1.635-1.785-.84 0-1.515.285-2.085.615-.105.06-.18.045-.21-.045l-.21-.465c-.045-.09-.03-.135.045-.195m8.145.6h.045c.465-.855 1.335-1.305 2.415-1.305.825 0 1.5.21 1.98.645.51.465.78 1.2.78 2.235v3.885c0 .075-.06.12-.135.12h-.72c-.075 0-.15-.045-.15-.12v-3.645c0-.75-.135-1.35-.525-1.74-.315-.315-.765-.495-1.425-.495-.795 0-1.41.36-1.8 1.02-.285.51-.42 1.11-.42 1.755v3.105c0 .075-.075.12-.135.12h-.735c-.075 0-.15-.045-.15-.12v-6.495c0-.075.075-.15.15-.15h.69c.075 0 .135.075.135.15zm10.86 4.74h1.02v-4.905a3.9 3.9 0 0 0-1.53-.285c-.84 0-1.53.375-1.965 1.02-.315.435-.465.99-.465 1.635 0 .765.225 1.335.615 1.725.54.57 1.365.81 2.325.81m1.905.84h-2.01c-1.215 0-2.295-.33-3-1.05-.54-.54-.87-1.305-.87-2.295 0-.855.225-1.635.675-2.25.585-.795 1.53-1.305 2.73-1.305.615 0 1.08.105 1.59.285v-3.465c0-.06.06-.135.135-.135h.75c.06 0 .12.075.12.135v9.945c0 .075-.06.135-.12.135m13.29-5.1c0 3.45-1.32 5.25-3.78 5.25s-3.795-1.8-3.795-5.25 1.335-5.25 3.795-5.25 3.78 1.8 3.78 5.25m-1.11 0c0-1.44-.225-2.505-.69-3.225-.45-.69-1.125-1.02-1.98-1.02-.87 0-1.545.345-1.995 1.02-.465.72-.72 1.8-.72 3.225 0 1.44.255 2.535.72 3.225.45.69 1.11 1.02 1.995 1.02.855 0 1.515-.33 1.98-1.02.465-.705.69-1.77.69-3.225m3.99 4.905c.015.66-.465 1.32-1.08 1.56-.09.03-.15.03-.21-.045l-.105-.165c-.045-.075-.015-.135.045-.195.195-.15.42-.33.42-.57 0-.39-.495-.345-.495-.9 0-.36.255-.615.645-.615.54 0 .78.39.78.93m6.705-5.76v3.6c0 .48.075.87.255 1.14.195.33.54.495 1.095.495.42 0 .81-.09 1.26-.42.105-.075.165-.06.21.015l.255.54c.03.075 0 .12-.075.18-.525.36-1.185.555-1.89.555-.81 0-1.335-.24-1.65-.645-.345-.435-.465-1.05-.465-1.725v-3.735h-.81c-.06 0-.135-.075-.135-.135v-.525c0-.075.075-.15.135-.15h.81v-1.305c0-.075.075-.135.15-.135h.72c.075 0 .135.06.135.135v1.305h2.415c.075 0 .135.075.135.15v.525c0 .06-.06.135-.135.135zm5.085-4.125v4.515c.465-.87 1.335-1.32 2.415-1.32.81 0 1.485.195 1.95.6.54.48.81 1.23.81 2.28v3.885c0 .075-.06.12-.135.12h-.72c-.075 0-.15-.045-.15-.12v-3.645c0-.78-.15-1.395-.555-1.8-.315-.285-.75-.435-1.38-.435-.795 0-1.44.345-1.845 1.065-.27.51-.39 1.11-.39 1.695v3.12c0 .075-.06.12-.135.12h-.735c-.075 0-.15-.045-.15-.12v-9.96c0-.075.075-.135.15-.135h.735c.075 0 .135.06.135.135m7.89 6.24h4.5c-.015-.645-.225-1.17-.57-1.56-.345-.405-.915-.675-1.62-.675-.78 0-1.365.285-1.755.735-.33.39-.525.945-.555 1.5m2.565 3.195c.855 0 1.56-.285 2.1-.615.12-.075.18-.045.21.015l.255.495c.03.09.015.135-.06.18-.555.36-1.53.72-2.565.72-1.125 0-2.055-.405-2.685-1.11-.555-.615-.87-1.485-.87-2.49 0-.96.33-1.83.9-2.445.555-.615 1.38-.99 2.46-.99 1.095 0 1.92.435 2.445 1.065.51.615.765 1.5.72 2.535 0 .105-.075.165-.18.165h-5.295c.045.66.24 1.185.585 1.605.45.54 1.155.87 1.98.87m5.625-4.935h.045c.465-.855 1.335-1.305 2.415-1.305.825 0 1.5.21 1.98.645.51.465.78 1.2.78 2.235v3.885c0 .075-.06.12-.135.12h-.72c-.075 0-.15-.045-.15-.12v-3.645c0-.75-.135-1.35-.525-1.74-.315-.315-.765-.495-1.425-.495-.795 0-1.41.36-1.8 1.02-.285.51-.42 1.11-.42 1.755v3.105c0 .075-.075.12-.135.12h-.735c-.075 0-.15-.045-.15-.12v-6.495c0-.075.075-.15.15-.15h.69c.075 0 .135.075.135.15zm13.92 4.785c2.415 0 2.85-2.76 2.895-4.5-.48.75-1.29 1.41-2.58 1.41-1.95 0-3.18-1.215-3.18-3.18 0-1.935 1.335-3.27 3.3-3.27 2.46 0 3.57 1.92 3.57 4.785 0 2.025-.525 5.7-3.99 5.7-.87 0-1.845-.15-2.625-.63-.09-.045-.075-.105-.045-.18l.315-.645c.045-.09.105-.075.195-.03.66.375 1.335.54 2.145.54m2.91-5.61c-.135-1.86-.915-2.985-2.475-2.985-1.38 0-2.235.99-2.235 2.295 0 1.41.825 2.265 2.235 2.265 1.125 0 1.98-.66 2.475-1.575m7.05-.21c0-.075.075-.15.15-.15h.735c.075 0 .135.075.135.15v6.48c0 .075-.06.135-.135.135h-.735c-.075 0-.15-.06-.15-.135zm.51-2.775a.62.62 0 0 1-.615-.615c0-.33.27-.6.615-.6.33 0 .6.27.6.6s-.27.615-.6.615m4.59 8.745c.915 0 1.485-.345 1.485-1.095 0-.585-.435-.84-1.005-1.11-.42-.195-1.125-.375-1.665-.63-.645-.3-1.11-.78-1.11-1.605 0-1.14.885-1.815 2.46-1.815.915 0 1.605.24 2.055.48.105.06.105.12.075.195l-.27.54c-.045.09-.105.105-.18.06-.51-.27-1.035-.435-1.635-.435-.96 0-1.47.33-1.47.96 0 .51.375.75.84.96.51.225 1.2.42 1.65.645.78.36 1.29.84 1.29 1.68 0 1.215-.975 1.965-2.49 1.965-1.125 0-1.89-.315-2.34-.57-.075-.045-.09-.09-.045-.165l.27-.57c.03-.09.09-.105.18-.06.51.315 1.155.57 1.905.57m9.18-5.31v3.6c0 .48.075.87.255 1.14.195.33.54.495 1.095.495.42 0 .81-.09 1.26-.42.105-.075.165-.06.21.015l.255.54c.03.075 0 .12-.075.18-.525.36-1.185.555-1.89.555-.81 0-1.335-.24-1.65-.645-.345-.435-.465-1.05-.465-1.725v-3.735h-.81c-.06 0-.135-.075-.135-.135v-.525c0-.075.075-.15.135-.15h.81v-1.305c0-.075.075-.135.15-.135h.72c.075 0 .135.06.135.135v1.305h2.415c.075 0 .135.075.135.15v.525c0 .06-.06.135-.135.135zm5.085-4.125v4.515c.465-.87 1.335-1.32 2.415-1.32.81 0 1.485.195 1.95.6.54.48.81 1.23.81 2.28v3.885c0 .075-.06.12-.135.12h-.72c-.075 0-.15-.045-.15-.12v-3.645c0-.78-.15-1.395-.555-1.8-.315-.285-.75-.435-1.38-.435-.795 0-1.44.345-1.845 1.065-.27.51-.39 1.11-.39 1.695v3.12c0 .075-.06.12-.135.12h-.735c-.075 0-.15-.045-.15-.12v-9.96c0-.075.075-.135.15-.135h.735c.075 0 .135.06.135.135m7.89 6.24h4.5c-.015-.645-.225-1.17-.57-1.56-.345-.405-.915-.675-1.62-.675-.78 0-1.365.285-1.755.735-.33.39-.525.945-.555 1.5m2.565 3.195c.855 0 1.56-.285 2.1-.615.12-.075.18-.045.21.015l.255.495c.03.09.015.135-.06.18-.555.36-1.53.72-2.565.72-1.125 0-2.055-.405-2.685-1.11-.555-.615-.87-1.485-.87-2.49 0-.96.33-1.83.9-2.445.555-.615 1.38-.99 2.46-.99 1.095 0 1.92.435 2.445 1.065.51.615.765 1.5.72 2.535 0 .105-.075.165-.18.165h-5.295c.045.66.24 1.185.585 1.605.45.54 1.155.87 1.98.87m8.445-9.435c0-.06.075-.135.15-.135h.735c.075 0 .135.075.135.135v9.945c0 .075-.06.135-.135.135h-.735c-.075 0-.15-.06-.15-.135zm3.78 6.705c0 .75.255 1.395.69 1.89.465.495 1.125.81 1.89.81.78 0 1.44-.315 1.905-.81.435-.495.69-1.14.69-1.89 0-.72-.255-1.38-.69-1.86a2.53 2.53 0 0 0-1.905-.825c-.765 0-1.425.315-1.89.825a2.76 2.76 0 0 0-.69 1.86m-.99 0c0-1.005.375-1.875 1.005-2.49.63-.645 1.545-1.02 2.565-1.02 1.035 0 1.95.375 2.58 1.02.63.615 1.005 1.485 1.005 2.49 0 1.02-.375 1.89-1.005 2.505-.63.645-1.545 1.02-2.58 1.02-1.02 0-1.935-.375-2.565-1.02-.63-.615-1.005-1.485-1.005-2.505m13.035-1.74-1.695 5.01c-.045.135-.105.15-.225.15h-.765c-.12 0-.18-.03-.225-.15l-2.205-6.465c-.03-.075-.03-.195.105-.195h.75c.105 0 .18.045.21.15l1.785 5.415h.03l1.77-5.415c.03-.105.09-.15.21-.15h.57c.12 0 .18.045.21.15l1.785 5.415h.03l1.8-5.415c.03-.105.09-.15.21-.15h.69c.135 0 .135.12.105.195l-2.235 6.465c-.03.12-.09.15-.225.15h-.78c-.105 0-.18-.03-.21-.15l-1.665-5.01zm6.96 1.275h4.5c-.015-.645-.225-1.17-.57-1.56-.345-.405-.915-.675-1.62-.675-.78 0-1.365.285-1.755.735-.33.39-.525.945-.555 1.5m2.565 3.195c.855 0 1.56-.285 2.1-.615.12-.075.18-.045.21.015l.255.495c.03.09.015.135-.06.18-.555.36-1.53.72-2.565.72-1.125 0-2.055-.405-2.685-1.11-.555-.615-.87-1.485-.87-2.49 0-.96.33-1.83.9-2.445.555-.615 1.38-.99 2.46-.99 1.095 0 1.92.435 2.445 1.065.51.615.765 1.5.72 2.535 0 .105-.075.165-.18.165h-5.295c.045.66.24 1.185.585 1.605.45.54 1.155.87 1.98.87m9.225-5.685c.09.075.09.15.03.21l-.39.54c-.045.06-.105.075-.195.015-.33-.27-.705-.42-1.23-.42-.555 0-.99.27-1.29.72-.33.495-.48 1.2-.48 1.83v3.315c0 .075-.075.12-.135.12h-.735c-.075 0-.15-.045-.15-.12v-6.495c0-.075.075-.15.15-.15h.69c.075 0 .135.075.135.15v.915h.045c.345-.735 1.02-1.185 1.92-1.185.675 0 1.215.21 1.635.555m5.775.75h.045c.465-.855 1.335-1.305 2.415-1.305.825 0 1.5.21 1.98.645.51.465.78 1.2.78 2.235v3.885c0 .075-.06.12-.135.12h-.72c-.075 0-.15-.045-.15-.12v-3.645c0-.75-.135-1.35-.525-1.74-.315-.315-.765-.495-1.425-.495-.795 0-1.41.36-1.8 1.02-.285.51-.42 1.11-.42 1.755v3.105c0 .075-.075.12-.135.12h-.735c-.075 0-.15-.045-.15-.12v-6.495c0-.075.075-.15.15-.15h.69c.075 0 .135.075.135.15zm7.185 2.73v-3.765c0-.075.075-.15.15-.15h.72c.075 0 .135.075.135.15v3.675c0 .615.09.99.285 1.365.285.48.87.84 1.8.84s1.53-.345 1.8-.84c.21-.375.285-.75.285-1.365v-3.675c0-.075.06-.15.135-.15h.735c.075 0 .135.075.135.15v3.765c0 .87-.15 1.395-.495 1.905-.45.705-1.365 1.095-2.595 1.095-1.215 0-2.13-.39-2.595-1.095-.345-.51-.495-1.035-.495-1.905m9.225-3.045h.045c.435-.645 1.11-.99 2.01-.99.555 0 1.065.135 1.47.435.345.24.63.57.795 1.02.165-.36.435-.765.87-1.065.405-.255.885-.39 1.425-.39.69 0 1.35.18 1.83.645.435.42.72 1.095.72 2.085v4.035c0 .075-.06.12-.12.12h-.75c-.075 0-.135-.045-.135-.12v-3.795c0-.72-.15-1.26-.465-1.605-.3-.33-.735-.48-1.275-.48-.615 0-1.11.255-1.44.795-.255.45-.375 1.05-.375 1.8v3.285c0 .075-.06.12-.135.12h-.735c-.075 0-.135-.045-.135-.12v-3.795c0-.72-.165-1.275-.495-1.62-.285-.315-.72-.465-1.245-.465-.6 0-1.125.24-1.44.795-.24.405-.375.945-.375 1.68v3.405c0 .075-.075.12-.135.12h-.735c-.075 0-.15-.045-.15-.12v-6.495c0-.075.075-.15.15-.15h.69c.075 0 .135.075.135.15zm11.385 5.88a.18.18 0 0 1-.15-.18v-9.885c0-.06.075-.135.15-.135h.735c.075 0 .135.075.135.135v3.645c.57-.3 1.17-.45 1.905-.45.9 0 1.755.315 2.355.96.525.57.855 1.425.855 2.55 0 .975-.27 1.74-.78 2.31-.705.825-1.89 1.215-3.18 1.215-.69 0-1.62-.045-2.025-.165m.87-5.565v4.815c.33.06.855.09 1.23.09.87 0 1.755-.255 2.31-.93.345-.42.555-.99.555-1.77 0-.9-.27-1.56-.69-1.98-.45-.465-1.065-.675-1.695-.675-.705 0-1.23.165-1.71.45m7.53 1.74h4.5c-.015-.645-.225-1.17-.57-1.56-.345-.405-.915-.675-1.62-.675-.78 0-1.365.285-1.755.735-.33.39-.525.945-.555 1.5m2.565 3.195c.855 0 1.56-.285 2.1-.615.12-.075.18-.045.21.015l.255.495c.03.09.015.135-.06.18-.555.36-1.53.72-2.565.72-1.125 0-2.055-.405-2.685-1.11-.555-.615-.87-1.485-.87-2.49 0-.96.33-1.83.9-2.445.555-.615 1.38-.99 2.46-.99 1.095 0 1.92.435 2.445 1.065.51.615.765 1.5.72 2.535 0 .105-.075.165-.18.165h-5.295c.045.66.24 1.185.585 1.605.45.54 1.155.87 1.98.87m9.225-5.685c.09.075.09.15.03.21l-.39.54c-.045.06-.105.075-.195.015-.33-.27-.705-.42-1.23-.42-.555 0-.99.27-1.29.72-.33.495-.48 1.2-.48 1.83v3.315c0 .075-.075.12-.135.12h-.735c-.075 0-.15-.045-.15-.12v-6.495c0-.075.075-.15.15-.15h.69c.075 0 .135.075.135.15v.915h.045c.345-.735 1.02-1.185 1.92-1.185.675 0 1.215.21 1.635.555m1.14 5.835c0 .36-.285.645-.63.645a.63.63 0 0 1-.645-.645c0-.36.27-.63.645-.63.345 0 .63.27.63.63M32.325 3.92v9.945c0 .075-.06.135-.12.135h-.81a.134.134 0 0 1-.135-.135v-8.16l-3.495 5.715c-.06.105-.12.135-.225.135h-.6c-.105 0-.15-.03-.225-.135L23.19 5.705v8.16c0 .075-.06.135-.12.135h-.81a.134.134 0 0 1-.135-.135V3.92c0-.06.06-.135.135-.135h.855c.12 0 .18.015.255.15l3.855 6.36 3.855-6.36c.075-.135.135-.15.255-.15h.87c.06 0 .12.075.12.135m4.5 9.465c.615 0 1.2-.15 1.74-.465v-2.265c-1.425.03-3.525.18-3.525 1.485 0 .885.9 1.245 1.785 1.245M34.47 7.82c.72-.465 1.65-.705 2.565-.705 1.065 0 2.535.345 2.535 2.58v4.185c0 .075-.075.12-.135.12h-.645c-.06 0-.135-.045-.135-.12v-.24h-.06c-.69.39-1.29.51-2.055.51-1.215 0-2.445-.585-2.445-1.965 0-2.01 2.745-2.16 4.47-2.265v-.225c0-1.47-.78-1.785-1.635-1.785-.84 0-1.515.285-2.085.615-.105.06-.18.045-.21-.045l-.21-.465c-.045-.09-.03-.135.045-.195m13.05-.39-2.715 6.93c-.375.945-.795 1.695-1.29 2.235-.615.6-1.365.915-2.37.885-.075 0-.12-.045-.12-.12v-.75c0-.06.06-.105.12-.105l.285.015c.57 0 1.035-.24 1.44-.705.3-.36.585-.825.84-1.41L40.635 7.43c-.03-.075-.03-.195.105-.195h.9c.12 0 .165.045.21.15l2.385 5.76 2.145-5.76c.03-.105.105-.15.21-.15h.825c.135 0 .135.12.105.195m5.955.99h.045c.465-.855 1.335-1.305 2.415-1.305.825 0 1.5.21 1.98.645.51.465.78 1.2.78 2.235v3.885c0 .075-.06.12-.135.12h-.72c-.075 0-.15-.045-.15-.12v-3.645c0-.75-.135-1.35-.525-1.74C56.85 8.18 56.4 8 55.74 8c-.795 0-1.41.36-1.8 1.02-.285.51-.42 1.11-.42 1.755v3.105c0 .075-.075.12-.135.12h-.735c-.075 0-.15-.045-.15-.12V7.385c0-.075.075-.15.15-.15h.69c.075 0 .135.075.135.15zm7.875 2.205c0 .75.255 1.395.69 1.89.465.495 1.125.81 1.89.81.78 0 1.44-.315 1.905-.81.435-.495.69-1.14.69-1.89 0-.72-.255-1.38-.69-1.86a2.53 2.53 0 0 0-1.905-.825c-.765 0-1.425.315-1.89.825a2.76 2.76 0 0 0-.69 1.86m-.99 0c0-1.005.375-1.875 1.005-2.49.63-.645 1.545-1.02 2.565-1.02 1.035 0 1.95.375 2.58 1.02.63.615 1.005 1.485 1.005 2.49 0 1.02-.375 1.89-1.005 2.505-.63.645-1.545 1.02-2.58 1.02-1.02 0-1.935-.375-2.565-1.02-.63-.615-1.005-1.485-1.005-2.505m10.095-2.58v3.6c0 .48.075.87.255 1.14.195.33.54.495 1.095.495.42 0 .81-.09 1.26-.42.105-.075.165-.06.21.015l.255.54c.03.075 0 .12-.075.18-.525.36-1.185.555-1.89.555-.81 0-1.335-.24-1.65-.645-.345-.435-.465-1.05-.465-1.725V8.045h-.81c-.06 0-.135-.075-.135-.135v-.525c0-.075.075-.15.135-.15h.81V5.93c0-.075.075-.135.15-.135h.72c.075 0 .135.06.135.135v1.305h2.415c.075 0 .135.075.135.15v.525c0 .06-.06.135-.135.135zm8.01 5.94a.18.18 0 0 1-.15-.18V3.92c0-.06.075-.135.15-.135h.735c.075 0 .135.075.135.135v3.645c.57-.3 1.17-.45 1.905-.45.9 0 1.755.315 2.355.96.525.57.855 1.425.855 2.55 0 .975-.27 1.74-.78 2.31-.705.825-1.89 1.215-3.18 1.215-.69 0-1.62-.045-2.025-.165m.87-5.565v4.815c.33.06.855.09 1.23.09.87 0 1.755-.255 2.31-.93.345-.42.555-.99.555-1.77 0-.9-.27-1.56-.69-1.98-.45-.465-1.065-.675-1.695-.675-.705 0-1.23.165-1.71.45m7.53 1.74h4.5c-.015-.645-.225-1.17-.57-1.56-.345-.405-.915-.675-1.62-.675-.78 0-1.365.285-1.755.735-.33.39-.525.945-.555 1.5m2.565 3.195c.855 0 1.56-.285 2.1-.615.12-.075.18-.045.21.015l.255.495c.03.09.015.135-.06.18-.555.36-1.53.72-2.565.72-1.125 0-2.055-.405-2.685-1.11-.555-.615-.87-1.485-.87-2.49 0-.96.33-1.83.9-2.445.555-.615 1.38-.99 2.46-.99 1.095 0 1.92.435 2.445 1.065.51.615.765 1.5.72 2.535 0 .105-.075.165-.18.165h-5.295c.045.66.24 1.185.585 1.605.45.54 1.155.87 1.98.87m9.465-5.325v4.965c.465.24.885.33 1.545.33.585 0 1.29-.195 1.8-.72.42-.42.705-1.08.705-1.98 0-.84-.27-1.485-.75-1.935-.51-.495-1.245-.75-2.1-.75-.39 0-.84.03-1.2.09m-.855-.735c.525-.12 1.26-.18 1.965-.18 1.155 0 2.175.315 2.895.96.645.585 1.05 1.455 1.05 2.55 0 1.11-.345 1.92-.855 2.475-.705.75-1.695 1.05-2.565 1.05-.675 0-1.125-.075-1.635-.315v3.495c0 .075-.06.135-.135.135h-.735c-.075 0-.15-.06-.15-.135V7.475c0-.09.06-.165.165-.18m12.255.375c.09.075.09.15.03.21l-.39.54c-.045.06-.105.075-.195.015-.33-.27-.705-.42-1.23-.42-.555 0-.99.27-1.29.72-.33.495-.48 1.2-.48 1.83v3.315c0 .075-.075.12-.135.12h-.735c-.075 0-.15-.045-.15-.12V7.385c0-.075.075-.15.15-.15h.69c.075 0 .135.075.135.15V8.3h.045c.345-.735 1.02-1.185 1.92-1.185.675 0 1.215.21 1.635.555m1.515 2.49h4.5c-.015-.645-.225-1.17-.57-1.56-.345-.405-.915-.675-1.62-.675-.78 0-1.365.285-1.755.735-.33.39-.525.945-.555 1.5m2.565 3.195c.855 0 1.56-.285 2.1-.615.12-.075.18-.045.21.015l.255.495c.03.09.015.135-.06.18-.555.36-1.53.72-2.565.72-1.125 0-2.055-.405-2.685-1.11-.555-.615-.87-1.485-.87-2.49 0-.96.33-1.83.9-2.445.555-.615 1.38-.99 2.46-.99 1.095 0 1.92.435 2.445 1.065.51.615.765 1.5.72 2.535 0 .105-.075.165-.18.165h-5.295c.045.66.24 1.185.585 1.605.45.54 1.155.87 1.98.87m6.555 0c.915 0 1.485-.345 1.485-1.095 0-.585-.435-.84-1.005-1.11-.42-.195-1.125-.375-1.665-.63-.645-.3-1.11-.78-1.11-1.605 0-1.14.885-1.815 2.46-1.815.915 0 1.605.24 2.055.48.105.06.105.12.075.195l-.27.54c-.045.09-.105.105-.18.06-.51-.27-1.035-.435-1.635-.435-.96 0-1.47.33-1.47.96 0 .51.375.75.84.96.51.225 1.2.42 1.65.645.78.36 1.29.84 1.29 1.68 0 1.215-.975 1.965-2.49 1.965-1.125 0-1.89-.315-2.34-.57-.075-.045-.09-.09-.045-.165l.27-.57c.03-.09.09-.105.18-.06.51.315 1.155.57 1.905.57m4.86-3.195h4.5c-.015-.645-.225-1.17-.57-1.56-.345-.405-.915-.675-1.62-.675-.78 0-1.365.285-1.755.735-.33.39-.525.945-.555 1.5m2.565 3.195c.855 0 1.56-.285 2.1-.615.12-.075.18-.045.21.015l.255.495c.03.09.015.135-.06.18-.555.36-1.53.72-2.565.72-1.125 0-2.055-.405-2.685-1.11-.555-.615-.87-1.485-.87-2.49 0-.96.33-1.83.9-2.445.555-.615 1.38-.99 2.46-.99 1.095 0 1.92.435 2.445 1.065.51.615.765 1.5.72 2.535 0 .105-.075.165-.18.165h-5.295c.045.66.24 1.185.585 1.605.45.54 1.155.87 1.98.87m5.625-4.935h.045c.465-.855 1.335-1.305 2.415-1.305.825 0 1.5.21 1.98.645.51.465.78 1.2.78 2.235v3.885c0 .075-.06.12-.135.12h-.72c-.075 0-.15-.045-.15-.12v-3.645c0-.75-.135-1.35-.525-1.74-.315-.315-.765-.495-1.425-.495-.795 0-1.41.36-1.8 1.02-.285.51-.42 1.11-.42 1.755v3.105c0 .075-.075.12-.135.12h-.735c-.075 0-.15-.045-.15-.12V7.385c0-.075.075-.15.15-.15h.69c.075 0 .135.075.135.15zm8.25-.375v3.6c0 .48.075.87.255 1.14.195.33.54.495 1.095.495.42 0 .81-.09 1.26-.42.105-.075.165-.06.21.015l.255.54c.03.075 0 .12-.075.18-.525.36-1.185.555-1.89.555-.81 0-1.335-.24-1.65-.645-.345-.435-.465-1.05-.465-1.725V8.045h-.81c-.06 0-.135-.075-.135-.135v-.525c0-.075.075-.15.135-.15h.81V5.93c0-.075.075-.135.15-.135h.72c.075 0 .135.06.135.135v1.305h2.415c.075 0 .135.075.135.15v.525c0 .06-.06.135-.135.135zm8.445 2.58c0 .75.255 1.395.69 1.89.465.495 1.125.81 1.89.81.78 0 1.44-.315 1.905-.81.435-.495.69-1.14.69-1.89 0-.72-.255-1.38-.69-1.86a2.53 2.53 0 0 0-1.905-.825c-.765 0-1.425.315-1.89.825a2.76 2.76 0 0 0-.69 1.86m-.99 0c0-1.005.375-1.875 1.005-2.49.63-.645 1.545-1.02 2.565-1.02 1.035 0 1.95.375 2.58 1.02.63.615 1.005 1.485 1.005 2.49 0 1.02-.375 1.89-1.005 2.505-.63.645-1.545 1.02-2.58 1.02-1.02 0-1.935-.375-2.565-1.02-.63-.615-1.005-1.485-1.005-2.505m9.9-2.205h.045c.465-.855 1.335-1.305 2.415-1.305.825 0 1.5.21 1.98.645.51.465.78 1.2.78 2.235v3.885c0 .075-.06.12-.135.12h-.72c-.075 0-.15-.045-.15-.12v-3.645c0-.75-.135-1.35-.525-1.74C162.96 8.18 162.51 8 161.85 8c-.795 0-1.41.36-1.8 1.02-.285.51-.42 1.11-.42 1.755v3.105c0 .075-.075.12-.135.12h-.735c-.075 0-.15-.045-.15-.12V7.385c0-.075.075-.15.15-.15h.69c.075 0 .135.075.135.15zm16.965-.99-2.715 6.93c-.375.945-.795 1.695-1.29 2.235-.615.6-1.365.915-2.37.885-.075 0-.12-.045-.12-.12v-.75c0-.06.06-.105.12-.105l.285.015c.57 0 1.035-.24 1.44-.705.3-.36.585-.825.84-1.41l-3.075-6.975c-.03-.075-.03-.195.105-.195h.9c.12 0 .165.045.21.15l2.385 5.76 2.145-5.76c.03-.105.105-.15.21-.15h.825c.135 0 .135.12.105.195m1.77 3.195c0 .75.255 1.395.69 1.89.465.495 1.125.81 1.89.81.78 0 1.44-.315 1.905-.81.435-.495.69-1.14.69-1.89 0-.72-.255-1.38-.69-1.86a2.53 2.53 0 0 0-1.905-.825c-.765 0-1.425.315-1.89.825a2.76 2.76 0 0 0-.69 1.86m-.99 0c0-1.005.375-1.875 1.005-2.49.63-.645 1.545-1.02 2.565-1.02 1.035 0 1.95.375 2.58 1.02.63.615 1.005 1.485 1.005 2.49 0 1.02-.375 1.89-1.005 2.505-.63.645-1.545 1.02-2.58 1.02-1.02 0-1.935-.375-2.565-1.02-.63-.615-1.005-1.485-1.005-2.505m8.82.525V7.385c0-.075.075-.15.15-.15h.72c.075 0 .135.075.135.15v3.675c0 .615.09.99.285 1.365.285.48.87.84 1.8.84s1.53-.345 1.8-.84c.21-.375.285-.75.285-1.365V7.385c0-.075.06-.15.135-.15h.735c.075 0 .135.075.135.15v3.765c0 .87-.15 1.395-.495 1.905-.45.705-1.365 1.095-2.595 1.095-1.215 0-2.13-.39-2.595-1.095-.345-.51-.495-1.035-.495-1.905m12.825-3.48c.09.075.09.15.03.21l-.39.54c-.045.06-.105.075-.195.015-.33-.27-.705-.42-1.23-.42-.555 0-.99.27-1.29.72-.33.495-.48 1.2-.48 1.83v3.315c0 .075-.075.12-.135.12h-.735c-.075 0-.15-.045-.15-.12V7.385c0-.075.075-.15.15-.15h.69c.075 0 .135.075.135.15V8.3h.045c.345-.735 1.02-1.185 1.92-1.185.675 0 1.215.21 1.635.555m5.775.435h.045c.435-.645 1.11-.99 2.01-.99.555 0 1.065.135 1.47.435.345.24.63.57.795 1.02.165-.36.435-.765.87-1.065.405-.255.885-.39 1.425-.39.69 0 1.35.18 1.83.645.435.42.72 1.095.72 2.085v4.035c0 .075-.06.12-.12.12h-.75c-.075 0-.135-.045-.135-.12v-3.795c0-.72-.15-1.26-.465-1.605-.3-.33-.735-.48-1.275-.48-.615 0-1.11.255-1.44.795-.255.45-.375 1.05-.375 1.8v3.285c0 .075-.06.12-.135.12h-.735c-.075 0-.135-.045-.135-.12v-3.795c0-.72-.165-1.275-.495-1.62-.285-.315-.72-.465-1.245-.465-.6 0-1.125.24-1.44.795-.24.405-.375.945-.375 1.68v3.405c0 .075-.075.12-.135.12h-.735c-.075 0-.15-.045-.15-.12V7.385c0-.075.075-.15.15-.15h.69c.075 0 .135.075.135.15zm11.88 2.055h4.5c-.015-.645-.225-1.17-.57-1.56-.345-.405-.915-.675-1.62-.675-.78 0-1.365.285-1.755.735-.33.39-.525.945-.555 1.5m2.565 3.195c.855 0 1.56-.285 2.1-.615.12-.075.18-.045.21.015l.255.495c.03.09.015.135-.06.18-.555.36-1.53.72-2.565.72-1.125 0-2.055-.405-2.685-1.11-.555-.615-.87-1.485-.87-2.49 0-.96.33-1.83.9-2.445.555-.615 1.38-.99 2.46-.99 1.095 0 1.92.435 2.445 1.065.51.615.765 1.5.72 2.535 0 .105-.075.165-.18.165h-5.295c.045.66.24 1.185.585 1.605.45.54 1.155.87 1.98.87m5.82-5.31v3.6c0 .48.075.87.255 1.14.195.33.54.495 1.095.495.42 0 .81-.09 1.26-.42.105-.075.165-.06.21.015l.255.54c.03.075 0 .12-.075.18-.525.36-1.185.555-1.89.555-.81 0-1.335-.24-1.65-.645-.345-.435-.465-1.05-.465-1.725V8.045h-.81c-.06 0-.135-.075-.135-.135v-.525c0-.075.075-.15.135-.15h.81V5.93c0-.075.075-.135.15-.135h.72c.075 0 .135.06.135.135v1.305h2.415c.075 0 .135.075.135.15v.525c0 .06-.06.135-.135.135zm4.5 2.115h4.5c-.015-.645-.225-1.17-.57-1.56-.345-.405-.915-.675-1.62-.675-.78 0-1.365.285-1.755.735-.33.39-.525.945-.555 1.5m2.565 3.195c.855 0 1.56-.285 2.1-.615.12-.075.18-.045.21.015l.255.495c.03.09.015.135-.06.18-.555.36-1.53.72-2.565.72-1.125 0-2.055-.405-2.685-1.11-.555-.615-.87-1.485-.87-2.49 0-.96.33-1.83.9-2.445.555-.615 1.38-.99 2.46-.99 1.095 0 1.92.435 2.445 1.065.51.615.765 1.5.72 2.535 0 .105-.075.165-.18.165h-5.295c.045.66.24 1.185.585 1.605.45.54 1.155.87 1.98.87m9.225-5.685c.09.075.09.15.03.21l-.39.54c-.045.06-.105.075-.195.015-.33-.27-.705-.42-1.23-.42-.555 0-.99.27-1.29.72-.33.495-.48 1.2-.48 1.83v3.315c0 .075-.075.12-.135.12h-.735c-.075 0-.15-.045-.15-.12V7.385c0-.075.075-.15.15-.15h.69c.075 0 .135.075.135.15V8.3h.045c.345-.735 1.02-1.185 1.92-1.185.675 0 1.215.21 1.635.555M122.58 28.46l-1.41.52c-.12.04-.17.02-.17-.12v-.68c0-.07.02-.14.12-.17l1.66-.61c.08-.03.18-.05.26-.05h.5c.07 0 .12.05.12.12v5.81h1.37c.06 0 .12.06.12.12v.69c0 .07-.06.12-.12.12h-3.91c-.07 0-.12-.05-.12-.12v-.69c0-.06.05-.12.12-.12h1.46zm13.54-.94v6.57c0 .07-.05.12-.12.12h-.8c-.07 0-.12-.05-.12-.12v-4.81l-1.9 3.18c-.06.09-.1.13-.2.13h-.61c-.1 0-.14-.04-.19-.13l-1.93-3.18v4.81c0 .07-.06.12-.12.12h-.81c-.06 0-.12-.05-.12-.12v-6.57c0-.06.06-.12.12-.12h.86c.09 0 .15.02.21.13l2.27 3.81 2.26-3.81c.07-.11.13-.13.22-.13h.86c.07 0 .12.06.12.12m1.4 2.27c0-.07.06-.12.12-.12h.76c.06 0 .12.05.12.12v4.3c0 .07-.06.12-.12.12h-.76c-.06 0-.12-.05-.12-.12zm.5-1.64a.574.574 0 1 1-.012-1.148.574.574 0 0 1 .012 1.148m1.87-.63c0-.06.06-.12.12-.12h.76c.06 0 .12.06.12.12v6.57c0 .07-.06.12-.12.12h-.76c-.06 0-.12-.05-.12-.12zm2.37 0c0-.06.06-.12.12-.12h.76c.06 0 .12.06.12.12v6.57c0 .07-.06.12-.12.12h-.76c-.06 0-.12-.05-.12-.12zm2.37 2.27c0-.07.06-.12.12-.12h.76c.06 0 .12.05.12.12v4.3c0 .07-.06.12-.12.12h-.76c-.06 0-.12-.05-.12-.12zm.5-1.64a.574.574 0 1 1-.012-1.148.574.574 0 0 1 .012 1.148m2.58 3.8c0 .43.15.82.4 1.11.26.28.63.44 1.05.44.43 0 .8-.16 1.05-.44.25-.29.4-.68.4-1.11 0-.44-.15-.82-.4-1.11-.25-.28-.62-.45-1.05-.45-.42 0-.79.17-1.05.45-.25.29-.4.67-.4 1.11m-.98 0c0-.7.27-1.3.71-1.71.43-.42 1.04-.66 1.72-.66s1.29.24 1.72.66c.45.41.72 1.01.72 1.71s-.27 1.3-.72 1.71c-.43.42-1.04.65-1.72.65s-1.29-.23-1.72-.65c-.44-.41-.71-1.01-.71-1.71m10.3-.46v2.61c0 .07-.06.11-.12.11h-.76c-.06 0-.12-.04-.12-.11v-2.37c0-.39-.06-.74-.26-.98-.17-.19-.42-.31-.8-.31-.43 0-.75.19-.96.49-.22.31-.32.73-.32 1.19v1.98c0 .07-.06.11-.12.11h-.76c-.06 0-.12-.04-.12-.11v-4.31c0-.06.06-.12.12-.12h.72c.06 0 .13.06.13.12v.51h.03c.32-.48.86-.71 1.48-.71.56 0 1.03.14 1.37.47.3.3.49.77.49 1.43m40.55-3.34-1.41.52c-.12.04-.17.02-.17-.12v-.68c0-.07.02-.14.12-.17l1.66-.61c.08-.03.18-.05.26-.05h.5c.07 0 .12.05.12.12v5.81h1.37c.06 0 .12.06.12.12v.69c0 .07-.06.12-.12.12h-3.91c-.07 0-.12-.05-.12-.12v-.69c0-.06.05-.12.12-.12h1.46zm8.9 2.35c0 2.3-.9 3.5-2.55 3.5-1.66 0-2.56-1.2-2.56-3.5s.9-3.5 2.56-3.5c1.65 0 2.55 1.2 2.55 3.5m-1.08 0c0-.86-.12-1.5-.39-1.92-.24-.4-.6-.59-1.08-.59s-.85.2-1.09.59c-.27.42-.41 1.07-.41 1.92 0 .86.14 1.51.4 1.93.25.39.61.59 1.1.59.47 0 .84-.2 1.08-.59.27-.43.39-1.06.39-1.93m7.08 0c0 2.3-.9 3.5-2.55 3.5-1.66 0-2.56-1.2-2.56-3.5s.9-3.5 2.56-3.5c1.65 0 2.55 1.2 2.55 3.5m-1.08 0c0-.86-.12-1.5-.39-1.92-.24-.4-.6-.59-1.08-.59s-.85.2-1.09.59c-.27.42-.41 1.07-.41 1.92 0 .86.14 1.51.4 1.93.25.39.61.59 1.1.59.47 0 .84-.2 1.08-.59.27-.43.39-1.06.39-1.93m4.27-3.41h5.43c.07 0 .12.06.12.12v.72c0 .07-.05.12-.12.12h-2.18v5.73c0 .07-.05.12-.12.12h-.84c-.06 0-.12-.05-.12-.12v-5.73h-2.17c-.07 0-.13-.05-.13-.12v-.72c0-.06.06-.12.13-.12m6.76.13v2.77c.33-.49.86-.72 1.49-.72.52 0 .99.13 1.31.43.34.3.54.79.54 1.48v2.61c0 .07-.06.11-.12.11h-.75c-.07 0-.13-.04-.13-.11v-2.37c0-.41-.07-.78-.29-1.02-.16-.17-.41-.27-.76-.27-.45 0-.79.2-1.01.55-.2.31-.28.72-.28 1.12v1.99c0 .07-.05.11-.12.11h-.75c-.07 0-.13-.04-.13-.11v-6.57c0-.07.06-.13.13-.13h.75c.07 0 .12.06.12.13m5.34 4.42c0 .43.15.82.4 1.11.26.28.63.44 1.05.44.43 0 .8-.16 1.05-.44.25-.29.4-.68.4-1.11 0-.44-.15-.82-.4-1.11-.25-.28-.62-.45-1.05-.45-.42 0-.79.17-1.05.45-.25.29-.4.67-.4 1.11m-.98 0c0-.7.27-1.3.71-1.71.43-.42 1.04-.66 1.72-.66s1.29.24 1.72.66c.45.41.72 1.01.72 1.71s-.27 1.3-.72 1.71c-.43.42-1.04.65-1.72.65s-1.29-.23-1.72-.65c-.44-.41-.71-1.01-.71-1.71m5.89.33v-2.49c0-.07.05-.12.12-.12h.75c.07 0 .12.05.12.12v2.41c0 .33.05.56.16.77.16.28.49.49 1.01.49s.85-.2 1-.49c.13-.21.17-.44.17-.77v-2.41c0-.07.06-.12.12-.12h.75c.07 0 .12.05.12.12v2.49c0 .58-.12.97-.36 1.3-.35.48-.98.73-1.8.73s-1.45-.25-1.79-.73c-.25-.33-.37-.72-.37-1.3m6.91 1.26c.47 0 .79-.17.79-.54 0-.31-.24-.44-.55-.58-.29-.13-.7-.24-1.04-.41-.47-.22-.74-.58-.74-1.15 0-.8.61-1.28 1.72-1.28.66 0 1.13.16 1.45.33.08.05.09.1.06.16l-.27.55c-.04.07-.09.08-.15.04-.35-.19-.7-.27-1.04-.27-.46 0-.74.14-.74.46 0 .27.22.4.5.51.32.14.71.26 1.02.41.55.27.81.63.81 1.15 0 .83-.69 1.39-1.78 1.39-.77 0-1.27-.19-1.59-.39-.07-.04-.08-.09-.05-.15l.27-.55c.03-.07.09-.09.16-.05.36.22.74.37 1.17.37m4.51-3.19c-.51 0-.95.19-1.32.4-.09.05-.15.04-.18-.04l-.21-.47c-.03-.08-.03-.12.04-.17.46-.3 1.13-.48 1.79-.48.43 0 .96.07 1.33.45.27.27.43.65.43 1.27v2.79c0 .06-.05.11-.11.11h-.66c-.06 0-.11-.05-.11-.11v-.13h-.04c-.44.27-.82.34-1.3.34-.42 0-.82-.11-1.11-.34s-.47-.57-.47-1.02c0-.6.36-.95.86-1.16.59-.24 1.36-.31 1.95-.35v-.12c0-.34-.07-.56-.2-.71-.15-.19-.41-.26-.69-.26m-.04 3.23c.31 0 .63-.09.93-.26v-1.19c-.95.04-1.86.18-1.86.79 0 .45.46.66.93.66m7.55-2.09v2.61c0 .07-.06.11-.12.11h-.76c-.06 0-.12-.04-.12-.11v-2.37c0-.39-.06-.74-.26-.98-.17-.19-.42-.31-.8-.31-.43 0-.75.19-.96.49-.22.31-.32.73-.32 1.19v1.98c0 .07-.06.11-.12.11h-.76c-.06 0-.12-.04-.12-.11v-4.31c0-.06.06-.12.12-.12h.72c.06 0 .13.06.13.12v.51h.03c.32-.48.86-.71 1.48-.71.56 0 1.03.14 1.37.47.3.3.49.77.49 1.43m3.76 1.9h.49v-2.83c-.27-.09-.49-.13-.82-.13-.48 0-.87.21-1.11.56-.19.26-.29.58-.29.96 0 .46.15.79.39 1.01.33.31.81.43 1.34.43m1.36.82h-1.47c-.79 0-1.5-.2-1.98-.65-.41-.36-.65-.9-.65-1.59 0-.57.15-1.12.48-1.55.38-.51 1.01-.84 1.87-.84.34 0 .6.05.88.14v-2.2c0-.06.06-.12.12-.12h.75c.07 0 .12.06.12.12v6.57c0 .07-.05.12-.12.12m30.85-5.75-1.41.52c-.12.04-.17.02-.17-.12v-.68c0-.07.02-.14.12-.17l1.66-.61c.08-.03.18-.05.26-.05h.5c.07 0 .12.05.12.12v5.81h1.37c.06 0 .12.06.12.12v.69c0 .07-.06.12-.12.12h-3.91c-.07 0-.12-.05-.12-.12v-.69c0-.06.05-.12.12-.12h1.46zm8.9 2.35c0 2.3-.9 3.5-2.55 3.5-1.66 0-2.56-1.2-2.56-3.5s.9-3.5 2.56-3.5c1.65 0 2.55 1.2 2.55 3.5m-1.08 0c0-.86-.12-1.5-.39-1.92-.24-.4-.6-.59-1.08-.59s-.85.2-1.09.59c-.27.42-.41 1.07-.41 1.92 0 .86.14 1.51.4 1.93.25.39.61.59 1.1.59.47 0 .84-.2 1.08-.59.27-.43.39-1.06.39-1.93m4.27-3.41h5.43c.07 0 .12.06.12.12v.72c0 .07-.05.12-.12.12h-2.18v5.73c0 .07-.05.12-.12.12h-.84c-.06 0-.12-.05-.12-.12v-5.73h-2.17c-.07 0-.13-.05-.13-.12v-.72c0-.06.06-.12.13-.12m6.76.13v2.77c.33-.49.86-.72 1.49-.72.52 0 .99.13 1.31.43.34.3.54.79.54 1.48v2.61c0 .07-.06.11-.12.11h-.75c-.07 0-.13-.04-.13-.11v-2.37c0-.41-.07-.78-.29-1.02-.16-.17-.41-.27-.76-.27-.45 0-.79.2-1.01.55-.2.31-.28.72-.28 1.12v1.99c0 .07-.05.11-.12.11h-.75c-.07 0-.13-.04-.13-.11v-6.57c0-.07.06-.13.13-.13h.75c.07 0 .12.06.12.13m5.34 4.42c0 .43.15.82.4 1.11.26.28.63.44 1.05.44.43 0 .8-.16 1.05-.44.25-.29.4-.68.4-1.11 0-.44-.15-.82-.4-1.11-.25-.28-.62-.45-1.05-.45-.42 0-.79.17-1.05.45-.25.29-.4.67-.4 1.11m-.98 0c0-.7.27-1.3.71-1.71.43-.42 1.04-.66 1.72-.66s1.29.24 1.72.66c.45.41.72 1.01.72 1.71s-.27 1.3-.72 1.71c-.43.42-1.04.65-1.72.65s-1.29-.23-1.72-.65c-.44-.41-.71-1.01-.71-1.71m5.89.33v-2.49c0-.07.05-.12.12-.12h.75c.07 0 .12.05.12.12v2.41c0 .33.05.56.16.77.16.28.49.49 1.01.49s.85-.2 1-.49c.13-.21.17-.44.17-.77v-2.41c0-.07.06-.12.12-.12h.75c.07 0 .12.05.12.12v2.49c0 .58-.12.97-.36 1.3-.35.48-.98.73-1.8.73s-1.45-.25-1.79-.73c-.25-.33-.37-.72-.37-1.3m6.91 1.26c.47 0 .79-.17.79-.54 0-.31-.24-.44-.55-.58-.29-.13-.7-.24-1.04-.41-.47-.22-.74-.58-.74-1.15 0-.8.61-1.28 1.72-1.28.66 0 1.13.16 1.45.33.08.05.09.1.06.16l-.27.55c-.04.07-.09.08-.15.04-.35-.19-.7-.27-1.04-.27-.46 0-.74.14-.74.46 0 .27.22.4.5.51.32.14.71.26 1.02.41.55.27.81.63.81 1.15 0 .83-.69 1.39-1.78 1.39-.77 0-1.27-.19-1.59-.39-.07-.04-.08-.09-.05-.15l.27-.55c.03-.07.09-.09.16-.05.36.22.74.37 1.17.37m4.51-3.19c-.51 0-.95.19-1.32.4-.09.05-.15.04-.18-.04l-.21-.47c-.03-.08-.03-.12.04-.17.46-.3 1.13-.48 1.79-.48.43 0 .96.07 1.33.45.27.27.43.65.43 1.27v2.79c0 .06-.05.11-.11.11h-.66c-.06 0-.11-.05-.11-.11v-.13h-.04c-.44.27-.82.34-1.3.34-.42 0-.82-.11-1.11-.34s-.47-.57-.47-1.02c0-.6.36-.95.86-1.16.59-.24 1.36-.31 1.95-.35v-.12c0-.34-.07-.56-.2-.71-.15-.19-.41-.26-.69-.26m-.04 3.23c.31 0 .63-.09.93-.26v-1.19c-.95.04-1.86.18-1.86.79 0 .45.46.66.93.66m7.55-2.09v2.61c0 .07-.06.11-.12.11h-.76c-.06 0-.12-.04-.12-.11v-2.37c0-.39-.06-.74-.26-.98-.17-.19-.42-.31-.8-.31-.43 0-.75.19-.96.49-.22.31-.32.73-.32 1.19v1.98c0 .07-.06.11-.12.11h-.76c-.06 0-.12-.04-.12-.11v-4.31c0-.06.06-.12.12-.12h.72c.06 0 .13.06.13.12v.51h.03c.32-.48.86-.71 1.48-.71.56 0 1.03.14 1.37.47.3.3.49.77.49 1.43m3.76 1.9h.49v-2.83c-.27-.09-.49-.13-.82-.13-.48 0-.87.21-1.11.56-.19.26-.29.58-.29.96 0 .46.15.79.39 1.01.33.31.81.43 1.34.43m1.36.82h-1.47c-.79 0-1.5-.2-1.98-.65-.41-.36-.65-.9-.65-1.59 0-.57.15-1.12.48-1.55.38-.51 1.01-.84 1.87-.84.34 0 .6.05.88.14v-2.2c0-.06.06-.12.12-.12h.75c.07 0 .12.06.12.12v6.57c0 .07-.05.12-.12.12m36.85-5.79-1.41.52c-.12.04-.17.02-.17-.12v-.68c0-.07.02-.14.12-.17l1.66-.61c.08-.03.18-.05.26-.05h.5c.07 0 .12.05.12.12v5.81h1.37c.06 0 .12.06.12.12v.69c0 .07-.06.12-.12.12h-3.91c-.07 0-.12-.05-.12-.12v-.69c0-.06.05-.12.12-.12h1.46zm6.09-1.06h5.43c.07 0 .12.06.12.12v.72c0 .07-.05.12-.12.12h-2.18v5.73c0 .07-.05.12-.12.12h-.84c-.06 0-.12-.05-.12-.12v-5.73h-2.17c-.07 0-.13-.05-.13-.12v-.72c0-.06.06-.12.13-.12m6.76.13v2.77c.33-.49.86-.72 1.49-.72.52 0 .99.13 1.31.43.34.3.54.79.54 1.48v2.61c0 .07-.06.11-.12.11h-.75c-.07 0-.13-.04-.13-.11v-2.37c0-.41-.07-.78-.29-1.02-.16-.17-.41-.27-.76-.27-.45 0-.79.2-1.01.55-.2.31-.28.72-.28 1.12v1.99c0 .07-.05.11-.12.11h-.75c-.07 0-.13-.04-.13-.11v-6.57c0-.07.06-.13.13-.13h.75c.07 0 .12.06.12.13m5.34 4.42c0 .43.15.82.4 1.11.26.28.63.44 1.05.44.43 0 .8-.16 1.05-.44.25-.29.4-.68.4-1.11 0-.44-.15-.82-.4-1.11-.25-.28-.62-.45-1.05-.45-.42 0-.79.17-1.05.45-.25.29-.4.67-.4 1.11m-.98 0c0-.7.27-1.3.71-1.71.43-.42 1.04-.66 1.72-.66s1.29.24 1.72.66c.45.41.72 1.01.72 1.71s-.27 1.3-.72 1.71c-.43.42-1.04.65-1.72.65s-1.29-.23-1.72-.65c-.44-.41-.71-1.01-.71-1.71m5.89.33v-2.49c0-.07.05-.12.12-.12h.75c.07 0 .12.05.12.12v2.41c0 .33.05.56.16.77.16.28.49.49 1.01.49s.85-.2 1-.49c.13-.21.17-.44.17-.77v-2.41c0-.07.06-.12.12-.12h.75c.07 0 .12.05.12.12v2.49c0 .58-.12.97-.36 1.3-.35.48-.98.73-1.8.73s-1.45-.25-1.79-.73c-.25-.33-.37-.72-.37-1.3m6.91 1.26c.47 0 .79-.17.79-.54 0-.31-.24-.44-.55-.58-.29-.13-.7-.24-1.04-.41-.47-.22-.74-.58-.74-1.15 0-.8.61-1.28 1.72-1.28.66 0 1.13.16 1.45.33.08.05.09.1.06.16l-.27.55c-.04.07-.09.08-.15.04-.35-.19-.7-.27-1.04-.27-.46 0-.74.14-.74.46 0 .27.22.4.5.51.32.14.71.26 1.02.41.55.27.81.63.81 1.15 0 .83-.69 1.39-1.78 1.39-.77 0-1.27-.19-1.59-.39-.07-.04-.08-.09-.05-.15l.27-.55c.03-.07.09-.09.16-.05.36.22.74.37 1.17.37M412.1 30c-.51 0-.95.19-1.32.4-.09.05-.15.04-.18-.04l-.21-.47c-.03-.08-.03-.12.04-.17.46-.3 1.13-.48 1.79-.48.43 0 .96.07 1.33.45.27.27.43.65.43 1.27v2.79c0 .06-.05.11-.11.11h-.66c-.06 0-.11-.05-.11-.11v-.13h-.04c-.44.27-.82.34-1.3.34-.42 0-.82-.11-1.11-.34s-.47-.57-.47-1.02c0-.6.36-.95.86-1.16.59-.24 1.36-.31 1.95-.35v-.12c0-.34-.07-.56-.2-.71-.15-.19-.41-.26-.69-.26m-.04 3.23c.31 0 .63-.09.93-.26v-1.19c-.95.04-1.86.18-1.86.79 0 .45.46.66.93.66m7.55-2.09v2.61c0 .07-.06.11-.12.11h-.76c-.06 0-.12-.04-.12-.11v-2.37c0-.39-.06-.74-.26-.98-.17-.19-.42-.31-.8-.31-.43 0-.75.19-.96.49-.22.31-.32.73-.32 1.19v1.98c0 .07-.06.11-.12.11h-.76c-.06 0-.12-.04-.12-.11v-4.31c0-.06.06-.12.12-.12h.72c.06 0 .13.06.13.12v.51h.03c.32-.48.86-.71 1.48-.71.56 0 1.03.14 1.37.47.3.3.49.77.49 1.43m3.76 1.9h.49v-2.83c-.27-.09-.49-.13-.82-.13-.48 0-.87.21-1.11.56-.19.26-.29.58-.29.96 0 .46.15.79.39 1.01.33.31.81.43 1.34.43m1.36.82h-1.47c-.79 0-1.5-.2-1.98-.65-.41-.36-.65-.9-.65-1.59 0-.57.15-1.12.48-1.55.38-.51 1.01-.84 1.87-.84.34 0 .6.05.88.14v-2.2c0-.06.06-.12.12-.12h.75c.07 0 .12.06.12.12v6.57c0 .07-.05.12-.12.12M225.5 149.5l4 7h-8z"/>
		<path stroke="#000" stroke-linecap="square" d="M225.5 169.5v-19"/>
		<path fill="#000" d="m43 84-7 4v-8z"/>
		<path stroke="#000" d="M17.623 11H11v73h27"/>
		<path fill="#000" d="M162.027 65.214c.468-.452.963-.443 1.414.025.452.467.443.962-.024 1.414l-18.703 18.06-1.39-1.438zm61.735-6.168c-.157-.63.098-1.055.729-1.212.63-.157 1.055.098 1.212.728l6.29 25.228-1.94.484q-6.135-24.597-6.29-25.228zm185.672-.66c.135-.636.55-.905 1.186-.77s.905.55.77 1.186l-5.406 25.432-1.956-.416zm-87.723 51.376c.068.647-.243 1.031-.89 1.1-.646.067-1.03-.244-1.099-.89q-.067-.648-2.717-25.858l1.989-.21z"/>
	</g>
</svg>
