<svg xmlns="http://www.w3.org/2000/svg" xmlns:xlink="http://www.w3.org/1999/xlink" width="250" height="275" viewBox="0 0 500 550">
	<defs>
		<path id="d" d="m28.077 37.87-.002-10.68 10.268 5.357-10.266 5.32zM50.62 25.342s-.37-2.62-1.51-3.772c-1.445-1.51-3.065-1.52-3.808-1.61-5.317-.382-13.294-.382-13.294-.382h-.016s-7.977 0-13.294.384c-.743.09-2.362.098-3.808 1.61-1.14 1.153-1.51 3.772-1.51 3.772s-.38 3.074-.38 6.15v2.882c0 3.075.38 6.15.38 6.15s.37 2.62 1.51 3.772c1.446 1.513 3.344 1.465 4.19 1.624 3.04.292 12.92.382 12.92.382s7.985-.012 13.302-.397c.743-.088 2.363-.096 3.808-1.61 1.14-1.152 1.51-3.77 1.51-3.77s.38-3.076.38-6.15v-2.884c0-3.075-.38-6.15-.38-6.15z"/>
		<path id="b" d="M35 22h5v-6h-5c-3.86 0-7 3.14-7 7v3h-4v6h4v16h6V32h5l1-6h-6v-3c0-.542.458-1 1-1z"/>
		<path id="c" d="M26.29 0h5.12L20.23 12.78l13.16 17.39h-10.3l-8.07-10.55-9.23 10.55H.66L12.62 16.5 0 0h10.56l7.29 9.64L26.29 0Zm-1.8 27.11h2.84L9.02 2.9H5.98L24.5 27.11Z" transform="translate(16 18)"/>
		<path id="g" d="M26 21v11h-7v-8h-6v8H6V21H0v-1h32v1h-6zM16 6l16 14H0L16 6z"/>
		<path id="i" d="M24 10.5H13.5V0L24 10.5zM11 0v13h13v21H0V0h11z"/>
		<path id="l" fill="none" stroke="#0079C1" stroke-width="2.8" d="m2 10 8-8 8 8m-8-6v12c0 2 2 4 4 4h12"/>
		<path id="m" fill="none" stroke-width="2.8" d="m2 2 6.666 6L2 14"/>
		<path id="o" fill="none" stroke-width="5.6" d="M31 2 12 21 2 11"/>
		<path id="p" stroke-width="5.4" d="M22 3 3 22M3 3l19 19"/>
		<path id="r" fill="none" stroke-width="2.8" d="m2 2 10 10L2 22"/>
		<path id="h" d="M0 0h32v4H0zm0 12h32v4H0zm0 12h32v4H0z"/>
		<path id="a" d="M20 16.666V30h-8V16.666L4 18 16 0l12 18-8-1.333z"/>
		<path id="s" d="M24.12 16.7c-.16-.07-.31-.15-.47-.21-.28-5.12-3.08-8.06-7.78-8.09h-.06c-2.81 0-5.15 1.2-6.59 3.38l2.59 1.77c1.08-1.63 2.76-1.98 4.01-1.98h.04c1.55 0 2.72.46 3.47 1.34.55.64.92 1.52 1.1 2.64-1.37-.23-2.86-.3-4.44-.21-4.47.26-7.34 2.86-7.15 6.49.1 1.84 1.01 3.42 2.58 4.45 1.32.87 3.03 1.3 4.8 1.2 2.34-.13 4.17-1.02 5.45-2.65.97-1.24 1.59-2.84 1.86-4.87 1.11.67 1.94 1.56 2.4 2.62.78 1.81.82 4.78-1.6 7.2-2.12 2.12-4.68 3.04-8.54 3.07-4.28-.03-7.52-1.4-9.62-4.08-1.97-2.51-2.99-6.12-3.03-10.75.04-4.63 1.06-8.25 3.03-10.76 2.1-2.68 5.34-4.05 9.62-4.08 4.31.03 7.6 1.41 9.79 4.1 1.07 1.32 1.88 2.98 2.41 4.91l3.03-.81c-.65-2.38-1.66-4.43-3.04-6.13C25.15 1.8 21.05.04 15.77 0h-.02C10.49.04 6.43 1.81 3.71 5.27 1.29 8.35.04 12.63 0 18s0 .03 0 .03c.04 5.37 1.29 9.65 3.71 12.73 2.72 3.46 6.77 5.23 12.04 5.27h.02c4.68-.03 7.98-1.26 10.7-3.98 3.56-3.55 3.45-8.01 2.28-10.75-.84-1.96-2.45-3.55-4.64-4.61Zm-8.09 7.6c-1.96.11-3.99-.77-4.09-2.65-.07-1.4.99-2.95 4.21-3.14.37-.02.73-.03 1.09-.03 1.17 0 2.26.11 3.26.33-.37 4.64-2.55 5.39-4.47 5.49Z"/>
		<g id="e">
			<path d="M28 26h5.535v2.837h.08c.77-1.38 2.654-2.837 5.463-2.837C44.92 26 46 29.637 46 34.367V44h-5.77v-8.54c0-2.037-.04-4.657-3-4.657-3.005 0-3.463 2.218-3.463 4.51V44H28V26z"/>
			<path d="M18 26h6v18h-6V26z" class="path2"/>
			<path d="M24 21a3 3 0 1 1-6 0 3 3 0 0 1 6 0z" class="path3"/>
		</g>
		<g id="f">
			<path d="M31.994 14.012c-4.886 0-5.5.02-7.42.108-1.914.086-3.22.392-4.366.836-1.184.46-2.188 1.076-3.188 2.076s-1.616 2.004-2.076 3.188c-.444 1.14-.748 2.45-.836 4.364-.088 1.92-.108 2.536-.108 7.42 0 4.888.02 5.5.108 7.42.088 1.916.392 3.22.836 4.368.46 1.184 1.076 2.188 2.076 3.188s2.004 1.616 3.188 2.076c1.144.444 2.452.748 4.368.836 1.92.088 2.532.108 7.42.108 4.886 0 5.5-.02 7.42-.108 1.912-.088 3.22-.392 4.366-.836 1.192-.46 2.196-1.076 3.196-2.076s1.616-2.004 2.076-3.188c.444-1.144.75-2.452.836-4.368.09-1.92.11-2.532.11-7.42 0-4.886-.02-5.5-.11-7.42-.086-1.912-.39-3.22-.834-4.366-.46-1.192-1.076-2.196-2.076-3.196s-2.02-1.606-3.2-2.066c-1.14-.444-2.45-.748-4.364-.836-1.92-.088-2.532-.108-7.42-.108zm0 3.24c4.804 0 5.374.02 7.272.106 1.754.08 2.706.364 3.34.62.84.32 1.44.706 2.07 1.34a5.525 5.525 0 0 1 1.346 2.066c.256.634.54 1.586.62 3.34.096 1.9.114 2.468.114 7.272s-.02 5.374-.104 7.27c-.08 1.756-.372 2.708-.62 3.34a5.566 5.566 0 0 1-1.344 2.072 5.577 5.577 0 0 1-2.068 1.348c-.636.246-1.588.54-3.34.62-1.9.086-2.468.104-7.274.104s-5.376-.02-7.272-.108c-1.756-.08-2.708-.372-3.34-.62a5.615 5.615 0 0 1-2.072-1.344 5.544 5.544 0 0 1-1.344-2.066c-.246-.636-.54-1.588-.62-3.344-.086-1.896-.104-2.466-.104-7.27 0-4.806.02-5.376.108-7.274.08-1.754.37-2.706.62-3.34.324-.84.714-1.44 1.34-2.07.628-.632 1.228-1.02 2.068-1.348.636-.248 1.588-.54 3.344-.62 1.9-.084 2.47-.1 7.27-.1z"/>
			<path d="M31.994 38.004a5.999 5.999 0 0 1 0-11.996 6 6 0 0 1 6 6 6 6 0 0 1-6 5.996zm0-15.24c-5.1 0-9.24 4.14-9.24 9.24 0 5.106 4.14 9.24 9.24 9.24a9.238 9.238 0 0 0 9.24-9.24c0-5.1-4.136-9.24-9.24-9.24zM43.76 22.4a2.161 2.161 0 0 1-4.32 0 2.161 2.161 0 0 1 4.32 0"/>
		</g>
		<g id="k" fill="none" stroke="#767676">
			<circle cx="14" cy="14" r="8"/>
			<path d="m20 20 8 8"/>
		</g>
		<circle id="n" cx="4" cy="8" r="4"/>
		<circle id="q" cx="22" cy="12" r="6"/>
		<use xlink:href="#a" id="j" transform="rotate(180 16 16)"/>
	</defs>
	<g fill="#fff">
		<use xlink:href="#b"/>
		<use xlink:href="#c" x="100"/>
		<use xlink:href="#d" x="200"/>
		<use xlink:href="#e" x="300"/>
		<use xlink:href="#f" x="400"/>
		<use xlink:href="#g" y="100"/>
		<use xlink:href="#g" x="100" y="100" fill="#b1b1b1"/>
		<use xlink:href="#h" x="200" y="100"/>
		<use xlink:href="#i" x="400" y="100" fill="#0079C1"/>
		<use xlink:href="#a" y="200" fill="#0E7BBF"/>
		<use xlink:href="#j" x="100" y="200" fill="#0E7BBF"/>
		<use xlink:href="#a" x="200" y="200"/>
		<use xlink:href="#j" x="300" y="200"/>
		<use xlink:href="#k" x="400" y="200" stroke-width="3"/>
		<use xlink:href="#k" stroke-width="2" transform="matrix(1.5 0 0 1.5 400 400)"/>
		<use xlink:href="#l" y="300"/>
		<use xlink:href="#m" x="100" y="300" stroke="#000"/>
		<use xlink:href="#m" x="200" y="300" stroke="#0079c1"/>
		<use xlink:href="#n" x="300" y="300" fill="#000"/>
		<use xlink:href="#n" x="400" y="300" fill="#0079c1"/>
		<use xlink:href="#o" y="400" stroke="#0079c1"/>
		<use xlink:href="#p" x="100" y="400" stroke="#c73c27"/>
		<use xlink:href="#q" x="200" y="400" fill="#0079c1"/>
		<use xlink:href="#r" y="500" stroke="#000"/>
		<use xlink:href="#r" x="100" y="500" stroke="#fff"/>
		<use xlink:href="#r" x="200" y="500" stroke="#0079c1"/>
		<use xlink:href="#r" x="300" y="500" stroke="#014268"/>
		<use xlink:href="#i" x="400" y="500"/>
		<use xlink:href="#s" x="300" y="100"/>
	</g>
</svg>
