<svg xmlns="http://www.w3.org/2000/svg" width="181" height="68" fill="none" viewBox="0 0 181 68">
	<g fill="#fff">
		<path d="M179.743 61.628c-.056-.099-.178-.136-.291-.057-.607.39-1.393.549-2.038.549-.781 0-1.332-.234-1.723-.605-.367-.347-.578-.806-.663-1.29 0 0-.066-.3-.066-.618 0-.32.019-.502.023-.568v-.028a4.064 4.064 0 0 1 .895-2.096c.569-.685 1.35-1.055 2.155-1.055.428 0 .781.136.998.352a.982.982 0 0 1 .273.703c0 .783-.589 1.365-1.45 1.697-.437.183-.922.3-1.416.366a.185.185 0 0 0-.156.188l.057.825c.009.09.085.15.198.136h-.029c.852-.094 1.704-.29 2.438-.633 1.195-.567 2.038-1.463 2.038-2.771a2.2 2.2 0 0 0-.763-1.698c-.489-.389-1.214-.642-2.113-.642-1.468 0-2.781.666-3.703 1.66-.862.957-1.37 2.265-1.37 3.61s.471 2.364 1.214 3.025c.744.642 1.742.938 2.782.938 1.294 0 2.348-.291 3.035-.722.118-.08.137-.179.099-.291l-.433-.957zm-83.957 0c-.056-.099-.178-.136-.291-.057-.607.39-1.393.549-2.038.549-.781 0-1.332-.234-1.723-.605-.367-.347-.578-.806-.663-1.29 0 0-.066-.3-.066-.618 0-.32.019-.502.023-.568v-.028a4.067 4.067 0 0 1 .895-2.096c.57-.685 1.35-1.055 2.155-1.055.428 0 .781.136.998.352a.983.983 0 0 1 .273.703c0 .783-.589 1.365-1.45 1.697-.437.183-.922.3-1.416.366a.184.184 0 0 0-.156.188l.057.825c.01.09.085.15.198.136h-.029c.852-.094 1.704-.29 2.438-.633 1.195-.567 2.038-1.463 2.038-2.771a2.2 2.2 0 0 0-.763-1.698c-.489-.389-1.214-.642-2.113-.642-1.468 0-2.781.666-3.703 1.66-.862.957-1.37 2.265-1.37 3.61s.47 2.364 1.214 3.025c.744.642 1.742.938 2.782.938 1.294 0 2.348-.291 3.035-.722.118-.08.137-.179.099-.291l-.433-.957zm-8.624-2.593-.55 4.154a.27.27 0 0 1-.254.235h-1.469c-.117 0-.216-.08-.197-.235l.57-4.154c.056-.432.098-.92.098-1.191 0-.586-.137-1.093-.433-1.426-.254-.272-.607-.45-1.078-.45-.645 0-1.195.272-1.623.74-.589.643-.843 1.525-.942 2.167l-.607 4.314a.274.274 0 0 1-.273.235h-1.45c-.136 0-.216-.08-.216-.235l1.196-8.407c0-.117.117-.216.273-.216H81.5c.136 0 .174.098.174.216l-.174 1.172h.056c.353-.45.706-.778 1.116-1.036a3.55 3.55 0 0 1 1.877-.525c.862 0 1.488.271 1.92.722.589.623.824 1.561.824 2.518a9.7 9.7 0 0 1-.136 1.406zm18.472-3.944c.098.099.08.216.018.314l-.687 1.112c-.099.117-.235.154-.372.056-.47-.29-.96-.506-1.604-.506-1.666 0-2.231 1.758-2.391 2.987l-.588 4.154c-.02.136-.1.216-.236.216h-1.506a.199.199 0 0 1-.197-.235l1.176-8.389c.019-.135.118-.234.236-.234h1.313c.136 0 .216.098.197.234l-.136 1.074h.056c.57-.839 1.412-1.481 2.664-1.481.823 0 1.567.314 2.057.703zm5.364 8.703.117-.858c-.527.408-1.252.66-2.075.66-1.059 0-1.878-.35-2.466-.974-.589-.666-.899-1.6-.899-2.71 0-1.248.409-2.594 1.195-3.649.786-1.074 1.977-1.852 3.506-1.852.862 0 1.469.253 2.019.624l.038-.235c.019-.173.118-.234.254-.234h1.233c.137 0 .235.098.198.234l-1.233 8.74c-.198 1.464-.725 2.636-1.666 3.377-.824.684-1.958.975-3.172.975s-2.527-.408-3.29-.938c-.117-.08-.117-.215-.056-.314l.644-1.074c.099-.136.236-.173.372-.056.626.45 1.412.82 2.447.82.862 0 1.506-.215 1.977-.665.452-.432.725-1.055.861-1.871zm.39-2.753.645-4.506c-.372-.272-.805-.506-1.468-.506-.923 0-1.624.487-2.113 1.172-.509.722-.782 1.679-.782 2.537 0 .666.137 1.228.452 1.641s.781.642 1.412.642c.664 0 1.468-.29 1.859-.975zm8.836 2.87c-.626 1.229-1.313 2.185-2.076 2.888-.96.84-2.136 1.271-3.543 1.191-.118 0-.156-.08-.156-.196l.217-1.445c0-.117.099-.173.216-.173h.433c.626 0 1.214-.235 1.741-.703a6.92 6.92 0 0 0 1.177-1.482l-2.683-9.11c-.037-.156 0-.315.236-.315h1.666c.197 0 .273.056.315.253l1.723 6.79 3.27-6.79c.057-.197.198-.253.391-.253h1.548c.236 0 .198.197.137.314l-4.603 9.036zm17.275-11.919c-.08.117-.156.117-.273.056a2.867 2.867 0 0 0-1.567-.45c-.527 0-.899.197-1.158.506-.292.37-.471.896-.551 1.5l-.136.957h2.292c.117 0 .216.08.197.216l-.178 1.092c-.019.099-.118.216-.236.216h-2.292l-1.529 10.87c-.019.154-.137.252-.254.252h-1.487c-.118 0-.198-.098-.198-.253l1.506-10.869h-.998c-.117 0-.197-.098-.179-.234l.156-1.074c.018-.117.117-.216.235-.216h1.016l.236-1.463c.155-.956.489-1.735 1.059-2.283.588-.525 1.412-.84 2.489-.84 1.078 0 1.902.333 2.466.624.099.056.179.155.08.314l-.706 1.074zm6.345 9.931c-.823 1.036-2.038 1.679-3.544 1.679-1.016 0-1.957-.314-2.663-.92-.763-.684-1.276-1.697-1.276-3.005 0-1.425.433-2.654 1.135-3.55a4.547 4.547 0 0 1 3.586-1.758c1.04 0 1.995.37 2.701 1.013.744.685 1.214 1.679 1.214 2.926 0 1.407-.414 2.673-1.158 3.61zm-1.369-5.364c-.353-.408-.862-.605-1.45-.605-.805 0-1.529.469-2.019 1.191-.433.642-.706 1.5-.706 2.4 0 .803.236 1.426.626 1.834.353.45.861.666 1.45.666.842 0 1.529-.431 2.019-1.111.433-.685.687-1.562.687-2.518 0-.84-.236-1.463-.607-1.852zm11.516-1.468c.099.099.08.216.019.314l-.687 1.112c-.099.117-.236.154-.372.056-.471-.29-.96-.506-1.605-.506-1.666 0-2.231 1.758-2.391 2.987l-.588 4.154c-.019.136-.099.216-.235.216h-1.506a.2.2 0 0 1-.198-.235l1.177-8.389c.018-.135.117-.234.235-.234h1.313c.136 0 .216.098.198.234l-.137 1.074h.057c.569-.839 1.411-1.481 2.663-1.481.824 0 1.567.314 2.057.703zm5.933 8.117c-.019.136-.118.215-.235.215h-1.511c-.118 0-.198-.08-.198-.234l1.822-12.838c.019-.118.117-.216.235-.216h1.506c.118 0 .198.098.179.216l-1.803 12.857zm4.543 0c-.019.136-.118.216-.235.216h-1.511c-.118 0-.198-.08-.198-.235l1.215-8.407c.018-.118.117-.216.235-.216h1.506c.118 0 .198.098.179.216l-1.196 8.43zm.861-11.55c-.644 0-1.176-.506-1.176-1.153s.527-1.153 1.176-1.153c.65 0 1.158.506 1.158 1.153s-.508 1.154-1.158 1.154zm8.851.334c-.08.117-.155.117-.273.056a2.867 2.867 0 0 0-1.567-.45c-.527 0-.899.197-1.158.506-.292.37-.471.896-.546 1.5l-.136.957h2.292c.117 0 .216.08.197.216l-.174 1.092c-.019.099-.118.216-.235.216h-2.292l-1.53 10.87c-.019.154-.136.252-.254.252h-1.487c-.118 0-.198-.098-.198-.253l1.511-10.869h-.998c-.117 0-.197-.098-.179-.234l.156-1.074c.019-.117.117-.216.235-.216h1.017l.235-1.463c.155-.956.489-1.735 1.059-2.283.588-.525 1.407-.84 2.485-.84 1.077 0 1.901.333 2.466.624.099.056.174.155.08.314l-.706 1.074zm-97.727 9.636c-.056-.099-.178-.136-.291-.057-.607.39-1.393.549-2.038.549-.781 0-1.332-.234-1.723-.605-.367-.347-.579-.806-.663-1.29 0 0-.066-.3-.066-.618 0-.32.019-.502.023-.568v-.028a4.066 4.066 0 0 1 .895-2.096c.57-.685 1.35-1.055 2.155-1.055.428 0 .781.136.998.352a.983.983 0 0 1 .273.703c0 .783-.588 1.365-1.45 1.697-.437.183-.922.3-1.416.366a.184.184 0 0 0-.156.188l.057.825c.01.09.085.15.198.136h-.029c.852-.094 1.704-.29 2.438-.633 1.195-.567 2.038-1.463 2.038-2.771a2.2 2.2 0 0 0-.763-1.698c-.489-.389-1.214-.642-2.113-.642-1.468 0-2.781.666-3.703 1.66-.862.957-1.37 2.265-1.37 3.61s.47 2.364 1.214 3.025c.744.642 1.742.938 2.782.938 1.294 0 2.348-.291 3.035-.722.118-.08.137-.179.099-.291l-.433-.957zm-39.88-33.466c0-8.815-6.278-16.168-14.627-17.856V0h-7.318v10.302C6.283 11.99 0 19.342 0 28.162h7.313c0-4.769 3.05-8.815 7.314-10.316v10.302h7.318V17.846c4.26 1.5 7.309 5.552 7.309 10.311h7.318zm20.312-13.875h.052l.056 1.421c.165 4.164.123 8.323.132 12.459h3.76c-.315-7.901-.343-12.562-.334-17.57h-5.732c-.574 1.815-1.177 3.503-1.798 5.242a266.246 266.246 0 0 0-2.456 7.175h-.052c-.758-2.448-1.464-4.647-2.41-7.203-.626-1.711-1.299-3.423-1.661-5.214h-5.77c-.061 1.158-.33 12.168-.8 17.57h3.883c-.029-4.661.103-9.322.315-13.88h.052c.4 1.346 1.106 3.24 1.623 4.9l2.871 8.98h3.567zm12.962 11.695c-.65.239-1.332.394-2.047.394-1.06 0-2.236-.315-2.283-1.553-.094-2.344 4.325-2.213 5.652-3.422-.06 4.426-.094 5.608-.179 6.77h3.676c-.16-3.948.122-8.111.047-9.982-.113-2.87-2.941-3.423-5.266-3.423-1.93 0-3.822.314-5.68.764l-.297 2.448c1.614-.633 3.341-1.107 5.11-1.107.98 0 2.415.183 2.462 1.449.113 2.846-9.262 1.135-9.045 6.452.047 1.186.598 3.714 4.852 3.714.847 0 1.638-.08 2.424-.24l.57-2.264zM80.424 15.08h-3.699a160.32 160.32 0 0 1-.188 13.091h3.78c-.024-1.186-.147-4.923.164-7.033.296-1.894 1.37-3.423 3.459-3.423 1.93 0 2.838.924 2.913 2.818.104 2.528-.061 5.111-.301 7.639h3.91c-.16-3.949.062-7.639 0-9.242-.122-3.081-2.282-4.164-5.082-4.164-2.141 0-3.915.633-4.95 2.447h-.053zm12.029 0c.15 4.37.165 8.745-.08 13.092h3.94c-.19-5.294-.213-9.19-.024-13.092zm3.746-2.213V10.39h-3.798l.047 2.476zm10.1 4.792v-2.58h-3.304l-.019-3.132-3.379.737-.038 2.396h-1.957v2.579h1.85c-.03.581-.18 6.086-.128 7.427.104 2.584 1.379 3.4 3.864 3.4 1.002 0 1.976-.132 2.946-.394l.367-2.715c-.631.16-1.045.314-2.104.314-1.162 0-1.412-.896-1.454-2.002-.038-.924.042-4.9.047-6.03h3.304z"/>
		<path d="M113.49 14.761c-4.415 0-7.37 2.715-7.191 7.193.113 2.846 1.981 6.532 7.318 6.532 6.08 0 7.276-4.53 7.172-7.085-.169-4.267-3.148-6.64-7.299-6.64zm.075 2.584c2.405 0 3.454 1.79 3.544 3.976.094 2.344-.899 4.581-3.544 4.581-2.273 0-3.506-1.763-3.591-3.873-.099-2.448.843-4.69 3.591-4.69zm11.658 8.745h.051c.989 1.58 2.556 2.396 4.457 2.396 4.283 0 6.151-3.531 5.996-7.4-.165-4.084-2.556-6.32-6.758-6.32-1.163 0-2.32.183-3.473.422l.188-4.582h-3.807c.178 7.034.061 12.089-.09 17.57h3.516l-.085-2.082zm3.087-8.745c2.513 0 3.666 1.74 3.76 4.056.08 2.03-.8 4.506-3.177 4.506-1.849 0-3.393-1.58-3.477-3.634-.066-1.712-.043-3.081.089-4.399.913-.29 1.854-.525 2.81-.525zm15.695 8.637c-.65.239-1.332.394-2.048.394-1.058 0-2.235-.315-2.282-1.553-.094-2.344 4.325-2.213 5.652-3.422-.061 4.426-.094 5.608-.179 6.77h3.676c-.16-3.948.122-8.111.047-9.982-.113-2.87-2.942-3.423-5.266-3.423-1.93 0-3.822.314-5.681.764l-.301 2.448c1.614-.633 3.341-1.107 5.111-1.107.979 0 2.414.183 2.461 1.449.113 2.846-9.257 1.135-9.045 6.452.047 1.186.598 3.714 4.857 3.714.847 0 1.638-.08 2.423-.24l.57-2.264zM43.886 36.842c.02-3.452.057-5.215.118-6.954h-4.122c.282 7.033.089 12.088-.062 17.57h4.123c-.052-2.608-.099-5.083-.075-7.822h8.777c.056 3.4.014 5.608-.109 7.821h4.18c-.236-5.875-.128-11.722.009-17.57h-4.123c.104 2.556.104 6.48.094 6.955h-8.805zM62.87 47.748c-.522 1.529-1.238 3.371-2.984 3.371-1.214 0-1.779-.239-2.536-.58l.484 2.845c.88.211 1.812.314 2.711.314 3.464 0 4.391-1.87 4.993-3.343l6.443-15.99h-3.647c-1.13 3.452-2.509 6.715-3.53 10.166h-.052c-.847-3.37-2.277-6.69-3.29-10.165h-3.778l5.19 13.382zm18.786-.291h3.464c-.212-5.265-.08-14.484.09-17.57h-3.751c.094 2.294.103 3.213.07 4.399-.88-.131-1.755-.24-2.626-.24-5.261 0-7.901 3.344-7.723 7.77.132 3.32 2.353 5.95 5.817 5.95 2.142 0 3.535-.815 4.664-2.395h.052l-.047 2.082zm-.16-10.536c.038 1.552.08 3.292-.122 4.82-.25 1.74-1.238 3.452-3.219 3.452-2.141 0-3.238-1.58-3.318-3.583-.113-2.818 1.44-4.98 4.824-4.98a6.31 6.31 0 0 1 1.835.291zm9.502-2.555h-3.516c.236 5.847.113 9.378.024 13.091h3.675l-.065-1.631c-.062-1.529-.146-4.319.084-5.744.297-1.843 1.332-3.081 3.233-3.081.504 0 .74.037 1.224.197l-.014-3.015a5.375 5.375 0 0 0-1.144-.132c-1.637 0-2.692.793-3.459 2.082h-.052l.01-1.763z"/>
		<path d="M102.138 34.052c-4.414 0-7.37 2.715-7.19 7.188.112 2.846 1.98 6.532 7.317 6.532 6.081 0 7.271-4.53 7.168-7.085-.17-4.267-3.149-6.64-7.3-6.64zm.08 2.583c2.405 0 3.455 1.791 3.544 3.976.094 2.345-.899 4.582-3.544 4.582-2.273 0-3.506-1.763-3.59-3.873-.1-2.448.842-4.69 3.59-4.69z"/>
	</g>
</svg>
