<svg width="130" height="49" viewBox="0 0 130 49" fill="none" xmlns="http://www.w3.org/2000/svg">
<path d="M129.097 44.4084C129.057 44.3371 128.969 44.3104 128.888 44.3673C128.452 44.6484 127.888 44.7629 127.424 44.7629C126.863 44.7629 126.468 44.5943 126.187 44.327C125.923 44.0769 125.772 43.7462 125.711 43.3974C125.711 43.3974 125.663 43.1813 125.663 42.9521C125.663 42.7215 125.677 42.5904 125.68 42.5428V42.5226C125.746 41.968 125.969 41.4439 126.323 41.0123C126.731 40.5187 127.292 40.2521 127.87 40.2521C128.178 40.2521 128.431 40.3501 128.587 40.5057C128.652 40.573 128.702 40.6524 128.736 40.7394C128.769 40.8263 128.786 40.919 128.783 41.0123C128.783 41.5765 128.36 41.9959 127.742 42.2351C127.428 42.367 127.08 42.4513 126.725 42.4989C126.693 42.5039 126.664 42.5205 126.643 42.5454C126.623 42.5703 126.612 42.6019 126.613 42.6343L126.654 43.2288C126.66 43.2937 126.715 43.3369 126.796 43.3268H126.775C127.387 43.2591 127.999 43.1178 128.526 42.8707C129.384 42.4621 129.99 41.8165 129.99 40.8739C129.993 40.6422 129.946 40.4125 129.851 40.2011C129.757 39.9897 129.617 39.8017 129.442 39.6504C129.091 39.3701 128.57 39.1878 127.924 39.1878C126.87 39.1878 125.927 39.6677 125.265 40.3839C124.646 41.0735 124.281 42.0161 124.281 42.9853C124.281 43.9544 124.619 44.6887 125.153 45.165C125.687 45.6277 126.404 45.8409 127.151 45.8409C128.08 45.8409 128.837 45.6313 129.331 45.3207C129.415 45.263 129.429 45.1917 129.402 45.111L129.091 44.4214L129.097 44.4084ZM68.7966 44.4084C68.7564 44.3371 68.6687 44.3104 68.5876 44.3673C68.1516 44.6484 67.5871 44.7629 67.1238 44.7629C66.5629 44.7629 66.1671 44.5943 65.8863 44.327C65.6227 44.0769 65.4712 43.7462 65.4101 43.3974C65.4101 43.3974 65.3627 43.1813 65.3627 42.9521C65.3627 42.7215 65.3764 42.5904 65.3792 42.5428V42.5226C65.4456 41.968 65.6687 41.444 66.022 41.0123C66.4314 40.5187 66.9917 40.2521 67.5698 40.2521C67.8772 40.2521 68.1308 40.3501 68.2866 40.5057C68.3509 40.573 68.4014 40.6524 68.435 40.7394C68.4687 40.8263 68.4849 40.9191 68.4827 41.0123C68.4827 41.5765 68.0597 41.9959 67.4413 42.2351C67.1274 42.367 66.7791 42.4513 66.4243 42.4989C66.3923 42.5038 66.3632 42.5203 66.3426 42.5452C66.3219 42.5702 66.3111 42.6019 66.3122 42.6343L66.3531 43.2288C66.3603 43.2937 66.4142 43.3369 66.4954 43.3268H66.4745C67.0865 43.2591 67.6984 43.1178 68.2256 42.8707C69.0839 42.4621 69.6893 41.8165 69.6893 40.8739C69.6927 40.6422 69.6454 40.4125 69.5507 40.2011C69.456 39.9897 69.3163 39.8017 69.1413 39.6504C68.7901 39.3701 68.2694 39.1878 67.6237 39.1878C66.5693 39.1878 65.6263 39.6677 64.9641 40.3839C64.345 41.0735 63.9801 42.0161 63.9801 42.9853C63.9801 43.9544 64.3177 44.6887 64.852 45.165C65.3864 45.6277 66.1032 45.8409 66.8502 45.8409C67.7796 45.8409 68.5366 45.6313 69.03 45.3207C69.1148 45.263 69.1284 45.1917 69.1011 45.111L68.7901 44.4214L68.7966 44.4084ZM62.6025 42.5399L62.2075 45.5333C62.2017 45.5784 62.1802 45.6202 62.1469 45.6511C62.1136 45.682 62.0704 45.7003 62.0251 45.7026H60.97C60.886 45.7026 60.8149 45.6449 60.8285 45.5333L61.2379 42.5399C61.2781 42.2286 61.3083 41.877 61.3083 41.6817C61.3083 41.2594 61.2099 40.8941 60.9973 40.6541C60.8149 40.4581 60.5613 40.3299 60.223 40.3299C59.7598 40.3299 59.3647 40.5259 59.0573 40.8631C58.6343 41.3265 58.4519 41.962 58.3808 42.4246L57.9448 45.5333C57.938 45.5805 57.9144 45.6237 57.8784 45.6548C57.8424 45.6859 57.7963 45.7029 57.7487 45.7026H56.7073C56.6096 45.7026 56.5522 45.6449 56.5522 45.5333L57.4112 39.4753C57.4112 39.391 57.4952 39.3196 57.6072 39.3196H58.5359C58.6336 39.3196 58.6609 39.3902 58.6609 39.4753L58.5359 40.3198H58.5761C58.8297 39.9955 59.0832 39.7592 59.3777 39.5733C59.7831 39.3234 60.25 39.1924 60.7258 39.195C61.3449 39.195 61.7945 39.3902 62.1048 39.7152C62.5278 40.1642 62.6966 40.8401 62.6966 41.5297C62.6887 41.8693 62.656 42.2079 62.5989 42.5428L62.6025 42.5399ZM75.8697 39.6979C75.9401 39.7693 75.9272 39.8536 75.8827 39.9242L75.3892 40.7255C75.3181 40.8098 75.2204 40.8365 75.122 40.7658C74.7845 40.5569 74.4325 40.4012 73.97 40.4012C72.7734 40.4012 72.3676 41.668 72.2527 42.5536L71.8304 45.5469C71.816 45.6449 71.7586 45.7026 71.6609 45.7026H70.5792C70.5582 45.7027 70.5374 45.6982 70.5183 45.6893C70.4992 45.6805 70.4823 45.6675 70.4688 45.6513C70.4553 45.6351 70.4455 45.6162 70.4401 45.5958C70.4347 45.5754 70.4339 45.554 70.4377 45.5333L71.2824 39.4882C71.296 39.391 71.3671 39.3196 71.4519 39.3196H72.3949C72.4926 39.3196 72.55 39.3902 72.5364 39.4882L72.4387 40.2621H72.479C72.8883 39.6576 73.4931 39.195 74.3923 39.195C74.9834 39.195 75.5178 39.4212 75.8697 39.7015V39.6979ZM79.7223 45.9692L79.8064 45.3509C79.4278 45.6449 78.9071 45.8265 78.316 45.8265C77.5554 45.8265 76.9672 45.5743 76.5449 45.1247C76.1218 44.6448 75.8992 43.9717 75.8992 43.1719C75.8992 42.2726 76.1929 41.3027 76.7575 40.5425C77.322 39.7685 78.1774 39.2079 79.2756 39.2079C79.8947 39.2079 80.3307 39.3902 80.7257 39.6576L80.753 39.4882C80.7666 39.3636 80.8377 39.3196 80.9354 39.3196H81.821C81.9194 39.3196 81.9898 39.3902 81.9632 39.4882L81.0776 45.7862C80.9354 46.8411 80.5569 47.6856 79.8811 48.2196C79.2892 48.7125 78.4747 48.9222 77.6028 48.9222C76.7309 48.9222 75.7878 48.6282 75.2398 48.2463C75.1558 48.1886 75.1558 48.0913 75.1996 48.02L75.6622 47.2461C75.7333 47.1481 75.8317 47.1214 75.9293 47.2057C76.379 47.53 76.9435 47.7966 77.6869 47.7966C78.306 47.7966 78.7685 47.6417 79.1068 47.3174C79.4314 47.0061 79.6275 46.5572 79.7252 45.9692H79.7223ZM80.0024 43.9854L80.4657 40.7385C80.1985 40.5425 79.8875 40.3738 79.4113 40.3738C78.7484 40.3738 78.2449 40.7248 77.8937 41.2184C77.5281 41.7386 77.332 42.4282 77.332 43.0465C77.332 43.5264 77.4304 43.9314 77.6567 44.229C77.8829 44.5266 78.2176 44.6916 78.6708 44.6916C79.1477 44.6916 79.7252 44.4826 80.006 43.989L80.0024 43.9854ZM86.3487 46.0535C85.8991 46.9391 85.4057 47.628 84.8577 48.1346C84.1682 48.7399 83.3235 49.0504 82.313 48.9928C82.2282 48.9928 82.2009 48.9352 82.2009 48.8516L82.3568 47.8103C82.3568 47.726 82.4279 47.6856 82.5119 47.6856H82.8229C83.2725 47.6856 83.6949 47.5163 84.0734 47.1791C84.4026 46.8636 84.687 46.5043 84.9187 46.1112L82.9917 39.5466C82.9651 39.4342 82.9917 39.3196 83.1612 39.3196H84.3578C84.4993 39.3196 84.5539 39.36 84.584 39.5019L85.8215 44.3947L88.1702 39.5019C88.2111 39.36 88.3124 39.3196 88.451 39.3196H89.5628C89.7323 39.3196 89.705 39.4616 89.6612 39.5459L86.3552 46.0571L86.3487 46.0535ZM98.7562 37.4648C98.6987 37.5491 98.6441 37.5491 98.5601 37.5052C98.2241 37.2901 97.8332 37.1775 97.4346 37.1809C97.0561 37.1809 96.789 37.3229 96.6029 37.5455C96.3932 37.8121 96.2646 38.1912 96.2072 38.6264L96.1095 39.316H97.7557C97.8397 39.316 97.9108 39.3737 97.8972 39.4717L97.7693 40.2585C97.7557 40.3299 97.6846 40.4142 97.5998 40.4142H95.9536L94.8555 48.247C94.8418 48.358 94.7571 48.4286 94.673 48.4286H93.605C93.5203 48.4286 93.4628 48.358 93.4628 48.2463L94.5445 40.4142H93.8277C93.7436 40.4142 93.6862 40.3436 93.6991 40.2456L93.8112 39.4717C93.8241 39.3874 93.8952 39.316 93.9799 39.316H94.7097L94.8792 38.2618C94.9905 37.5729 95.2304 37.0116 95.6398 36.6167C96.0621 36.2384 96.6539 36.0114 97.4275 36.0114C98.2017 36.0114 98.7935 36.2514 99.1986 36.461C99.2697 36.5014 99.3272 36.5727 99.2561 36.6873L98.749 37.4612L98.7562 37.4648ZM103.313 44.621C102.722 45.3675 101.85 45.8309 100.768 45.8309C100.038 45.8309 99.3624 45.6046 98.8553 45.1679C98.3073 44.675 97.9388 43.9451 97.9388 43.0025C97.9388 41.9757 98.2498 41.0901 98.754 40.4445C99.0589 40.0506 99.4494 39.7317 99.8958 39.5122C100.342 39.2926 100.833 39.1782 101.33 39.1777C102.077 39.1777 102.762 39.4443 103.27 39.9076C103.804 40.4012 104.141 41.1175 104.141 42.0161C104.141 43.0299 103.844 43.9422 103.31 44.6174L103.313 44.621ZM102.33 40.7557C102.077 40.4618 101.711 40.3198 101.289 40.3198C100.71 40.3198 100.19 40.6578 99.8386 41.178C99.5276 41.6406 99.3315 42.2589 99.3315 42.9074C99.3315 43.4861 99.501 43.935 99.7811 44.229C100.035 44.5533 100.4 44.7089 100.823 44.7089C101.427 44.7089 101.921 44.3983 102.273 43.9083C102.584 43.4147 102.766 42.7828 102.766 42.0939C102.766 41.4886 102.597 41.0397 102.33 40.7594V40.7557ZM110.601 39.6979C110.672 39.7693 110.659 39.8536 110.615 39.9242L110.121 40.7255C110.05 40.8098 109.952 40.8365 109.854 40.7658C109.516 40.5569 109.165 40.4012 108.702 40.4012C107.505 40.4012 107.099 41.668 106.984 42.5536L106.562 45.5469C106.548 45.6449 106.491 45.7026 106.393 45.7026H105.311C105.29 45.7027 105.27 45.6982 105.25 45.6893C105.231 45.6805 105.214 45.6675 105.201 45.6513C105.187 45.6352 105.177 45.6162 105.172 45.5958C105.167 45.5754 105.166 45.5541 105.169 45.5333L106.015 39.4882C106.028 39.391 106.099 39.3196 106.183 39.3196H107.126C107.224 39.3196 107.282 39.3902 107.269 39.4882L107.17 40.2621H107.211C107.62 39.6576 108.225 39.195 109.124 39.195C109.716 39.195 110.249 39.4212 110.601 39.7015V39.6979ZM114.863 45.5469C114.849 45.6449 114.778 45.7019 114.694 45.7019H113.609C113.524 45.7019 113.466 45.6442 113.466 45.5333L114.775 36.2823C114.789 36.1973 114.859 36.1267 114.944 36.1267H116.025C116.11 36.1267 116.168 36.1973 116.154 36.2823L114.859 45.5469H114.863ZM118.125 45.5469C118.112 45.6449 118.041 45.7026 117.957 45.7026H116.871C116.787 45.7026 116.729 45.6449 116.729 45.5333L117.602 39.4753C117.615 39.3902 117.686 39.3196 117.771 39.3196H118.852C118.937 39.3196 118.995 39.3902 118.981 39.4753L118.122 45.5498L118.125 45.5469ZM118.744 37.2241C118.281 37.2241 117.899 36.8595 117.899 36.3933C117.899 35.9271 118.278 35.5625 118.744 35.5625C119.211 35.5625 119.576 35.9271 119.576 36.3933C119.576 36.8595 119.211 37.2241 118.744 37.2241ZM125.101 37.4648C125.043 37.5491 124.99 37.5491 124.905 37.5052C124.569 37.2901 124.178 37.1775 123.779 37.1809C123.401 37.1809 123.134 37.3229 122.948 37.5455C122.738 37.8121 122.609 38.1912 122.556 38.6264L122.458 39.316H124.104C124.188 39.316 124.259 39.3737 124.246 39.4717L124.121 40.2585C124.107 40.3299 124.036 40.4142 123.952 40.4142H122.306L121.207 48.247C121.193 48.358 121.109 48.4286 121.024 48.4286H119.956C119.871 48.4286 119.814 48.358 119.814 48.2463L120.899 40.4142H120.182C120.098 40.4142 120.041 40.3436 120.054 40.2456L120.166 39.4717C120.18 39.3874 120.25 39.316 120.335 39.316H121.065L121.234 38.2618C121.345 37.5729 121.585 37.0116 121.995 36.6167C122.417 36.2384 123.005 36.0114 123.779 36.0114C124.553 36.0114 125.145 36.2514 125.551 36.461C125.622 36.5014 125.676 36.5727 125.608 36.6873L125.101 37.4612V37.4648ZM54.9103 44.4084C54.8701 44.3371 54.7824 44.3104 54.7013 44.3673C54.2653 44.6484 53.7008 44.7629 53.2375 44.7629C52.6766 44.7629 52.2808 44.5943 52 44.327C51.7364 44.0769 51.5841 43.7462 51.5238 43.3974C51.5238 43.3974 51.4764 43.1813 51.4764 42.9521C51.4764 42.7215 51.4901 42.5904 51.4929 42.5428V42.5226C51.5593 41.968 51.7823 41.444 52.1357 41.0123C52.5451 40.5187 53.1054 40.2521 53.6835 40.2521C53.9909 40.2521 54.2445 40.3501 54.4003 40.5057C54.4646 40.573 54.5151 40.6524 54.5487 40.7394C54.5824 40.8263 54.5986 40.9191 54.5964 41.0123C54.5964 41.5765 54.1741 41.9959 53.555 42.2351C53.2411 42.367 52.8928 42.4513 52.538 42.4989C52.506 42.5038 52.4769 42.5203 52.4563 42.5452C52.4356 42.5702 52.4248 42.6019 52.4259 42.6343L52.4669 43.2288C52.474 43.2937 52.5279 43.3369 52.6091 43.3268H52.5882C53.2002 43.2591 53.8121 43.1178 54.3393 42.8707C55.1976 42.4621 55.803 41.8165 55.803 40.8739C55.8064 40.6422 55.7591 40.4125 55.6644 40.2011C55.5697 39.9897 55.43 39.8017 55.255 39.6504C54.9038 39.3701 54.3831 39.1878 53.7374 39.1878C52.683 39.1878 51.74 39.6677 51.0778 40.3839C50.4587 41.0735 50.0938 42.0161 50.0938 42.9853C50.0938 43.9544 50.4314 44.6887 50.9657 45.165C51.5001 45.6277 52.2169 45.8409 52.9639 45.8409C53.8933 45.8409 54.6503 45.6313 55.1437 45.3207C55.2285 45.263 55.2421 45.1917 55.2148 45.111L54.9038 44.4214L54.9103 44.4084ZM26.2672 20.2932C26.2672 13.9412 21.7581 8.64274 15.7616 7.42638V0H10.5056V7.4235C4.51265 8.63985 0 13.9376 0 20.2932H5.25243C5.25243 16.8567 7.44304 13.9412 10.5056 12.8596V20.2831H15.7616V12.8596C18.8213 13.9405 21.0112 16.8603 21.0112 20.2896H26.2672V20.2932ZM40.8559 10.295H40.8933L40.9335 11.319C41.052 14.3195 41.0218 17.3165 41.0283 20.2968H43.7288C43.5026 14.6034 43.4825 11.2448 43.4889 7.63607H39.372C38.9598 8.94394 38.5267 10.1603 38.0807 11.4134C37.4682 13.1283 36.8802 14.8519 36.3167 16.5836H36.2793C35.7349 14.8196 35.2278 13.235 34.5484 11.3932C34.0988 10.1603 33.6154 8.92665 33.3554 7.63607H29.2112C29.1674 8.47052 28.9742 16.4042 28.6366 20.2968H31.4255C31.4047 16.9381 31.4995 13.5795 31.6518 10.295H31.6891C31.9764 11.265 32.4835 12.6298 32.8548 13.8259L34.9169 20.2968H37.4788L40.8559 10.295ZM50.1656 18.7223C49.6988 18.8945 49.209 19.0062 48.6954 19.0062C47.9341 19.0062 47.0894 18.7793 47.0557 17.8872C46.9882 16.1981 50.162 16.2925 51.1151 15.4213C51.072 18.6106 51.0476 19.4624 50.9866 20.2997H53.6268C53.5119 17.4548 53.7144 14.455 53.6605 13.1068C53.5794 11.0387 51.5482 10.6402 49.8783 10.6402C48.4922 10.6402 47.1333 10.8665 45.7988 11.1907L45.5855 12.9547C46.7447 12.4986 47.9851 12.157 49.2556 12.157C49.9595 12.157 50.9902 12.2889 51.0239 13.2012C51.1051 15.252 44.3717 14.019 44.5275 17.8504C44.5613 18.705 44.957 20.5267 48.0124 20.5267C48.6207 20.5267 49.1888 20.469 49.7534 20.3537L50.1628 18.7223H50.1656ZM57.7631 10.8665H55.1063C55.1894 14.0114 55.1443 17.1584 54.9713 20.2997H57.6862C57.669 19.4451 57.5807 16.7522 57.804 15.2318C58.0166 13.867 58.788 12.7652 60.2884 12.7652C61.6746 12.7652 62.3267 13.431 62.3806 14.7958C62.4553 16.6175 62.3368 18.4788 62.1644 20.3004H64.9727C64.8578 17.4548 65.0172 14.7958 64.9727 13.6407C64.8851 11.4206 63.3337 10.6402 61.3227 10.6402C59.7849 10.6402 58.5108 11.0963 57.7674 12.4035H57.7293L57.7631 10.8665ZM66.4027 10.8665C66.5104 14.0154 66.5212 17.168 66.3452 20.3004H69.1751C69.0386 16.4856 69.0221 13.6782 69.1578 10.8665H66.4027ZM69.0932 9.27181V7.48691H66.3654L66.3991 9.27109L69.0932 9.27181ZM76.3474 12.7249V10.8658H73.9743L73.9607 8.60887L71.5338 9.13994L71.5065 10.8665H70.1009V12.7249H71.4296C71.4081 13.1435 71.3003 17.1104 71.3377 18.0767C71.4124 19.9387 72.3281 20.5267 74.1129 20.5267C74.8326 20.5267 75.5322 20.4316 76.2288 20.2428L76.4924 18.2864C76.0392 18.4017 75.7419 18.5126 74.9813 18.5126C74.1467 18.5126 73.9671 17.867 73.937 17.07C73.9097 16.4042 73.9671 13.5391 73.9707 12.7249H76.3438H76.3474Z" fill="#0079C1"/>
<path d="M81.5122 10.6366C78.3413 10.6366 76.2189 12.593 76.3474 15.8198C76.4286 17.8706 77.7703 20.5267 81.6035 20.5267C85.9703 20.5267 86.8293 17.2624 86.7546 15.4213C86.6332 12.3466 84.4936 10.6366 81.5122 10.6366ZM81.5661 12.4986C83.2935 12.4986 84.0469 13.7885 84.1115 15.3637C84.179 17.0527 83.4658 18.6647 81.5661 18.6647C79.9336 18.6647 79.048 17.3943 78.9869 15.8739C78.9158 14.1099 79.5924 12.4943 81.5661 12.4943V12.4986ZM89.9393 18.8002H89.9759C90.6862 19.9387 91.8117 20.5267 93.1771 20.5267C96.2533 20.5267 97.5949 17.9823 97.4836 15.1943C97.3651 12.2515 95.6478 10.6402 92.6298 10.6402C91.7945 10.6402 90.9635 10.7721 90.1353 10.9443L90.2704 7.64258H87.5361C87.6639 12.7112 87.5799 16.3538 87.4714 20.3033H89.9967L89.9357 18.803L89.9393 18.8002ZM92.1564 12.4986C93.9614 12.4986 94.7895 13.7524 94.857 15.4213C94.9145 16.8841 94.2824 18.6683 92.5752 18.6683C91.2472 18.6683 90.1382 17.5298 90.0779 16.0497C90.0305 14.816 90.047 13.8295 90.1418 12.8798C90.7976 12.6708 91.4734 12.5015 92.16 12.5015L92.1564 12.4986ZM103.429 18.7223C102.962 18.8946 102.472 19.0063 101.958 19.0063C101.198 19.0063 100.353 18.7793 100.319 17.8872C100.252 16.1981 103.426 16.2925 104.379 15.4213C104.335 18.6107 104.311 19.4624 104.25 20.2997H106.89C106.775 17.4548 106.978 14.455 106.924 13.1068C106.843 11.0387 104.811 10.6402 103.142 10.6402C101.756 10.6402 100.397 10.8665 99.0615 11.1908L98.8453 12.9548C100.005 12.4986 101.245 12.1571 102.516 12.1571C103.219 12.1571 104.25 12.2889 104.284 13.2012C104.365 15.252 97.6351 14.0191 97.7874 17.8504C97.8211 18.705 98.2169 20.5267 101.276 20.5267C101.884 20.5267 102.452 20.469 103.016 20.3538L103.426 18.7223H103.429ZM31.5204 26.5479C31.5348 24.0605 31.5614 22.7901 31.6052 21.537H28.6446C28.8472 26.6049 28.7086 30.2474 28.6001 34.1977H31.5614C31.524 32.3184 31.4903 30.5349 31.5075 28.5613H37.8114C37.8516 31.0113 37.8215 32.6023 37.7331 34.197H40.7353C40.5658 29.9635 40.6434 25.7502 40.7418 21.5362H37.7805C37.8552 23.3781 37.8552 26.2057 37.8481 26.5479H31.524H31.5204ZM45.1553 34.4067C44.7804 35.5084 44.2662 36.8358 43.0121 36.8358C42.1402 36.8358 41.7344 36.6635 41.1907 36.4178L41.5383 38.4679C42.1704 38.6199 42.8398 38.6942 43.4855 38.6942C45.9734 38.6942 46.6392 37.3467 47.0716 36.2852L51.6992 24.763H49.0798C48.2682 27.2505 47.2777 29.6018 46.5444 32.0885H46.5071C45.8987 29.6602 44.8716 27.2678 44.1441 24.7638H41.4306L45.1582 34.4067H45.1553ZM58.6481 34.197H61.136C60.9837 30.4031 61.0785 23.76 61.2006 21.5362H58.5066C58.5741 23.1893 58.5805 23.8515 58.5568 24.7061C57.9248 24.6117 57.2963 24.5332 56.6708 24.5332C52.8921 24.5332 50.996 26.9428 51.1239 30.1321C51.2187 32.5245 52.8139 34.4196 55.3018 34.4196C56.8403 34.4196 57.8408 33.8324 58.6516 32.6938H58.689L58.6552 34.1941L58.6481 34.197ZM58.5331 26.6049C58.5604 27.7232 58.5906 28.977 58.4455 30.0781C58.266 31.3319 57.5563 32.5656 56.1335 32.5656C54.5958 32.5656 53.8079 31.427 53.7504 29.9837C53.6693 27.9531 54.7847 26.3952 57.2152 26.3952C57.6624 26.3994 58.1065 26.4701 58.5331 26.6049ZM65.3578 24.7638H62.8325C63.002 28.977 62.9136 31.5214 62.8497 34.197H65.4892L65.4425 33.0217C65.398 31.9199 65.3377 29.9095 65.5029 28.8826C65.7162 27.5546 66.4595 26.6625 67.8249 26.6625C68.1869 26.6625 68.3564 26.6892 68.704 26.8045L68.694 24.6319C68.4243 24.5708 68.1488 24.5389 67.8723 24.5368C66.6966 24.5368 65.9388 25.1082 65.3879 26.037H65.3506L65.3578 24.7666V24.7638Z" fill="#0079C1"/>
<path d="M73.3586 24.5374C70.1884 24.5374 68.0653 26.4938 68.1946 29.717C68.275 31.7678 69.6167 34.4239 73.4499 34.4239C77.8174 34.4239 78.6721 31.1596 78.5982 29.3185C78.4761 26.2438 76.3364 24.5338 73.3551 24.5338L73.3586 24.5374ZM73.4161 26.3987C75.1435 26.3987 75.8976 27.6893 75.9615 29.2638C76.029 30.9535 75.3158 32.5655 73.4161 32.5655C71.7836 32.5655 70.898 31.2951 70.8377 29.7747C70.7658 28.0107 71.4424 26.3951 73.4161 26.3951V26.3987Z" fill="#0079C1"/>
</svg>
