<svg width="36" height="36" viewBox="0 0 36 36" fill="none" xmlns="http://www.w3.org/2000/svg">
<path d="M18.0025 13.0778C15.2783 13.0778 13.081 15.2756 13.081 18.0004C13.081 20.7252 15.2783 22.923 18.0025 22.923C20.7267 22.923 22.9241 20.7252 22.9241 18.0004C22.9241 15.2756 20.7267 13.0778 18.0025 13.0778ZM18.0025 21.2007C16.2421 21.2007 14.8029 19.7655 14.8029 18.0004C14.8029 16.2353 16.2378 14.8 18.0025 14.8C19.7673 14.8 21.2022 16.2353 21.2022 18.0004C21.2022 19.7655 19.763 21.2007 18.0025 21.2007ZM24.2733 12.8764C24.2733 13.5148 23.7593 14.0246 23.1254 14.0246C22.4872 14.0246 21.9775 13.5105 21.9775 12.8764C21.9775 12.2423 22.4915 11.7282 23.1254 11.7282C23.7593 11.7282 24.2733 12.2423 24.2733 12.8764ZM27.5329 14.0417C27.4601 12.5037 27.1089 11.1413 25.9824 10.0188C24.8601 8.8963 23.498 8.54499 21.9603 8.46787C20.3755 8.3779 15.6253 8.3779 14.0405 8.46787C12.507 8.5407 11.1449 8.89201 10.0184 10.0145C8.8919 11.137 8.54495 12.4994 8.46785 14.0374C8.3779 15.6226 8.3779 20.3739 8.46785 21.9591C8.54067 23.4971 8.8919 24.8595 10.0184 25.982C11.1449 27.1045 12.5027 27.4558 14.0405 27.5329C15.6253 27.6229 20.3755 27.6229 21.9603 27.5329C23.498 27.4601 24.8601 27.1088 25.9824 25.982C27.1046 24.8595 27.4558 23.4971 27.5329 21.9591C27.6229 20.3739 27.6229 15.6269 27.5329 14.0417ZM25.4855 23.6599C25.1514 24.4996 24.5046 25.1466 23.6608 25.485C22.3972 25.9863 19.3989 25.8706 18.0025 25.8706C16.6062 25.8706 13.6036 25.982 12.3443 25.485C11.5047 25.1509 10.8579 24.5039 10.5196 23.6599C10.0184 22.3961 10.1341 19.3971 10.1341 18.0004C10.1341 16.6037 10.0227 13.6004 10.5196 12.3409C10.8537 11.5011 11.5004 10.8542 12.3443 10.5158C13.6078 10.0145 16.6062 10.1302 18.0025 10.1302C19.3989 10.1302 22.4015 10.0188 23.6608 10.5158C24.5003 10.8499 25.1471 11.4969 25.4855 12.3409C25.9866 13.6047 25.871 16.6037 25.871 18.0004C25.871 19.3971 25.9866 22.4003 25.4855 23.6599Z" fill="#004369"/>
</svg>
