<svg width="36" height="36" viewBox="0 0 36 36" fill="none" xmlns="http://www.w3.org/2000/svg">
<path d="M14.0241 23.9996H11.0386V14.3855H14.0241V23.9996ZM12.5297 13.074C11.5751 13.074 10.8008 12.2833 10.8008 11.3286C10.8008 10.8701 10.9829 10.4303 11.3072 10.106C11.6314 9.78177 12.0712 9.59961 12.5297 9.59961C12.9883 9.59961 13.4281 9.78177 13.7523 10.106C14.0766 10.4303 14.2587 10.8701 14.2587 11.3286C14.2587 12.2833 13.4841 13.074 12.5297 13.074ZM25.1976 23.9996H22.2186V19.3195C22.2186 18.2041 22.1961 16.7737 20.6664 16.7737C19.1142 16.7737 18.8764 17.9855 18.8764 19.2391V23.9996H15.8941V14.3855H18.7574V15.6969H18.7992C19.1978 14.9416 20.1714 14.1444 21.6239 14.1444C24.6454 14.1444 25.2008 16.1341 25.2008 18.7184V23.9996H25.1976Z" fill="#004369"/>
</svg>
