<svg width="36" height="36" viewBox="0 0 36 36" fill="none" xmlns="http://www.w3.org/2000/svg">
<path d="M22.6723 16.655C22.5884 16.613 22.5029 16.5722 22.4161 16.5338C22.2657 13.6324 20.7483 11.9711 18.2 11.9543C16.7298 11.9441 15.4134 12.5705 14.5933 13.8706L15.9947 14.8749C16.5776 13.951 17.4925 13.7542 18.1662 13.7542H18.1891C19.0282 13.7596 19.6617 14.0146 20.0712 14.5114C20.3693 14.8737 20.5691 15.3735 20.6679 16.0047C19.9236 15.8727 19.1195 15.8319 18.2592 15.8835C15.8367 16.0293 14.2792 17.5052 14.3837 19.5559C14.4365 20.5968 14.9327 21.4914 15.7804 22.0763C16.4972 22.5707 17.4207 22.8125 18.3798 22.7573C19.6473 22.6853 20.6409 22.1801 21.3347 21.2568C21.8613 20.5554 22.1944 19.6465 22.3415 18.5017C22.9451 18.8821 23.3925 19.3831 23.64 19.9854C24.0598 21.009 24.0845 22.6913 22.7705 24.0628C21.6195 25.2645 20.2354 25.7841 18.1443 25.8003C15.8241 25.7823 14.0695 25.0047 12.9289 23.4898C11.8607 22.0715 11.3088 20.0226 11.2881 17.4002C11.3088 14.7777 11.8607 12.7289 12.9289 11.3106C14.0695 9.79564 15.8241 9.01809 18.1443 9.00009C20.4807 9.01809 22.2657 9.79924 23.4505 11.3214C24.0311 12.0677 24.4687 13.0067 24.7576 14.101L26.3996 13.6432C26.0498 12.2963 25.4996 11.1354 24.7502 10.1724C23.2317 8.22074 21.0113 7.22119 18.1501 7.2002H18.1386C15.2831 7.22119 13.0869 8.22494 11.612 10.1838C10.2991 11.9267 9.62201 14.3524 9.59961 17.393V17.4074C9.62201 20.448 10.2991 22.8737 11.612 24.6166C13.0869 26.5755 15.2831 27.5798 18.1386 27.6002H18.1501C20.6886 27.5816 22.4782 26.8874 23.9524 25.3485C25.881 23.3356 25.823 20.8128 25.1872 19.2637C24.7312 18.1532 23.8617 17.2508 22.6723 16.655ZM18.2891 20.9604C17.2277 21.0228 16.1245 20.5248 16.0699 19.4587C16.0297 18.6679 16.6086 17.7854 18.3545 17.6804C18.5544 17.6684 18.7508 17.6624 18.9432 17.6624C19.5773 17.6624 20.1705 17.7266 20.7098 17.8502C20.5088 20.4744 19.3292 20.9004 18.2891 20.9604Z" fill="#004369"/>
</svg>
