<svg width="36" height="36" viewBox="0 0 36 36" fill="none" xmlns="http://www.w3.org/2000/svg">
<path d="M28.3483 13.0528C28.0999 12.1659 27.3678 11.4673 26.4388 11.2303C24.7543 10.7998 17.9996 10.7998 17.9996 10.7998C17.9996 10.7998 11.245 10.7998 9.56046 11.2307C8.63099 11.4677 7.89928 12.1663 7.6509 13.0532C7.19922 14.6604 7.19922 18.0144 7.19922 18.0144C7.19922 18.0144 7.19922 21.3684 7.6505 22.9757C7.89889 23.8626 8.63099 24.5319 9.56006 24.7689C11.2446 25.1998 17.9992 25.1998 17.9992 25.1998C17.9992 25.1998 24.7539 25.1998 26.4384 24.7689C27.3678 24.5319 28.0995 23.8626 28.3479 22.9757C28.7992 21.3681 28.7992 18.0144 28.7992 18.0144C28.7992 18.0144 28.7992 14.6604 28.3479 13.0528H28.3483ZM15.7903 21.0594V14.9691L21.4359 18.0144L15.7903 21.0594Z" fill="#004369"/>
</svg>
